  0
SECTION
  2
HEADER
  9
$ACADVER
  1
AC1009
  9
$EXTMIN
 10
0.0
 20
0.0
 30
0.0
  9
$EXTMAX
 10
1000.0
 20
1000.0
 30
0.0
  9
$FILLMODE
 70
 0
  9
$SPLFRAME
 70
 1
  0
ENDSEC
  0
SECTION
  2
TABLES
  0
TABLE
  2
LAYER
 70
1
  0
LAYER
  2
0
 70
     0
 62
     7
  6
CONTINUOUS
  0
ENDTAB
  0
ENDSEC
  0
SECTION
  2
ENTITIES
  0
POLYLINE
  8
0
 62
     0
 66
     1
 10
0
 20
0
 30
0.0
 70
     1
 40
0
 41
0
  0
VERTEX
  8
0
 10
4.06082
 20
10.1686
 30
0.0
 40
0
 41
0
  0
VERTEX
  8
0
 10
4.09386
 20
10.1686
 30
0.0
 40
0
 41
0
  0
VERTEX
  8
0
 10
4.25082
 20
10.0282
 30
0.0
 40
0
 41
0
  0
VERTEX
  8
0
 10
4.27436
 20
10.0034
 30
0.0
 40
0
 41
0
  0
VERTEX
  8
0
 10
4.4089
 20
9.86404
 30
0.0
 40
0
 41
0
  0
VERTEX
  8
0
 10
4.54194
 20
9.72331
 30
0.0
 40
0
 41
0
  0
VERTEX
  8
0
 10
4.56478
 20
9.69781
 30
0.0
 40
0
 41
0
  0
VERTEX
  8
0
 10
4.58529
 20
9.67492
 30
0.0
 40
0
 41
0
  0
VERTEX
  8
0
 10
4.69797
 20
9.54178
 30
0.0
 40
0
 41
0
  0
VERTEX
  8
0
 10
4.80925
 20
9.4075
 30
0.0
 40
0
 41
0
  0
VERTEX
  8
0
 10
4.8291
 20
9.38396
 30
0.0
 40
0
 41
0
  0
VERTEX
  8
0
 10
4.83404
 20
9.37739
 30
0.0
 40
0
 41
0
  0
VERTEX
  8
0
 10
4.85792
 20
9.34565
 30
0.0
 40
0
 41
0
  0
VERTEX
  8
0
 10
4.92215
 20
9.26025
 30
0.0
 40
0
 41
0
  0
VERTEX
  8
0
 10
5.01058
 20
9.14279
 30
0.0
 40
0
 41
0
  0
VERTEX
  8
0
 10
5.11208
 20
9.00803
 30
0.0
 40
0
 41
0
  0
VERTEX
  8
0
 10
5.2156
 20
8.87088
 30
0.0
 40
0
 41
0
  0
VERTEX
  8
0
 10
5.30994
 20
8.74621
 30
0.0
 40
0
 41
0
  0
VERTEX
  8
0
 10
5.384
 20
8.64893
 30
0.0
 40
0
 41
0
  0
VERTEX
  8
0
 10
5.41575
 20
8.60742
 30
0.0
 40
0
 41
0
  0
VERTEX
  8
0
 10
5.42665
 20
8.59381
 30
0.0
 40
0
 41
0
  0
VERTEX
  8
0
 10
5.42665
 20
8.59381
 30
0.0
 40
0
 41
0
  0
VERTEX
  8
0
 10
5.43674
 20
8.59082
 30
0.0
 40
0
 41
0
  0
VERTEX
  8
0
 10
5.46306
 20
8.58421
 30
0.0
 40
0
 41
0
  0
VERTEX
  8
0
 10
5.49935
 20
8.57758
 30
0.0
 40
0
 41
0
  0
VERTEX
  8
0
 10
5.52946
 20
8.57454
 30
0.0
 40
0
 41
0
  0
VERTEX
  8
0
 10
5.53956
 20
8.57454
 30
0.0
 40
0
 41
0
  0
VERTEX
  8
0
 10
5.53922
 20
8.57915
 30
0.0
 40
0
 41
0
  0
VERTEX
  8
0
 10
5.53733
 20
8.62532
 30
0.0
 40
0
 41
0
  0
VERTEX
  8
0
 10
5.53358
 20
8.71907
 30
0.0
 40
0
 41
0
  0
VERTEX
  8
0
 10
5.53006
 20
8.8094
 30
0.0
 40
0
 41
0
  0
VERTEX
  8
0
 10
5.52854
 20
8.84983
 30
0.0
 40
0
 41
0
  0
VERTEX
  8
0
 10
5.52854
 20
8.84983
 30
0.0
 40
0
 41
0
  0
VERTEX
  8
0
 10
5.61117
 20
8.97374
 30
0.0
 40
0
 41
0
  0
VERTEX
  8
0
 10
5.61436
 20
8.98497
 30
0.0
 40
0
 41
0
  0
VERTEX
  8
0
 10
5.62549
 20
9.01818
 30
0.0
 40
0
 41
0
  0
VERTEX
  8
0
 10
5.64117
 20
9.05404
 30
0.0
 40
0
 41
0
  0
VERTEX
  8
0
 10
5.65935
 20
9.08268
 30
0.0
 40
0
 41
0
  0
VERTEX
  8
0
 10
5.68126
 20
9.10568
 30
0.0
 40
0
 41
0
  0
VERTEX
  8
0
 10
5.70796
 20
9.12435
 30
0.0
 40
0
 41
0
  0
VERTEX
  8
0
 10
5.74061
 20
9.14025
 30
0.0
 40
0
 41
0
  0
VERTEX
  8
0
 10
5.78049
 20
9.15468
 30
0.0
 40
0
 41
0
  0
VERTEX
  8
0
 10
5.81657
 20
9.16581
 30
0.0
 40
0
 41
0
  0
VERTEX
  8
0
 10
5.82867
 20
9.16922
 30
0.0
 40
0
 41
0
  0
VERTEX
  8
0
 10
5.84364
 20
9.16818
 30
0.0
 40
0
 41
0
  0
VERTEX
  8
0
 10
5.88857
 20
9.16461
 30
0.0
 40
0
 41
0
  0
VERTEX
  8
0
 10
5.95296
 20
9.15494
 30
0.0
 40
0
 41
0
  0
VERTEX
  8
0
 10
6.02746
 20
9.1339
 30
0.0
 40
0
 41
0
  0
VERTEX
  8
0
 10
6.09586
 20
9.1059
 30
0.0
 40
0
 41
0
  0
VERTEX
  8
0
 10
6.11783
 20
9.09489
 30
0.0
 40
0
 41
0
  0
VERTEX
  8
0
 10
6.17014
 20
8.98199
 30
0.0
 40
0
 41
0
  0
VERTEX
  8
0
 10
6.17242
 20
8.98118
 30
0.0
 40
0
 41
0
  0
VERTEX
  8
0
 10
6.18576
 20
8.97743
 30
0.0
 40
0
 41
0
  0
VERTEX
  8
0
 10
6.19851
 20
8.97244
 30
0.0
 40
0
 41
0
  0
VERTEX
  8
0
 10
6.20047
 20
8.97097
 30
0.0
 40
0
 41
0
  0
VERTEX
  8
0
 10
6.2029
 20
8.96912
 30
0.0
 40
0
 41
0
  0
VERTEX
  8
0
 10
6.21376
 20
8.95546
 30
0.0
 40
0
 41
0
  0
VERTEX
  8
0
 10
6.22331
 20
8.94043
 30
0.0
 40
0
 41
0
  0
VERTEX
  8
0
 10
6.22521
 20
8.93793
 30
0.0
 40
0
 41
0
  0
VERTEX
  8
0
 10
6.22797
 20
8.87463
 30
0.0
 40
0
 41
0
  0
VERTEX
  8
0
 10
6.22797
 20
8.87463
 30
0.0
 40
0
 41
0
  0
VERTEX
  8
0
 10
6.22265
 20
8.85969
 30
0.0
 40
0
 41
0
  0
VERTEX
  8
0
 10
6.21035
 20
8.82383
 30
0.0
 40
0
 41
0
  0
VERTEX
  8
0
 10
6.19656
 20
8.78033
 30
0.0
 40
0
 41
0
  0
VERTEX
  8
0
 10
6.18858
 20
8.75206
 30
0.0
 40
0
 41
0
  0
VERTEX
  8
0
 10
6.18668
 20
8.74246
 30
0.0
 40
0
 41
0
  0
VERTEX
  8
0
 10
6.26654
 20
8.73144
 30
0.0
 40
0
 41
0
  0
VERTEX
  8
0
 10
6.47304
 20
8.63238
 30
0.0
 40
0
 41
0
  0
VERTEX
  8
0
 10
6.50336
 20
8.64339
 30
0.0
 40
0
 41
0
  0
VERTEX
  8
0
 10
6.52339
 20
8.66922
 30
0.0
 40
0
 41
0
  0
VERTEX
  8
0
 10
6.6359
 20
8.81629
 30
0.0
 40
0
 41
0
  0
VERTEX
  8
0
 10
6.74972
 20
8.96224
 30
0.0
 40
0
 41
0
  0
VERTEX
  8
0
 10
6.77046
 20
8.98753
 30
0.0
 40
0
 41
0
  0
VERTEX
  8
0
 10
6.79161
 20
9.0134
 30
0.0
 40
0
 41
0
  0
VERTEX
  8
0
 10
6.8565
 20
9.09006
 30
0.0
 40
0
 41
0
  0
VERTEX
  8
0
 10
6.95096
 20
9.19917
 30
0.0
 40
0
 41
0
  0
VERTEX
  8
0
 10
7.04601
 20
9.30778
 30
0.0
 40
0
 41
0
  0
VERTEX
  8
0
 10
7.11208
 20
9.3834
 30
0.0
 40
0
 41
0
  0
VERTEX
  8
0
 10
7.13396
 20
9.40875
 30
0.0
 40
0
 41
0
  0
VERTEX
  8
0
 10
7.46436
 20
9.74735
 30
0.0
 40
0
 41
0
  0
VERTEX
  8
0
 10
7.51394
 20
9.78863
 30
0.0
 40
0
 41
0
  0
VERTEX
  8
0
 10
7.60482
 20
9.82167
 30
0.0
 40
0
 41
0
  0
VERTEX
  8
0
 10
7.6709
 20
9.82167
 30
0.0
 40
0
 41
0
  0
VERTEX
  8
0
 10
7.67367
 20
9.79139
 30
0.0
 40
0
 41
0
  0
VERTEX
  8
0
 10
7.50017
 20
9.51882
 30
0.0
 40
0
 41
0
  0
VERTEX
  8
0
 10
7.40104
 20
9.31239
 30
0.0
 40
0
 41
0
  0
VERTEX
  8
0
 10
7.39301
 20
9.28711
 30
0.0
 40
0
 41
0
  0
VERTEX
  8
0
 10
7.36774
 20
9.21149
 30
0.0
 40
0
 41
0
  0
VERTEX
  8
0
 10
7.338
 20
9.13206
 30
0.0
 40
0
 41
0
  0
VERTEX
  8
0
 10
7.30464
 20
9.05404
 30
0.0
 40
0
 41
0
  0
VERTEX
  8
0
 10
7.27171
 20
8.98144
 30
0.0
 40
0
 41
0
  0
VERTEX
  8
0
 10
7.26064
 20
8.95725
 30
0.0
 40
0
 41
0
  0
VERTEX
  8
0
 10
7.26064
 20
8.95725
 30
0.0
 40
0
 41
0
  0
VERTEX
  8
0
 10
7.25097
 20
8.94097
 30
0.0
 40
0
 41
0
  0
VERTEX
  8
0
 10
7.22542
 20
8.89785
 30
0.0
 40
0
 41
0
  0
VERTEX
  8
0
 10
7.18907
 20
8.83632
 30
0.0
 40
0
 41
0
  0
VERTEX
  8
0
 10
7.14686
 20
8.76497
 30
0.0
 40
0
 41
0
  0
VERTEX
  8
0
 10
7.10389
 20
8.69243
 30
0.0
 40
0
 41
0
  0
VERTEX
  8
0
 10
7.06526
 20
8.62711
 30
0.0
 40
0
 41
0
  0
VERTEX
  8
0
 10
7.03597
 20
8.57764
 30
0.0
 40
0
 41
0
  0
VERTEX
  8
0
 10
7.02479
 20
8.55881
 30
0.0
 40
0
 41
0
  0
VERTEX
  8
0
 10
7.02106
 20
8.55251
 30
0.0
 40
0
 41
0
  0
VERTEX
  8
0
 10
7.07058
 20
8.33778
 30
0.0
 40
0
 41
0
  0
VERTEX
  8
0
 10
7.02929
 20
8.37082
 30
0.0
 40
0
 41
0
  0
VERTEX
  8
0
 10
7.02106
 20
8.36257
 30
0.0
 40
0
 41
0
  0
VERTEX
  8
0
 10
7.04585
 20
8.28825
 30
0.0
 40
0
 41
0
  0
VERTEX
  8
0
 10
7.04585
 20
8.14785
 30
0.0
 40
0
 41
0
  0
VERTEX
  8
0
 10
7.04551
 20
8.14469
 30
0.0
 40
0
 41
0
  0
VERTEX
  8
0
 10
7.04346
 20
8.12668
 30
0.0
 40
0
 41
0
  0
VERTEX
  8
0
 10
7.03901
 20
8.10938
 30
0.0
 40
0
 41
0
  0
VERTEX
  8
0
 10
7.03754
 20
8.10656
 30
0.0
 40
0
 41
0
  0
VERTEX
  8
0
 10
7.03586
 20
8.10346
 30
0.0
 40
0
 41
0
  0
VERTEX
  8
0
 10
7.02225
 20
8.08914
 30
0.0
 40
0
 41
0
  0
VERTEX
  8
0
 10
7.00694
 20
8.07601
 30
0.0
 40
0
 41
0
  0
VERTEX
  8
0
 10
7.0045
 20
8.07351
 30
0.0
 40
0
 41
0
  0
VERTEX
  8
0
 10
6.97146
 20
7.97439
 30
0.0
 40
0
 41
0
  0
VERTEX
  8
0
 10
6.93842
 20
7.95785
 30
0.0
 40
0
 41
0
  0
VERTEX
  8
0
 10
6.80626
 20
7.79269
 30
0.0
 40
0
 41
0
  0
VERTEX
  8
0
 10
6.79249
 20
7.80371
 30
0.0
 40
0
 41
0
  0
VERTEX
  8
0
 10
6.79639
 20
7.81347
 30
0.0
 40
0
 41
0
  0
VERTEX
  8
0
 10
6.80544
 20
7.84386
 30
0.0
 40
0
 41
0
  0
VERTEX
  8
0
 10
6.81
 20
7.87831
 30
0.0
 40
0
 41
0
  0
VERTEX
  8
0
 10
6.8099
 20
7.91672
 30
0.0
 40
0
 41
0
  0
VERTEX
  8
0
 10
6.80903
 20
7.95583
 30
0.0
 40
0
 41
0
  0
VERTEX
  8
0
 10
6.80903
 20
7.96886
 30
0.0
 40
0
 41
0
  0
VERTEX
  8
0
 10
6.77599
 20
7.97715
 30
0.0
 40
0
 41
0
  0
VERTEX
  8
0
 10
6.76492
 20
8.00743
 30
0.0
 40
0
 41
0
  0
VERTEX
  8
0
 10
6.70714
 20
7.86703
 30
0.0
 40
0
 41
0
  0
VERTEX
  8
0
 10
6.72364
 20
7.84224
 30
0.0
 40
0
 41
0
  0
VERTEX
  8
0
 10
6.72364
 20
7.84224
 30
0.0
 40
0
 41
0
  0
VERTEX
  8
0
 10
6.73107
 20
7.84321
 30
0.0
 40
0
 41
0
  0
VERTEX
  8
0
 10
6.74328
 20
7.84657
 30
0.0
 40
0
 41
0
  0
VERTEX
  8
0
 10
6.74567
 20
7.84776
 30
0.0
 40
0
 41
0
  0
VERTEX
  8
0
 10
6.74843
 20
7.83399
 30
0.0
 40
0
 41
0
  0
VERTEX
  8
0
 10
6.6906
 20
7.81743
 30
0.0
 40
0
 41
0
  0
VERTEX
  8
0
 10
6.6741
 20
7.79269
 30
0.0
 40
0
 41
0
  0
VERTEX
  8
0
 10
6.6741
 20
7.79269
 30
0.0
 40
0
 41
0
  0
VERTEX
  8
0
 10
6.67415
 20
7.78635
 30
0.0
 40
0
 41
0
  0
VERTEX
  8
0
 10
6.67421
 20
7.76904
 30
0.0
 40
0
 41
0
  0
VERTEX
  8
0
 10
6.67415
 20
7.74349
 30
0.0
 40
0
 41
0
  0
VERTEX
  8
0
 10
6.67378
 20
7.7124
 30
0.0
 40
0
 41
0
  0
VERTEX
  8
0
 10
6.6729
 20
7.67844
 30
0.0
 40
0
 41
0
  0
VERTEX
  8
0
 10
6.67139
 20
7.64432
 30
0.0
 40
0
 41
0
  0
VERTEX
  8
0
 10
6.66906
 20
7.61268
 30
0.0
 40
0
 41
0
  0
VERTEX
  8
0
 10
6.66689
 20
7.59278
 30
0.0
 40
0
 41
0
  0
VERTEX
  8
0
 10
6.66581
 20
7.58621
 30
0.0
 40
0
 41
0
  0
VERTEX
  8
0
 10
6.60796
 20
7.49533
 30
0.0
 40
0
 41
0
  0
VERTEX
  8
0
 10
6.43451
 20
7.34668
 30
0.0
 40
0
 41
0
  0
VERTEX
  8
0
 10
6.47581
 20
7.29715
 30
0.0
 40
0
 41
0
  0
VERTEX
  8
0
 10
6.47581
 20
7.29715
 30
0.0
 40
0
 41
0
  0
VERTEX
  8
0
 10
6.49447
 20
7.28108
 30
0.0
 40
0
 41
0
  0
VERTEX
  8
0
 10
6.54486
 20
7.24046
 30
0.0
 40
0
 41
0
  0
VERTEX
  8
0
 10
6.61854
 20
7.1869
 30
0.0
 40
0
 41
0
  0
VERTEX
  8
0
 10
6.68435
 20
7.14458
 30
0.0
 40
0
 41
0
  0
VERTEX
  8
0
 10
6.70714
 20
7.13194
 30
0.0
 40
0
 41
0
  0
VERTEX
  8
0
 10
6.76221
 20
7.13747
 30
0.0
 40
0
 41
0
  0
VERTEX
  8
0
 10
6.76764
 20
7.1396
 30
0.0
 40
0
 41
0
  0
VERTEX
  8
0
 10
6.81315
 20
7.15528
 30
0.0
 40
0
 41
0
  0
VERTEX
  8
0
 10
6.90836
 20
7.1906
 30
0.0
 40
0
 41
0
  0
VERTEX
  8
0
 10
7.01036
 20
7.23508
 30
0.0
 40
0
 41
0
  0
VERTEX
  8
0
 10
7.06717
 20
7.26617
 30
0.0
 40
0
 41
0
  0
VERTEX
  8
0
 10
7.0816
 20
7.2806
 30
0.0
 40
0
 41
0
  0
VERTEX
  8
0
 10
7.07335
 20
7.33843
 30
0.0
 40
0
 41
0
  0
VERTEX
  8
0
 10
7.07335
 20
7.33843
 30
0.0
 40
0
 41
0
  0
VERTEX
  8
0
 10
7.06418
 20
7.34706
 30
0.0
 40
0
 41
0
  0
VERTEX
  8
0
 10
7.04346
 20
7.36828
 30
0.0
 40
0
 41
0
  0
VERTEX
  8
0
 10
7.02115
 20
7.39524
 30
0.0
 40
0
 41
0
  0
VERTEX
  8
0
 10
7.00917
 20
7.41417
 30
0.0
 40
0
 41
0
  0
VERTEX
  8
0
 10
7.00726
 20
7.42101
 30
0.0
 40
0
 41
0
  0
VERTEX
  8
0
 10
7.00662
 20
7.42324
 30
0.0
 40
0
 41
0
  0
VERTEX
  8
0
 10
7.00635
 20
7.43306
 30
0.0
 40
0
 41
0
  0
VERTEX
  8
0
 10
7.00732
 20
7.4541
 30
0.0
 40
0
 41
0
  0
VERTEX
  8
0
 10
7.01031
 20
7.48133
 30
0.0
 40
0
 41
0
  0
VERTEX
  8
0
 10
7.014
 20
7.50435
 30
0.0
 40
0
 41
0
  0
VERTEX
  8
0
 10
7.01551
 20
7.51187
 30
0.0
 40
0
 41
0
  0
VERTEX
  8
0
 10
7.07611
 20
7.54215
 30
0.0
 40
0
 41
0
  0
VERTEX
  8
0
 10
7.07611
 20
7.54215
 30
0.0
 40
0
 41
0
  0
VERTEX
  8
0
 10
7.07943
 20
7.54617
 30
0.0
 40
0
 41
0
  0
VERTEX
  8
0
 10
7.08822
 20
7.55675
 30
0.0
 40
0
 41
0
  0
VERTEX
  8
0
 10
7.10075
 20
7.57183
 30
0.0
 40
0
 41
0
  0
VERTEX
  8
0
 10
7.11529
 20
7.58931
 30
0.0
 40
0
 41
0
  0
VERTEX
  8
0
 10
7.13004
 20
7.6071
 30
0.0
 40
0
 41
0
  0
VERTEX
  8
0
 10
7.14339
 20
7.62304
 30
0.0
 40
0
 41
0
  0
VERTEX
  8
0
 10
7.15354
 20
7.63519
 30
0.0
 40
0
 41
0
  0
VERTEX
  8
0
 10
7.15739
 20
7.63981
 30
0.0
 40
0
 41
0
  0
VERTEX
  8
0
 10
7.15875
 20
7.64128
 30
0.0
 40
0
 41
0
  0
VERTEX
  8
0
 10
7.21653
 20
7.64953
 30
0.0
 40
0
 41
0
  0
VERTEX
  8
0
 10
7.21653
 20
7.64953
 30
0.0
 40
0
 41
0
  0
VERTEX
  8
0
 10
7.24121
 20
7.67301
 30
0.0
 40
0
 41
0
  0
VERTEX
  8
0
 10
7.30285
 20
7.73372
 30
0.0
 40
0
 41
0
  0
VERTEX
  8
0
 10
7.3826
 20
7.817
 30
0.0
 40
0
 41
0
  0
VERTEX
  8
0
 10
7.44276
 20
7.88476
 30
0.0
 40
0
 41
0
  0
VERTEX
  8
0
 10
7.46164
 20
7.90831
 30
0.0
 40
0
 41
0
  0
VERTEX
  8
0
 10
7.46164
 20
7.90831
 30
0.0
 40
0
 41
0
  0
VERTEX
  8
0
 10
7.46018
 20
7.91282
 30
0.0
 40
0
 41
0
  0
VERTEX
  8
0
 10
7.45736
 20
7.92426
 30
0.0
 40
0
 41
0
  0
VERTEX
  8
0
 10
7.45524
 20
7.9394
 30
0.0
 40
0
 41
0
  0
VERTEX
  8
0
 10
7.45535
 20
7.95133
 30
0.0
 40
0
 41
0
  0
VERTEX
  8
0
 10
7.45611
 20
7.95514
 30
0.0
 40
0
 41
0
  0
VERTEX
  8
0
 10
7.4809
 20
7.94683
 30
0.0
 40
0
 41
0
  0
VERTEX
  8
0
 10
7.51947
 20
7.97439
 30
0.0
 40
0
 41
0
  0
VERTEX
  8
0
 10
7.52772
 20
8.09
 30
0.0
 40
0
 41
0
  0
VERTEX
  8
0
 10
7.53321
 20
8.09
 30
0.0
 40
0
 41
0
  0
VERTEX
  8
0
 10
7.56629
 20
8.02393
 30
0.0
 40
0
 41
0
  0
VERTEX
  8
0
 10
7.57726
 20
8.02393
 30
0.0
 40
0
 41
0
  0
VERTEX
  8
0
 10
7.57726
 20
8.02393
 30
0.0
 40
0
 41
0
  0
VERTEX
  8
0
 10
7.58914
 20
8.03776
 30
0.0
 40
0
 41
0
  0
VERTEX
  8
0
 10
7.62076
 20
8.07437
 30
0.0
 40
0
 41
0
  0
VERTEX
  8
0
 10
7.66607
 20
8.12674
 30
0.0
 40
0
 41
0
  0
VERTEX
  8
0
 10
7.71903
 20
8.18772
 30
0.0
 40
0
 41
0
  0
VERTEX
  8
0
 10
7.77354
 20
8.25028
 30
0.0
 40
0
 41
0
  0
VERTEX
  8
0
 10
7.82351
 20
8.30729
 30
0.0
 40
0
 41
0
  0
VERTEX
  8
0
 10
7.8629
 20
8.35167
 30
0.0
 40
0
 41
0
  0
VERTEX
  8
0
 10
7.87972
 20
8.37039
 30
0.0
 40
0
 41
0
  0
VERTEX
  8
0
 10
7.88569
 20
8.37631
 30
0.0
 40
0
 41
0
  0
VERTEX
  8
0
 10
7.92974
 20
8.37082
 30
0.0
 40
0
 41
0
  0
VERTEX
  8
0
 10
7.85542
 20
8.25521
 30
0.0
 40
0
 41
0
  0
VERTEX
  8
0
 10
7.59104
 20
7.94135
 30
0.0
 40
0
 41
0
  0
VERTEX
  8
0
 10
7.60482
 20
7.93033
 30
0.0
 40
0
 41
0
  0
VERTEX
  8
0
 10
7.66265
 20
7.97988
 30
0.0
 40
0
 41
0
  0
VERTEX
  8
0
 10
7.67367
 20
7.96615
 30
0.0
 40
0
 41
0
  0
VERTEX
  8
0
 10
7.67128
 20
7.96067
 30
0.0
 40
0
 41
0
  0
VERTEX
  8
0
 10
7.66357
 20
7.94444
 30
0.0
 40
0
 41
0
  0
VERTEX
  8
0
 10
7.65571
 20
7.92708
 30
0.0
 40
0
 41
0
  0
VERTEX
  8
0
 10
7.65067
 20
7.90858
 30
0.0
 40
0
 41
0
  0
VERTEX
  8
0
 10
7.64887
 20
7.88981
 30
0.0
 40
0
 41
0
  0
VERTEX
  8
0
 10
7.64887
 20
7.88351
 30
0.0
 40
0
 41
0
  0
VERTEX
  8
0
 10
7.77001
 20
7.85601
 30
0.0
 40
0
 41
0
  0
VERTEX
  8
0
 10
7.76454
 20
7.85047
 30
0.0
 40
0
 41
0
  0
VERTEX
  8
0
 10
7.64887
 20
7.81743
 30
0.0
 40
0
 41
0
  0
VERTEX
  8
0
 10
7.71496
 20
7.72661
 30
0.0
 40
0
 41
0
  0
VERTEX
  8
0
 10
7.70671
 20
7.71838
 30
0.0
 40
0
 41
0
  0
VERTEX
  8
0
 10
7.62408
 20
7.7679
 30
0.0
 40
0
 41
0
  0
VERTEX
  8
0
 10
7.60758
 20
7.65229
 30
0.0
 40
0
 41
0
  0
VERTEX
  8
0
 10
7.558
 20
7.75142
 30
0.0
 40
0
 41
0
  0
VERTEX
  8
0
 10
7.49192
 20
7.68533
 30
0.0
 40
0
 41
0
  0
VERTEX
  8
0
 10
7.47814
 20
7.69635
 30
0.0
 40
0
 41
0
  0
VERTEX
  8
0
 10
7.47814
 20
7.69635
 30
0.0
 40
0
 41
0
  0
VERTEX
  8
0
 10
7.48438
 20
7.70811
 30
0.0
 40
0
 41
0
  0
VERTEX
  8
0
 10
7.49767
 20
7.73589
 30
0.0
 40
0
 41
0
  0
VERTEX
  8
0
 10
7.50939
 20
7.76872
 30
0.0
 40
0
 41
0
  0
VERTEX
  8
0
 10
7.51297
 20
7.78944
 30
0.0
 40
0
 41
0
  0
VERTEX
  8
0
 10
7.51118
 20
7.79542
 30
0.0
 40
0
 41
0
  0
VERTEX
  8
0
 10
7.51079
 20
7.79671
 30
0.0
 40
0
 41
0
  0
VERTEX
  8
0
 10
7.50097
 20
7.80817
 30
0.0
 40
0
 41
0
  0
VERTEX
  8
0
 10
7.50017
 20
7.80919
 30
0.0
 40
0
 41
0
  0
VERTEX
  8
0
 10
7.45888
 20
7.80094
 30
0.0
 40
0
 41
0
  0
VERTEX
  8
0
 10
7.29368
 20
7.611
 30
0.0
 40
0
 41
0
  0
VERTEX
  8
0
 10
7.29135
 20
7.59961
 30
0.0
 40
0
 41
0
  0
VERTEX
  8
0
 10
7.28814
 20
7.56451
 30
0.0
 40
0
 41
0
  0
VERTEX
  8
0
 10
7.2921
 20
7.52994
 30
0.0
 40
0
 41
0
  0
VERTEX
  8
0
 10
7.303
 20
7.49881
 30
0.0
 40
0
 41
0
  0
VERTEX
  8
0
 10
7.31472
 20
7.47151
 30
0.0
 40
0
 41
0
  0
VERTEX
  8
0
 10
7.31842
 20
7.46229
 30
0.0
 40
0
 41
0
  0
VERTEX
  8
0
 10
7.50569
 20
7.43479
 30
0.0
 40
0
 41
0
  0
VERTEX
  8
0
 10
7.50017
 20
7.42925
 30
0.0
 40
0
 41
0
  0
VERTEX
  8
0
 10
7.35146
 20
7.39626
 30
0.0
 40
0
 41
0
  0
VERTEX
  8
0
 10
7.32671
 20
7.34668
 30
0.0
 40
0
 41
0
  0
VERTEX
  8
0
 10
7.31842
 20
7.14849
 30
0.0
 40
0
 41
0
  0
VERTEX
  8
0
 10
7.31293
 20
7.14296
 30
0.0
 40
0
 41
0
  0
VERTEX
  8
0
 10
7.26064
 20
7.30539
 30
0.0
 40
0
 41
0
  0
VERTEX
  8
0
 10
7.23975
 20
7.28575
 30
0.0
 40
0
 41
0
  0
VERTEX
  8
0
 10
7.17637
 20
7.22754
 30
0.0
 40
0
 41
0
  0
VERTEX
  8
0
 10
7.08171
 20
7.14535
 30
0.0
 40
0
 41
0
  0
VERTEX
  8
0
 10
6.96701
 20
7.05447
 30
0.0
 40
0
 41
0
  0
VERTEX
  8
0
 10
6.85932
 20
6.97558
 30
0.0
 40
0
 41
0
  0
VERTEX
  8
0
 10
6.82275
 20
6.95025
 30
0.0
 40
0
 41
0
  0
VERTEX
  8
0
 10
6.80935
 20
6.94581
 30
0.0
 40
0
 41
0
  0
VERTEX
  8
0
 10
6.76882
 20
6.93386
 30
0.0
 40
0
 41
0
  0
VERTEX
  8
0
 10
6.72542
 20
6.92714
 30
0.0
 40
0
 41
0
  0
VERTEX
  8
0
 10
6.6791
 20
6.9299
 30
0.0
 40
0
 41
0
  0
VERTEX
  8
0
 10
6.63183
 20
6.93858
 30
0.0
 40
0
 41
0
  0
VERTEX
  8
0
 10
6.61626
 20
6.942
 30
0.0
 40
0
 41
0
  0
VERTEX
  8
0
 10
6.61626
 20
6.942
 30
0.0
 40
0
 41
0
  0
VERTEX
  8
0
 10
6.60275
 20
6.9484
 30
0.0
 40
0
 41
0
  0
VERTEX
  8
0
 10
6.56679
 20
6.96528
 30
0.0
 40
0
 41
0
  0
VERTEX
  8
0
 10
6.51503
 20
6.98904
 30
0.0
 40
0
 41
0
  0
VERTEX
  8
0
 10
6.4541
 20
7.01633
 30
0.0
 40
0
 41
0
  0
VERTEX
  8
0
 10
6.39074
 20
7.04368
 30
0.0
 40
0
 41
0
  0
VERTEX
  8
0
 10
6.3316
 20
7.06743
 30
0.0
 40
0
 41
0
  0
VERTEX
  8
0
 10
6.28336
 20
7.08431
 30
0.0
 40
0
 41
0
  0
VERTEX
  8
0
 10
6.26042
 20
7.09065
 30
0.0
 40
0
 41
0
  0
VERTEX
  8
0
 10
6.25276
 20
7.09065
 30
0.0
 40
0
 41
0
  0
VERTEX
  8
0
 10
6.23622
 20
7.06586
 30
0.0
 40
0
 41
0
  0
VERTEX
  8
0
 10
6.23622
 20
7.06586
 30
0.0
 40
0
 41
0
  0
VERTEX
  8
0
 10
6.23557
 20
7.05865
 30
0.0
 40
0
 41
0
  0
VERTEX
  8
0
 10
6.23389
 20
7.03956
 30
0.0
 40
0
 41
0
  0
VERTEX
  8
0
 10
6.23144
 20
7.01247
 30
0.0
 40
0
 41
0
  0
VERTEX
  8
0
 10
6.22863
 20
6.98122
 30
0.0
 40
0
 41
0
  0
VERTEX
  8
0
 10
6.22569
 20
6.94976
 30
0.0
 40
0
 41
0
  0
VERTEX
  8
0
 10
6.22304
 20
6.92188
 30
0.0
 40
0
 41
0
  0
VERTEX
  8
0
 10
6.22092
 20
6.90147
 30
0.0
 40
0
 41
0
  0
VERTEX
  8
0
 10
6.22017
 20
6.89382
 30
0.0
 40
0
 41
0
  0
VERTEX
  8
0
 10
6.21972
 20
6.89242
 30
0.0
 40
0
 41
0
  0
VERTEX
  8
0
 10
6.21685
 20
6.88363
 30
0.0
 40
0
 41
0
  0
VERTEX
  8
0
 10
6.19194
 20
6.84972
 30
0.0
 40
0
 41
0
  0
VERTEX
  8
0
 10
6.15446
 20
6.81771
 30
0.0
 40
0
 41
0
  0
VERTEX
  8
0
 10
6.14535
 20
6.80985
 30
0.0
 40
0
 41
0
  0
VERTEX
  8
0
 10
6.07926
 20
6.79335
 30
0.0
 40
0
 41
0
  0
VERTEX
  8
0
 10
6.05469
 20
6.77582
 30
0.0
 40
0
 41
0
  0
VERTEX
  8
0
 10
5.98063
 20
6.72364
 30
0.0
 40
0
 41
0
  0
VERTEX
  8
0
 10
5.90332
 20
6.67231
 30
0.0
 40
0
 41
0
  0
VERTEX
  8
0
 10
5.81901
 20
6.62164
 30
0.0
 40
0
 41
0
  0
VERTEX
  8
0
 10
5.72928
 20
6.57064
 30
0.0
 40
0
 41
0
  0
VERTEX
  8
0
 10
5.69928
 20
6.55382
 30
0.0
 40
0
 41
0
  0
VERTEX
  8
0
 10
5.82042
 20
6.38585
 30
0.0
 40
0
 41
0
  0
VERTEX
  8
0
 10
5.9636
 20
6.09131
 30
0.0
 40
0
 41
0
  0
VERTEX
  8
0
 10
5.93886
 20
6.08306
 30
0.0
 40
0
 41
0
  0
VERTEX
  8
0
 10
5.87278
 20
6.1161
 30
0.0
 40
0
 41
0
  0
VERTEX
  8
0
 10
5.86447
 20
6.10781
 30
0.0
 40
0
 41
0
  0
VERTEX
  8
0
 10
5.92231
 20
5.96739
 30
0.0
 40
0
 41
0
  0
VERTEX
  8
0
 10
5.88103
 20
5.95915
 30
0.0
 40
0
 41
0
  0
VERTEX
  8
0
 10
5.87278
 20
5.66183
 30
0.0
 40
0
 41
0
  0
VERTEX
  8
0
 10
5.79015
 20
5.14974
 30
0.0
 40
0
 41
0
  0
VERTEX
  8
0
 10
5.7819
 20
4.95979
 30
0.0
 40
0
 41
0
  0
VERTEX
  8
0
 10
5.83143
 20
4.73682
 30
0.0
 40
0
 41
0
  0
VERTEX
  8
0
 10
5.85622
 20
4.03478
 30
0.0
 40
0
 41
0
  0
VERTEX
  8
0
 10
5.85682
 20
4.03201
 30
0.0
 40
0
 41
0
  0
VERTEX
  8
0
 10
5.86415
 20
4.00142
 30
0.0
 40
0
 41
0
  0
VERTEX
  8
0
 10
5.88308
 20
3.92665
 30
0.0
 40
0
 41
0
  0
VERTEX
  8
0
 10
5.91129
 20
3.82335
 30
0.0
 40
0
 41
0
  0
VERTEX
  8
0
 10
5.93767
 20
3.73406
 30
0.0
 40
0
 41
0
  0
VERTEX
  8
0
 10
5.9471
 20
3.70443
 30
0.0
 40
0
 41
0
  0
VERTEX
  8
0
 10
5.9719
 20
3.66308
 30
0.0
 40
0
 41
0
  0
VERTEX
  8
0
 10
5.9719
 20
3.66308
 30
0.0
 40
0
 41
0
  0
VERTEX
  8
0
 10
5.98432
 20
3.65847
 30
0.0
 40
0
 41
0
  0
VERTEX
  8
0
 10
6.01372
 20
3.64578
 30
0.0
 40
0
 41
0
  0
VERTEX
  8
0
 10
6.04839
 20
3.62657
 30
0.0
 40
0
 41
0
  0
VERTEX
  8
0
 10
6.07075
 20
3.60965
 30
0.0
 40
0
 41
0
  0
VERTEX
  8
0
 10
6.0765
 20
3.60254
 30
0.0
 40
0
 41
0
  0
VERTEX
  8
0
 10
6.07937
 20
3.59896
 30
0.0
 40
0
 41
0
  0
VERTEX
  8
0
 10
6.09153
 20
3.57585
 30
0.0
 40
0
 41
0
  0
VERTEX
  8
0
 10
6.102
 20
3.55165
 30
0.0
 40
0
 41
0
  0
VERTEX
  8
0
 10
6.10406
 20
3.54747
 30
0.0
 40
0
 41
0
  0
VERTEX
  8
0
 10
6.10406
 20
3.54747
 30
0.0
 40
0
 41
0
  0
VERTEX
  8
0
 10
6.10493
 20
3.53614
 30
0.0
 40
0
 41
0
  0
VERTEX
  8
0
 10
6.10579
 20
3.5089
 30
0.0
 40
0
 41
0
  0
VERTEX
  8
0
 10
6.10368
 20
3.47618
 30
0.0
 40
0
 41
0
  0
VERTEX
  8
0
 10
6.09912
 20
3.45458
 30
0.0
 40
0
 41
0
  0
VERTEX
  8
0
 10
6.09581
 20
3.44835
 30
0.0
 40
0
 41
0
  0
VERTEX
  8
0
 10
6.09413
 20
3.44532
 30
0.0
 40
0
 41
0
  0
VERTEX
  8
0
 10
6.08051
 20
3.43093
 30
0.0
 40
0
 41
0
  0
VERTEX
  8
0
 10
6.06521
 20
3.41781
 30
0.0
 40
0
 41
0
  0
VERTEX
  8
0
 10
6.06278
 20
3.41531
 30
0.0
 40
0
 41
0
  0
VERTEX
  8
0
 10
6.06278
 20
3.41531
 30
0.0
 40
0
 41
0
  0
VERTEX
  8
0
 10
6.06179
 20
3.40901
 30
0.0
 40
0
 41
0
  0
VERTEX
  8
0
 10
6.05925
 20
3.39225
 30
0.0
 40
0
 41
0
  0
VERTEX
  8
0
 10
6.05556
 20
3.36837
 30
0.0
 40
0
 41
0
  0
VERTEX
  8
0
 10
6.05132
 20
3.34071
 30
0.0
 40
0
 41
0
  0
VERTEX
  8
0
 10
6.04693
 20
3.31261
 30
0.0
 40
0
 41
0
  0
VERTEX
  8
0
 10
6.04292
 20
3.28728
 30
0.0
 40
0
 41
0
  0
VERTEX
  8
0
 10
6.03976
 20
3.26812
 30
0.0
 40
0
 41
0
  0
VERTEX
  8
0
 10
6.03851
 20
3.26079
 30
0.0
 40
0
 41
0
  0
VERTEX
  8
0
 10
6.03797
 20
3.2584
 30
0.0
 40
0
 41
0
  0
VERTEX
  8
0
 10
6.00493
 20
3.24192
 30
0.0
 40
0
 41
0
  0
VERTEX
  8
0
 10
6.00429
 20
3.24203
 30
0.0
 40
0
 41
0
  0
VERTEX
  8
0
 10
5.99507
 20
3.24337
 30
0.0
 40
0
 41
0
  0
VERTEX
  8
0
 10
5.97428
 20
3.24621
 30
0.0
 40
0
 41
0
  0
VERTEX
  8
0
 10
5.95025
 20
3.24897
 30
0.0
 40
0
 41
0
  0
VERTEX
  8
0
 10
5.93544
 20
3.25017
 30
0.0
 40
0
 41
0
  0
VERTEX
  8
0
 10
5.93056
 20
3.25017
 30
0.0
 40
0
 41
0
  0
VERTEX
  8
0
 10
5.92231
 20
3.20057
 30
0.0
 40
0
 41
0
  0
VERTEX
  8
0
 10
5.88926
 20
3.16758
 30
0.0
 40
0
 41
0
  0
VERTEX
  8
0
 10
5.83143
 20
3.16758
 30
0.0
 40
0
 41
0
  0
VERTEX
  8
0
 10
5.83143
 20
3.16758
 30
0.0
 40
0
 41
0
  0
VERTEX
  8
0
 10
5.8265
 20
3.17008
 30
0.0
 40
0
 41
0
  0
VERTEX
  8
0
 10
5.81337
 20
3.17692
 30
0.0
 40
0
 41
0
  0
VERTEX
  8
0
 10
5.79432
 20
3.18701
 30
0.0
 40
0
 41
0
  0
VERTEX
  8
0
 10
5.77175
 20
3.19949
 30
0.0
 40
0
 41
0
  0
VERTEX
  8
0
 10
5.7481
 20
3.21332
 30
0.0
 40
0
 41
0
  0
VERTEX
  8
0
 10
5.72558
 20
3.22749
 30
0.0
 40
0
 41
0
  0
VERTEX
  8
0
 10
5.70671
 20
3.24104
 30
0.0
 40
0
 41
0
  0
VERTEX
  8
0
 10
5.69656
 20
3.24963
 30
0.0
 40
0
 41
0
  0
VERTEX
  8
0
 10
5.69374
 20
3.25293
 30
0.0
 40
0
 41
0
  0
VERTEX
  8
0
 10
5.69049
 20
3.25672
 30
0.0
 40
0
 41
0
  0
VERTEX
  8
0
 10
5.67606
 20
3.28103
 30
0.0
 40
0
 41
0
  0
VERTEX
  8
0
 10
5.66314
 20
3.30643
 30
0.0
 40
0
 41
0
  0
VERTEX
  8
0
 10
5.66069
 20
3.31071
 30
0.0
 40
0
 41
0
  0
VERTEX
  8
0
 10
5.59462
 20
3.54199
 30
0.0
 40
0
 41
0
  0
VERTEX
  8
0
 10
5.56158
 20
3.59978
 30
0.0
 40
0
 41
0
  0
VERTEX
  8
0
 10
5.56158
 20
3.6824
 30
0.0
 40
0
 41
0
  0
VERTEX
  8
0
 10
5.60286
 20
3.78147
 30
0.0
 40
0
 41
0
  0
VERTEX
  8
0
 10
5.60286
 20
3.8641
 30
0.0
 40
0
 41
0
  0
VERTEX
  8
0
 10
5.59343
 20
3.87668
 30
0.0
 40
0
 41
0
  0
VERTEX
  8
0
 10
5.56521
 20
3.91456
 30
0.0
 40
0
 41
0
  0
VERTEX
  8
0
 10
5.52399
 20
3.97032
 30
0.0
 40
0
 41
0
  0
VERTEX
  8
0
 10
5.4815
 20
4.02838
 30
0.0
 40
0
 41
0
  0
VERTEX
  8
0
 10
5.44006
 20
4.0855
 30
0.0
 40
0
 41
0
  0
VERTEX
  8
0
 10
5.40186
 20
4.13872
 30
0.0
 40
0
 41
0
  0
VERTEX
  8
0
 10
5.36931
 20
4.18494
 30
0.0
 40
0
 41
0
  0
VERTEX
  8
0
 10
5.34467
 20
4.22108
 30
0.0
 40
0
 41
0
  0
VERTEX
  8
0
 10
5.33356
 20
4.23812
 30
0.0
 40
0
 41
0
  0
VERTEX
  8
0
 10
5.33029
 20
4.24397
 30
0.0
 40
0
 41
0
  0
VERTEX
  8
0
 10
5.32249
 20
4.25792
 30
0.0
 40
0
 41
0
  0
VERTEX
  8
0
 10
5.30089
 20
4.30067
 30
0.0
 40
0
 41
0
  0
VERTEX
  8
0
 10
5.26753
 20
4.37506
 30
0.0
 40
0
 41
0
  0
VERTEX
  8
0
 10
5.23042
 20
4.4706
 30
0.0
 40
0
 41
0
  0
VERTEX
  8
0
 10
5.19938
 20
4.56065
 30
0.0
 40
0
 41
0
  0
VERTEX
  8
0
 10
5.18983
 20
4.59088
 30
0.0
 40
0
 41
0
  0
VERTEX
  8
0
 10
5.18983
 20
4.59088
 30
0.0
 40
0
 41
0
  0
VERTEX
  8
0
 10
5.18913
 20
4.6091
 30
0.0
 40
0
 41
0
  0
VERTEX
  8
0
 10
5.18733
 20
4.65722
 30
0.0
 40
0
 41
0
  0
VERTEX
  8
0
 10
5.18485
 20
4.72558
 30
0.0
 40
0
 41
0
  0
VERTEX
  8
0
 10
5.18192
 20
4.80431
 30
0.0
 40
0
 41
0
  0
VERTEX
  8
0
 10
5.17893
 20
4.88374
 30
0.0
 40
0
 41
0
  0
VERTEX
  8
0
 10
5.17626
 20
4.9541
 30
0.0
 40
0
 41
0
  0
VERTEX
  8
0
 10
5.17426
 20
5.00569
 30
0.0
 40
0
 41
0
  0
VERTEX
  8
0
 10
5.17356
 20
5.02501
 30
0.0
 40
0
 41
0
  0
VERTEX
  8
0
 10
5.17333
 20
5.02865
 30
0.0
 40
0
 41
0
  0
VERTEX
  8
0
 10
4.83464
 20
5.75543
 30
0.0
 40
0
 41
0
  0
VERTEX
  8
0
 10
4.77681
 20
5.91233
 30
0.0
 40
0
 41
0
  0
VERTEX
  8
0
 10
4.77681
 20
5.91233
 30
0.0
 40
0
 41
0
  0
VERTEX
  8
0
 10
4.77192
 20
5.95117
 30
0.0
 40
0
 41
0
  0
VERTEX
  8
0
 10
4.76101
 20
6.03728
 30
0.0
 40
0
 41
0
  0
VERTEX
  8
0
 10
4.74978
 20
6.12489
 30
0.0
 40
0
 41
0
  0
VERTEX
  8
0
 10
4.74425
 20
6.16635
 30
0.0
 40
0
 41
0
  0
VERTEX
  8
0
 10
4.74376
 20
6.1684
 30
0.0
 40
0
 41
0
  0
VERTEX
  8
0
 10
4.65012
 20
6.17389
 30
0.0
 40
0
 41
0
  0
VERTEX
  8
0
 10
4.58681
 20
6.20969
 30
0.0
 40
0
 41
0
  0
VERTEX
  8
0
 10
4.5931
 20
6.21506
 30
0.0
 40
0
 41
0
  0
VERTEX
  8
0
 10
4.61193
 20
6.23112
 30
0.0
 40
0
 41
0
  0
VERTEX
  8
0
 10
4.63157
 20
6.24821
 30
0.0
 40
0
 41
0
  0
VERTEX
  8
0
 10
4.64729
 20
6.26275
 30
0.0
 40
0
 41
0
  0
VERTEX
  8
0
 10
4.66075
 20
6.27626
 30
0.0
 40
0
 41
0
  0
VERTEX
  8
0
 10
4.67361
 20
6.29042
 30
0.0
 40
0
 41
0
  0
VERTEX
  8
0
 10
4.68739
 20
6.30681
 30
0.0
 40
0
 41
0
  0
VERTEX
  8
0
 10
4.70383
 20
6.3271
 30
0.0
 40
0
 41
0
  0
VERTEX
  8
0
 10
4.71929
 20
6.34646
 30
0.0
 40
0
 41
0
  0
VERTEX
  8
0
 10
4.72444
 20
6.35286
 30
0.0
 40
0
 41
0
  0
VERTEX
  8
0
 10
4.79329
 20
6.4905
 30
0.0
 40
0
 41
0
  0
VERTEX
  8
0
 10
4.79053
 20
6.50424
 30
0.0
 40
0
 41
0
  0
VERTEX
  8
0
 10
4.741
 20
6.49599
 30
0.0
 40
0
 41
0
  0
VERTEX
  8
0
 10
4.73367
 20
6.49164
 30
0.0
 40
0
 41
0
  0
VERTEX
  8
0
 10
4.71164
 20
6.47857
 30
0.0
 40
0
 41
0
  0
VERTEX
  8
0
 10
4.67665
 20
6.45925
 30
0.0
 40
0
 41
0
  0
VERTEX
  8
0
 10
4.63254
 20
6.43772
 30
0.0
 40
0
 41
0
  0
VERTEX
  8
0
 10
4.59006
 20
6.41917
 30
0.0
 40
0
 41
0
  0
VERTEX
  8
0
 10
4.57574
 20
6.41342
 30
0.0
 40
0
 41
0
  0
VERTEX
  8
0
 10
4.55643
 20
6.41217
 30
0.0
 40
0
 41
0
  0
VERTEX
  8
0
 10
4.49864
 20
6.40647
 30
0.0
 40
0
 41
0
  0
VERTEX
  8
0
 10
4.44069
 20
6.40235
 30
0.0
 40
0
 41
0
  0
VERTEX
  8
0
 10
4.38417
 20
6.40793
 30
0.0
 40
0
 41
0
  0
VERTEX
  8
0
 10
4.32915
 20
6.42329
 30
0.0
 40
0
 41
0
  0
VERTEX
  8
0
 10
4.31142
 20
6.4299
 30
0.0
 40
0
 41
0
  0
VERTEX
  8
0
 10
4.16547
 20
6.43267
 30
0.0
 40
0
 41
0
  0
VERTEX
  8
0
 10
4.16569
 20
6.43321
 30
0.0
 40
0
 41
0
  0
VERTEX
  8
0
 10
4.16857
 20
6.44168
 30
0.0
 40
0
 41
0
  0
VERTEX
  8
0
 10
4.17096
 20
6.45144
 30
0.0
 40
0
 41
0
  0
VERTEX
  8
0
 10
4.17096
 20
6.45469
 30
0.0
 40
0
 41
0
  0
VERTEX
  8
0
 10
4.06358
 20
6.45469
 30
0.0
 40
0
 41
0
  0
VERTEX
  8
0
 10
4.05806
 20
6.48226
 30
0.0
 40
0
 41
0
  0
VERTEX
  8
0
 10
4.15446
 20
6.54281
 30
0.0
 40
0
 41
0
  0
VERTEX
  8
0
 10
4.15446
 20
6.55382
 30
0.0
 40
0
 41
0
  0
VERTEX
  8
0
 10
4.03331
 20
6.58132
 30
0.0
 40
0
 41
0
  0
VERTEX
  8
0
 10
4.05533
 20
6.60064
 30
0.0
 40
0
 41
0
  0
VERTEX
  8
0
 10
4.19575
 20
6.61714
 30
0.0
 40
0
 41
0
  0
VERTEX
  8
0
 10
4.24533
 20
6.64193
 30
0.0
 40
0
 41
0
  0
VERTEX
  8
0
 10
4.35271
 20
6.63363
 30
0.0
 40
0
 41
0
  0
VERTEX
  8
0
 10
4.56749
 20
6.53456
 30
0.0
 40
0
 41
0
  0
VERTEX
  8
0
 10
4.63357
 20
6.5676
 30
0.0
 40
0
 41
0
  0
VERTEX
  8
0
 10
5.04943
 20
6.92822
 30
0.0
 40
0
 41
0
  0
VERTEX
  8
0
 10
5.021
 20
6.93875
 30
0.0
 40
0
 41
0
  0
VERTEX
  8
0
 10
4.93533
 20
6.96924
 30
0.0
 40
0
 41
0
  0
VERTEX
  8
0
 10
4.84858
 20
7.00868
 30
0.0
 40
0
 41
0
  0
VERTEX
  8
0
 10
4.78168
 20
7.06575
 30
0.0
 40
0
 41
0
  0
VERTEX
  8
0
 10
4.73779
 20
7.13482
 30
0.0
 40
0
 41
0
  0
VERTEX
  8
0
 10
4.72721
 20
7.1595
 30
0.0
 40
0
 41
0
  0
VERTEX
  8
0
 10
4.71897
 20
7.26688
 30
0.0
 40
0
 41
0
  0
VERTEX
  8
0
 10
4.77403
 20
7.50911
 30
0.0
 40
0
 41
0
  0
VERTEX
  8
0
 10
4.77403
 20
7.52012
 30
0.0
 40
0
 41
0
  0
VERTEX
  8
0
 10
4.76519
 20
7.53022
 30
0.0
 40
0
 41
0
  0
VERTEX
  8
0
 10
4.73867
 20
7.56039
 30
0.0
 40
0
 41
0
  0
VERTEX
  8
0
 10
4.69075
 20
7.6186
 30
0.0
 40
0
 41
0
  0
VERTEX
  8
0
 10
4.63553
 20
7.69433
 30
0.0
 40
0
 41
0
  0
VERTEX
  8
0
 10
4.59169
 20
7.7634
 30
0.0
 40
0
 41
0
  0
VERTEX
  8
0
 10
4.5785
 20
7.78717
 30
0.0
 40
0
 41
0
  0
VERTEX
  8
0
 10
4.5785
 20
7.78717
 30
0.0
 40
0
 41
0
  0
VERTEX
  8
0
 10
4.5726
 20
7.79904
 30
0.0
 40
0
 41
0
  0
VERTEX
  8
0
 10
4.55658
 20
7.83182
 30
0.0
 40
0
 41
0
  0
VERTEX
  8
0
 10
4.53282
 20
7.88151
 30
0.0
 40
0
 41
0
  0
VERTEX
  8
0
 10
4.50364
 20
7.94407
 30
0.0
 40
0
 41
0
  0
VERTEX
  8
0
 10
4.4714
 20
8.01535
 30
0.0
 40
0
 41
0
  0
VERTEX
  8
0
 10
4.43853
 20
8.09142
 30
0.0
 40
0
 41
0
  0
VERTEX
  8
0
 10
4.40733
 20
8.16812
 30
0.0
 40
0
 41
0
  0
VERTEX
  8
0
 10
4.38661
 20
8.22299
 30
0.0
 40
0
 41
0
  0
VERTEX
  8
0
 10
4.38026
 20
8.24143
 30
0.0
 40
0
 41
0
  0
VERTEX
  8
0
 10
4.35449
 20
8.31592
 30
0.0
 40
0
 41
0
  0
VERTEX
  8
0
 10
4.28965
 20
8.54368
 30
0.0
 40
0
 41
0
  0
VERTEX
  8
0
 10
4.20421
 20
8.91097
 30
0.0
 40
0
 41
0
  0
VERTEX
  8
0
 10
4.12418
 20
9.34201
 30
0.0
 40
0
 41
0
  0
VERTEX
  8
0
 10
4.06662
 20
9.71186
 30
0.0
 40
0
 41
0
  0
VERTEX
  8
0
 10
4.04981
 20
9.83544
 30
0.0
 40
0
 41
0
  0
VERTEX
  8
0
 10
4.04156
 20
10.0832
 30
0.0
 40
0
 41
0
  0
VERTEX
  8
0
 10
4.06082
 20
10.1686
 30
0.0
 40
0
 41
0
  0
SEQEND
 8
0
  0
POLYLINE
  8
0
 62
     0
 66
     1
 10
0
 20
0
 30
0.0
 70
     1
 40
0
 41
0
  0
VERTEX
  8
0
 10
8.23264
 20
9.34267
 30
0.0
 40
0
 41
0
  0
VERTEX
  8
0
 10
8.24365
 20
9.31239
 30
0.0
 40
0
 41
0
  0
VERTEX
  8
0
 10
8.24197
 20
9.30479
 30
0.0
 40
0
 41
0
  0
VERTEX
  8
0
 10
8.23649
 20
9.2819
 30
0.0
 40
0
 41
0
  0
VERTEX
  8
0
 10
8.23133
 20
9.25956
 30
0.0
 40
0
 41
0
  0
VERTEX
  8
0
 10
8.22819
 20
9.23882
 30
0.0
 40
0
 41
0
  0
VERTEX
  8
0
 10
8.22715
 20
9.21967
 30
0.0
 40
0
 41
0
  0
VERTEX
  8
0
 10
8.22715
 20
9.21326
 30
0.0
 40
0
 41
0
  0
VERTEX
  8
0
 10
8.22715
 20
9.21326
 30
0.0
 40
0
 41
0
  0
VERTEX
  8
0
 10
8.23465
 20
9.21337
 30
0.0
 40
0
 41
0
  0
VERTEX
  8
0
 10
8.25271
 20
9.21289
 30
0.0
 40
0
 41
0
  0
VERTEX
  8
0
 10
8.27453
 20
9.2105
 30
0.0
 40
0
 41
0
  0
VERTEX
  8
0
 10
8.28896
 20
9.20714
 30
0.0
 40
0
 41
0
  0
VERTEX
  8
0
 10
8.29324
 20
9.20497
 30
0.0
 40
0
 41
0
  0
VERTEX
  8
0
 10
8.26019
 20
9.16368
 30
0.0
 40
0
 41
0
  0
VERTEX
  8
0
 10
8.35932
 20
9.0976
 30
0.0
 40
0
 41
0
  0
VERTEX
  8
0
 10
8.24365
 20
9.1059
 30
0.0
 40
0
 41
0
  0
VERTEX
  8
0
 10
8.22715
 20
9.0976
 30
0.0
 40
0
 41
0
  0
VERTEX
  8
0
 10
8.2354
 20
9.03982
 30
0.0
 40
0
 41
0
  0
VERTEX
  8
0
 10
8.19412
 20
9.07286
 30
0.0
 40
0
 41
0
  0
VERTEX
  8
0
 10
8.15886
 20
9.01997
 30
0.0
 40
0
 41
0
  0
VERTEX
  8
0
 10
8.14122
 20
8.99354
 30
0.0
 40
0
 41
0
  0
VERTEX
  8
0
 10
8.14122
 20
8.99354
 30
0.0
 40
0
 41
0
  0
VERTEX
  8
0
 10
8.13601
 20
8.98508
 30
0.0
 40
0
 41
0
  0
VERTEX
  8
0
 10
8.12528
 20
8.97108
 30
0.0
 40
0
 41
0
  0
VERTEX
  8
0
 10
8.1225
 20
8.96826
 30
0.0
 40
0
 41
0
  0
VERTEX
  8
0
 10
8.12261
 20
8.97021
 30
0.0
 40
0
 41
0
  0
VERTEX
  8
0
 10
8.12397
 20
8.98958
 30
0.0
 40
0
 41
0
  0
VERTEX
  8
0
 10
8.12679
 20
9.02897
 30
0.0
 40
0
 41
0
  0
VERTEX
  8
0
 10
8.1295
 20
9.06689
 30
0.0
 40
0
 41
0
  0
VERTEX
  8
0
 10
8.13075
 20
9.08388
 30
0.0
 40
0
 41
0
  0
VERTEX
  8
0
 10
8.13075
 20
9.08388
 30
0.0
 40
0
 41
0
  0
VERTEX
  8
0
 10
8.13069
 20
9.08496
 30
0.0
 40
0
 41
0
  0
VERTEX
  8
0
 10
8.12819
 20
9.09657
 30
0.0
 40
0
 41
0
  0
VERTEX
  8
0
 10
8.12804
 20
9.0976
 30
0.0
 40
0
 41
0
  0
VERTEX
  8
0
 10
8.12017
 20
9.09631
 30
0.0
 40
0
 41
0
  0
VERTEX
  8
0
 10
8.09392
 20
9.09104
 30
0.0
 40
0
 41
0
  0
VERTEX
  8
0
 10
8.0709
 20
9.09088
 30
0.0
 40
0
 41
0
  0
VERTEX
  8
0
 10
8.06467
 20
9.09213
 30
0.0
 40
0
 41
0
  0
VERTEX
  8
0
 10
8.10601
 20
9.1334
 30
0.0
 40
0
 41
0
  0
VERTEX
  8
0
 10
7.99858
 20
9.19949
 30
0.0
 40
0
 41
0
  0
VERTEX
  8
0
 10
8.12804
 20
9.20226
 30
0.0
 40
0
 41
0
  0
VERTEX
  8
0
 10
8.12756
 20
9.20611
 30
0.0
 40
0
 41
0
  0
VERTEX
  8
0
 10
8.1231
 20
9.22851
 30
0.0
 40
0
 41
0
  0
VERTEX
  8
0
 10
8.12522
 20
9.25444
 30
0.0
 40
0
 41
0
  0
VERTEX
  8
0
 10
8.12804
 20
9.26004
 30
0.0
 40
0
 41
0
  0
VERTEX
  8
0
 10
8.16932
 20
9.227
 30
0.0
 40
0
 41
0
  0
VERTEX
  8
0
 10
8.23264
 20
9.34267
 30
0.0
 40
0
 41
0
  0
SEQEND
 8
0
  0
POLYLINE
  8
0
 62
     0
 66
     1
 10
0
 20
0
 30
0.0
 70
     1
 40
0
 41
0
  0
VERTEX
  8
0
 10
7.89393
 20
9.10314
 30
0.0
 40
0
 41
0
  0
VERTEX
  8
0
 10
7.89415
 20
9.09967
 30
0.0
 40
0
 41
0
  0
VERTEX
  8
0
 10
7.89426
 20
9.07958
 30
0.0
 40
0
 41
0
  0
VERTEX
  8
0
 10
7.89578
 20
9.05974
 30
0.0
 40
0
 41
0
  0
VERTEX
  8
0
 10
7.89671
 20
9.05632
 30
0.0
 40
0
 41
0
  0
VERTEX
  8
0
 10
7.89774
 20
9.05231
 30
0.0
 40
0
 41
0
  0
VERTEX
  8
0
 10
7.90788
 20
9.03114
 30
0.0
 40
0
 41
0
  0
VERTEX
  8
0
 10
7.9196
 20
9.01053
 30
0.0
 40
0
 41
0
  0
VERTEX
  8
0
 10
7.9215
 20
9.00678
 30
0.0
 40
0
 41
0
  0
VERTEX
  8
0
 10
7.97657
 20
8.97097
 30
0.0
 40
0
 41
0
  0
VERTEX
  8
0
 10
7.9739
 20
8.96838
 30
0.0
 40
0
 41
0
  0
VERTEX
  8
0
 10
7.9521
 20
8.96436
 30
0.0
 40
0
 41
0
  0
VERTEX
  8
0
 10
7.92296
 20
8.9655
 30
0.0
 40
0
 41
0
  0
VERTEX
  8
0
 10
7.91325
 20
8.9655
 30
0.0
 40
0
 41
0
  0
VERTEX
  8
0
 10
7.89671
 20
8.94069
 30
0.0
 40
0
 41
0
  0
VERTEX
  8
0
 10
7.88021
 20
8.94894
 30
0.0
 40
0
 41
0
  0
VERTEX
  8
0
 10
7.84717
 20
8.89117
 30
0.0
 40
0
 41
0
  0
VERTEX
  8
0
 10
7.83339
 20
8.89388
 30
0.0
 40
0
 41
0
  0
VERTEX
  8
0
 10
7.84164
 20
8.93522
 30
0.0
 40
0
 41
0
  0
VERTEX
  8
0
 10
7.81685
 20
8.993
 30
0.0
 40
0
 41
0
  0
VERTEX
  8
0
 10
7.77279
 20
9.03157
 30
0.0
 40
0
 41
0
  0
VERTEX
  8
0
 10
7.77279
 20
9.03706
 30
0.0
 40
0
 41
0
  0
VERTEX
  8
0
 10
7.82238
 20
9.02881
 30
0.0
 40
0
 41
0
  0
VERTEX
  8
0
 10
7.8719
 20
9.0536
 30
0.0
 40
0
 41
0
  0
VERTEX
  8
0
 10
7.89393
 20
9.10314
 30
0.0
 40
0
 41
0
  0
SEQEND
 8
0
  0
POLYLINE
  8
0
 62
     0
 66
     1
 10
0
 20
0
 30
0.0
 70
     1
 40
0
 41
0
  0
VERTEX
  8
0
 10
8.10047
 20
8.81407
 30
0.0
 40
0
 41
0
  0
VERTEX
  8
0
 10
8.11974
 20
8.80854
 30
0.0
 40
0
 41
0
  0
VERTEX
  8
0
 10
8.095
 20
8.69293
 30
0.0
 40
0
 41
0
  0
VERTEX
  8
0
 10
8.10872
 20
8.67367
 30
0.0
 40
0
 41
0
  0
VERTEX
  8
0
 10
8.13629
 20
8.68468
 30
0.0
 40
0
 41
0
  0
VERTEX
  8
0
 10
8.13894
 20
8.68576
 30
0.0
 40
0
 41
0
  0
VERTEX
  8
0
 10
8.14849
 20
8.68837
 30
0.0
 40
0
 41
0
  0
VERTEX
  8
0
 10
8.15826
 20
8.68608
 30
0.0
 40
0
 41
0
  0
VERTEX
  8
0
 10
8.16108
 20
8.68468
 30
0.0
 40
0
 41
0
  0
VERTEX
  8
0
 10
8.12804
 20
8.64339
 30
0.0
 40
0
 41
0
  0
VERTEX
  8
0
 10
8.2354
 20
8.56907
 30
0.0
 40
0
 41
0
  0
VERTEX
  8
0
 10
8.22715
 20
8.56076
 30
0.0
 40
0
 41
0
  0
VERTEX
  8
0
 10
8.22157
 20
8.56201
 30
0.0
 40
0
 41
0
  0
VERTEX
  8
0
 10
8.19011
 20
8.56999
 30
0.0
 40
0
 41
0
  0
VERTEX
  8
0
 10
8.15847
 20
8.57671
 30
0.0
 40
0
 41
0
  0
VERTEX
  8
0
 10
8.15283
 20
8.57731
 30
0.0
 40
0
 41
0
  0
VERTEX
  8
0
 10
8.14974
 20
8.57769
 30
0.0
 40
0
 41
0
  0
VERTEX
  8
0
 10
8.12104
 20
8.57731
 30
0.0
 40
0
 41
0
  0
VERTEX
  8
0
 10
8.11149
 20
8.57731
 30
0.0
 40
0
 41
0
  0
VERTEX
  8
0
 10
8.11149
 20
8.51947
 30
0.0
 40
0
 41
0
  0
VERTEX
  8
0
 10
8.10325
 20
8.51124
 30
0.0
 40
0
 41
0
  0
VERTEX
  8
0
 10
8.06196
 20
8.55251
 30
0.0
 40
0
 41
0
  0
VERTEX
  8
0
 10
8.00413
 20
8.4369
 30
0.0
 40
0
 41
0
  0
VERTEX
  8
0
 10
7.99035
 20
8.43967
 30
0.0
 40
0
 41
0
  0
VERTEX
  8
0
 10
7.99175
 20
8.45042
 30
0.0
 40
0
 41
0
  0
VERTEX
  8
0
 10
7.99658
 20
8.48247
 30
0.0
 40
0
 41
0
  0
VERTEX
  8
0
 10
8.00222
 20
8.52061
 30
0.0
 40
0
 41
0
  0
VERTEX
  8
0
 10
8.00538
 20
8.55274
 30
0.0
 40
0
 41
0
  0
VERTEX
  8
0
 10
8.00532
 20
8.57135
 30
0.0
 40
0
 41
0
  0
VERTEX
  8
0
 10
8.00413
 20
8.57731
 30
0.0
 40
0
 41
0
  0
VERTEX
  8
0
 10
8.00146
 20
8.57687
 30
0.0
 40
0
 41
0
  0
VERTEX
  8
0
 10
7.97553
 20
8.57254
 30
0.0
 40
0
 41
0
  0
VERTEX
  8
0
 10
7.94542
 20
8.57086
 30
0.0
 40
0
 41
0
  0
VERTEX
  8
0
 10
7.94075
 20
8.57178
 30
0.0
 40
0
 41
0
  0
VERTEX
  8
0
 10
7.97379
 20
8.60482
 30
0.0
 40
0
 41
0
  0
VERTEX
  8
0
 10
7.95454
 20
8.6351
 30
0.0
 40
0
 41
0
  0
VERTEX
  8
0
 10
7.86643
 20
8.67914
 30
0.0
 40
0
 41
0
  0
VERTEX
  8
0
 10
7.89671
 20
8.69015
 30
0.0
 40
0
 41
0
  0
VERTEX
  8
0
 10
8.00413
 20
8.68192
 30
0.0
 40
0
 41
0
  0
VERTEX
  8
0
 10
8.00413
 20
8.68837
 30
0.0
 40
0
 41
0
  0
VERTEX
  8
0
 10
8.00142
 20
8.70757
 30
0.0
 40
0
 41
0
  0
VERTEX
  8
0
 10
7.99681
 20
8.74143
 30
0.0
 40
0
 41
0
  0
VERTEX
  8
0
 10
7.99582
 20
8.74799
 30
0.0
 40
0
 41
0
  0
VERTEX
  8
0
 10
8.03717
 20
8.69846
 30
0.0
 40
0
 41
0
  0
VERTEX
  8
0
 10
8.10047
 20
8.81407
 30
0.0
 40
0
 41
0
  0
SEQEND
 8
0
  0
POLYLINE
  8
0
 62
     0
 66
     1
 10
0
 20
0
 30
0.0
 70
     1
 40
0
 41
0
  0
VERTEX
  8
0
 10
5.45871
 20
8.52567
 30
0.0
 40
0
 41
0
  0
VERTEX
  8
0
 10
5.48725
 20
8.49197
 30
0.0
 40
0
 41
0
  0
VERTEX
  8
0
 10
5.59462
 20
8.45893
 30
0.0
 40
0
 41
0
  0
VERTEX
  8
0
 10
5.62765
 20
8.47542
 30
0.0
 40
0
 41
0
  0
VERTEX
  8
0
 10
5.58914
 20
8.50299
 30
0.0
 40
0
 41
0
  0
VERTEX
  8
0
 10
5.45871
 20
8.52567
 30
0.0
 40
0
 41
0
  0
SEQEND
 8
0
  0
POLYLINE
  8
0
 62
     0
 66
     1
 10
0
 20
0
 30
0.0
 70
     1
 40
0
 41
0
  0
VERTEX
  8
0
 10
8.38135
 20
8.3846
 30
0.0
 40
0
 41
0
  0
VERTEX
  8
0
 10
8.38411
 20
8.32954
 30
0.0
 40
0
 41
0
  0
VERTEX
  8
0
 10
8.41715
 20
8.30474
 30
0.0
 40
0
 41
0
  0
VERTEX
  8
0
 10
8.4089
 20
8.28825
 30
0.0
 40
0
 41
0
  0
VERTEX
  8
0
 10
8.45844
 20
8.24696
 30
0.0
 40
0
 41
0
  0
VERTEX
  8
0
 10
8.45019
 20
8.23867
 30
0.0
 40
0
 41
0
  0
VERTEX
  8
0
 10
8.4089
 20
8.24696
 30
0.0
 40
0
 41
0
  0
VERTEX
  8
0
 10
8.38411
 20
8.22217
 30
0.0
 40
0
 41
0
  0
VERTEX
  8
0
 10
8.36757
 20
8.23042
 30
0.0
 40
0
 41
0
  0
VERTEX
  8
0
 10
8.32628
 20
8.16433
 30
0.0
 40
0
 41
0
  0
VERTEX
  8
0
 10
8.3125
 20
8.1671
 30
0.0
 40
0
 41
0
  0
VERTEX
  8
0
 10
8.32081
 20
8.20839
 30
0.0
 40
0
 41
0
  0
VERTEX
  8
0
 10
8.29601
 20
8.24968
 30
0.0
 40
0
 41
0
  0
VERTEX
  8
0
 10
8.29601
 20
8.24968
 30
0.0
 40
0
 41
0
  0
VERTEX
  8
0
 10
8.29872
 20
8.25732
 30
0.0
 40
0
 41
0
  0
VERTEX
  8
0
 10
8.30149
 20
8.26812
 30
0.0
 40
0
 41
0
  0
VERTEX
  8
0
 10
8.30149
 20
8.27171
 30
0.0
 40
0
 41
0
  0
VERTEX
  8
0
 10
8.25467
 20
8.29926
 30
0.0
 40
0
 41
0
  0
VERTEX
  8
0
 10
8.25879
 20
8.30013
 30
0.0
 40
0
 41
0
  0
VERTEX
  8
0
 10
8.28282
 20
8.30306
 30
0.0
 40
0
 41
0
  0
VERTEX
  8
0
 10
8.30604
 20
8.30832
 30
0.0
 40
0
 41
0
  0
VERTEX
  8
0
 10
8.30979
 20
8.31028
 30
0.0
 40
0
 41
0
  0
VERTEX
  8
0
 10
8.31207
 20
8.31153
 30
0.0
 40
0
 41
0
  0
VERTEX
  8
0
 10
8.33262
 20
8.33317
 30
0.0
 40
0
 41
0
  0
VERTEX
  8
0
 10
8.33453
 20
8.33501
 30
0.0
 40
0
 41
0
  0
VERTEX
  8
0
 10
8.34283
 20
8.32676
 30
0.0
 40
0
 41
0
  0
VERTEX
  8
0
 10
8.38135
 20
8.3846
 30
0.0
 40
0
 41
0
  0
SEQEND
 8
0
  0
POLYLINE
  8
0
 62
     0
 66
     1
 10
0
 20
0
 30
0.0
 70
     1
 40
0
 41
0
  0
VERTEX
  8
0
 10
5.55447
 20
8.37939
 30
0.0
 40
0
 41
0
  0
VERTEX
  8
0
 10
5.61404
 20
8.33165
 30
0.0
 40
0
 41
0
  0
VERTEX
  8
0
 10
5.63639
 20
8.35736
 30
0.0
 40
0
 41
0
  0
VERTEX
  8
0
 10
5.59739
 20
8.37907
 30
0.0
 40
0
 41
0
  0
VERTEX
  8
0
 10
5.55447
 20
8.37939
 30
0.0
 40
0
 41
0
  0
SEQEND
 8
0
  0
POLYLINE
  8
0
 62
     0
 66
     1
 10
0
 20
0
 30
0.0
 70
     1
 40
0
 41
0
  0
VERTEX
  8
0
 10
5.71576
 20
8.35704
 30
0.0
 40
0
 41
0
  0
VERTEX
  8
0
 10
5.7105
 20
8.35215
 30
0.0
 40
0
 41
0
  0
VERTEX
  8
0
 10
5.69467
 20
8.33757
 30
0.0
 40
0
 41
0
  0
VERTEX
  8
0
 10
5.67936
 20
8.32264
 30
0.0
 40
0
 41
0
  0
VERTEX
  8
0
 10
5.66575
 20
8.30643
 30
0.0
 40
0
 41
0
  0
VERTEX
  8
0
 10
5.65349
 20
8.28874
 30
0.0
 40
0
 41
0
  0
VERTEX
  8
0
 10
5.64968
 20
8.28271
 30
0.0
 40
0
 41
0
  0
VERTEX
  8
0
 10
5.71576
 20
8.04318
 30
0.0
 40
0
 41
0
  0
VERTEX
  8
0
 10
5.7819
 20
7.58897
 30
0.0
 40
0
 41
0
  0
VERTEX
  8
0
 10
5.81765
 20
7.50087
 30
0.0
 40
0
 41
0
  0
VERTEX
  8
0
 10
5.859
 20
7.51736
 30
0.0
 40
0
 41
0
  0
VERTEX
  8
0
 10
5.98292
 20
7.64128
 30
0.0
 40
0
 41
0
  0
VERTEX
  8
0
 10
5.97814
 20
7.64399
 30
0.0
 40
0
 41
0
  0
VERTEX
  8
0
 10
5.95042
 20
7.65804
 30
0.0
 40
0
 41
0
  0
VERTEX
  8
0
 10
5.92372
 20
7.67361
 30
0.0
 40
0
 41
0
  0
VERTEX
  8
0
 10
5.91954
 20
7.67703
 30
0.0
 40
0
 41
0
  0
VERTEX
  8
0
 10
5.9151
 20
7.68067
 30
0.0
 40
0
 41
0
  0
VERTEX
  8
0
 10
5.89372
 20
7.70492
 30
0.0
 40
0
 41
0
  0
VERTEX
  8
0
 10
5.87369
 20
7.73053
 30
0.0
 40
0
 41
0
  0
VERTEX
  8
0
 10
5.87001
 20
7.73486
 30
0.0
 40
0
 41
0
  0
VERTEX
  8
0
 10
5.86236
 20
7.75201
 30
0.0
 40
0
 41
0
  0
VERTEX
  8
0
 10
5.81717
 20
7.84842
 30
0.0
 40
0
 41
0
  0
VERTEX
  8
0
 10
5.77453
 20
7.94575
 30
0.0
 40
0
 41
0
  0
VERTEX
  8
0
 10
5.76812
 20
7.96337
 30
0.0
 40
0
 41
0
  0
VERTEX
  8
0
 10
5.76503
 20
7.9719
 30
0.0
 40
0
 41
0
  0
VERTEX
  8
0
 10
5.75065
 20
8.02094
 30
0.0
 40
0
 41
0
  0
VERTEX
  8
0
 10
5.73753
 20
8.07036
 30
0.0
 40
0
 41
0
  0
VERTEX
  8
0
 10
5.73508
 20
8.079
 30
0.0
 40
0
 41
0
  0
VERTEX
  8
0
 10
5.72954
 20
8.36257
 30
0.0
 40
0
 41
0
  0
VERTEX
  8
0
 10
5.71576
 20
8.35704
 30
0.0
 40
0
 41
0
  0
SEQEND
 8
0
  0
POLYLINE
  8
0
 62
     0
 66
     1
 10
0
 20
0
 30
0.0
 70
     1
 40
0
 41
0
  0
VERTEX
  8
0
 10
8.11703
 20
8.12028
 30
0.0
 40
0
 41
0
  0
VERTEX
  8
0
 10
8.10325
 20
7.99918
 30
0.0
 40
0
 41
0
  0
VERTEX
  8
0
 10
8.11149
 20
7.98264
 30
0.0
 40
0
 41
0
  0
VERTEX
  8
0
 10
8.1166
 20
7.98264
 30
0.0
 40
0
 41
0
  0
VERTEX
  8
0
 10
8.13194
 20
7.9866
 30
0.0
 40
0
 41
0
  0
VERTEX
  8
0
 10
8.14606
 20
7.99447
 30
0.0
 40
0
 41
0
  0
VERTEX
  8
0
 10
8.15007
 20
7.99642
 30
0.0
 40
0
 41
0
  0
VERTEX
  8
0
 10
8.16108
 20
7.98264
 30
0.0
 40
0
 41
0
  0
VERTEX
  8
0
 10
8.13629
 20
7.9496
 30
0.0
 40
0
 41
0
  0
VERTEX
  8
0
 10
8.24094
 20
7.88081
 30
0.0
 40
0
 41
0
  0
VERTEX
  8
0
 10
8.2354
 20
7.87528
 30
0.0
 40
0
 41
0
  0
VERTEX
  8
0
 10
8.11974
 20
7.89176
 30
0.0
 40
0
 41
0
  0
VERTEX
  8
0
 10
8.10325
 20
7.88351
 30
0.0
 40
0
 41
0
  0
VERTEX
  8
0
 10
8.11149
 20
7.83399
 30
0.0
 40
0
 41
0
  0
VERTEX
  8
0
 10
8.07021
 20
7.85878
 30
0.0
 40
0
 41
0
  0
VERTEX
  8
0
 10
8.06862
 20
7.85628
 30
0.0
 40
0
 41
0
  0
VERTEX
  8
0
 10
8.05143
 20
7.82829
 30
0.0
 40
0
 41
0
  0
VERTEX
  8
0
 10
8.04953
 20
7.82519
 30
0.0
 40
0
 41
0
  0
VERTEX
  8
0
 10
8.04953
 20
7.82519
 30
0.0
 40
0
 41
0
  0
VERTEX
  8
0
 10
8.04699
 20
7.82118
 30
0.0
 40
0
 41
0
  0
VERTEX
  8
0
 10
8.04144
 20
7.81213
 30
0.0
 40
0
 41
0
  0
VERTEX
  8
0
 10
8.03581
 20
7.80296
 30
0.0
 40
0
 41
0
  0
VERTEX
  8
0
 10
8.03315
 20
7.79861
 30
0.0
 40
0
 41
0
  0
VERTEX
  8
0
 10
8.03304
 20
7.79833
 30
0.0
 40
0
 41
0
  0
VERTEX
  8
0
 10
8.03271
 20
7.7979
 30
0.0
 40
0
 41
0
  0
VERTEX
  8
0
 10
8.0286
 20
7.7909
 30
0.0
 40
0
 41
0
  0
VERTEX
  8
0
 10
8.01926
 20
7.77539
 30
0.0
 40
0
 41
0
  0
VERTEX
  8
0
 10
8.00814
 20
7.75825
 30
0.0
 40
0
 41
0
  0
VERTEX
  8
0
 10
8.00114
 20
7.74849
 30
0.0
 40
0
 41
0
  0
VERTEX
  8
0
 10
7.99858
 20
7.74588
 30
0.0
 40
0
 41
0
  0
VERTEX
  8
0
 10
8.01514
 20
7.86979
 30
0.0
 40
0
 41
0
  0
VERTEX
  8
0
 10
8.00413
 20
7.89176
 30
0.0
 40
0
 41
0
  0
VERTEX
  8
0
 10
8.00017
 20
7.89019
 30
0.0
 40
0
 41
0
  0
VERTEX
  8
0
 10
7.97965
 20
7.88075
 30
0.0
 40
0
 41
0
  0
VERTEX
  8
0
 10
7.95508
 20
7.87685
 30
0.0
 40
0
 41
0
  0
VERTEX
  8
0
 10
7.94906
 20
7.87804
 30
0.0
 40
0
 41
0
  0
VERTEX
  8
0
 10
7.9821
 20
7.91932
 30
0.0
 40
0
 41
0
  0
VERTEX
  8
0
 10
7.97108
 20
7.94135
 30
0.0
 40
0
 41
0
  0
VERTEX
  8
0
 10
7.86643
 20
7.99365
 30
0.0
 40
0
 41
0
  0
VERTEX
  8
0
 10
7.89671
 20
8.00467
 30
0.0
 40
0
 41
0
  0
VERTEX
  8
0
 10
7.90104
 20
8.00347
 30
0.0
 40
0
 41
0
  0
VERTEX
  8
0
 10
7.9254
 20
7.99556
 30
0.0
 40
0
 41
0
  0
VERTEX
  8
0
 10
7.95003
 20
7.98882
 30
0.0
 40
0
 41
0
  0
VERTEX
  8
0
 10
7.95454
 20
7.98817
 30
0.0
 40
0
 41
0
  0
VERTEX
  8
0
 10
7.95817
 20
7.98768
 30
0.0
 40
0
 41
0
  0
VERTEX
  8
0
 10
7.97922
 20
7.98742
 30
0.0
 40
0
 41
0
  0
VERTEX
  8
0
 10
7.99789
 20
7.98817
 30
0.0
 40
0
 41
0
  0
VERTEX
  8
0
 10
8.00413
 20
7.98817
 30
0.0
 40
0
 41
0
  0
VERTEX
  8
0
 10
8.00379
 20
7.99143
 30
0.0
 40
0
 41
0
  0
VERTEX
  8
0
 10
8.00201
 20
8.00103
 30
0.0
 40
0
 41
0
  0
VERTEX
  8
0
 10
7.99951
 20
8.01801
 30
0.0
 40
0
 41
0
  0
VERTEX
  8
0
 10
7.99935
 20
8.03663
 30
0.0
 40
0
 41
0
  0
VERTEX
  8
0
 10
8.00211
 20
8.05024
 30
0.0
 40
0
 41
0
  0
VERTEX
  8
0
 10
8.00413
 20
8.05419
 30
0.0
 40
0
 41
0
  0
VERTEX
  8
0
 10
8.04542
 20
8.02115
 30
0.0
 40
0
 41
0
  0
VERTEX
  8
0
 10
8.04542
 20
8.02115
 30
0.0
 40
0
 41
0
  0
VERTEX
  8
0
 10
8.04833
 20
8.02533
 30
0.0
 40
0
 41
0
  0
VERTEX
  8
0
 10
8.05615
 20
8.03629
 30
0.0
 40
0
 41
0
  0
VERTEX
  8
0
 10
8.06728
 20
8.05181
 30
0.0
 40
0
 41
0
  0
VERTEX
  8
0
 10
8.08014
 20
8.06967
 30
0.0
 40
0
 41
0
  0
VERTEX
  8
0
 10
8.0931
 20
8.08768
 30
0.0
 40
0
 41
0
  0
VERTEX
  8
0
 10
8.1046
 20
8.10363
 30
0.0
 40
0
 41
0
  0
VERTEX
  8
0
 10
8.11313
 20
8.11524
 30
0.0
 40
0
 41
0
  0
VERTEX
  8
0
 10
8.11626
 20
8.11957
 30
0.0
 40
0
 41
0
  0
VERTEX
  8
0
 10
8.11703
 20
8.12028
 30
0.0
 40
0
 41
0
  0
SEQEND
 8
0
  0
POLYLINE
  8
0
 62
     0
 66
     1
 10
0
 20
0
 30
0.0
 70
     1
 40
0
 41
0
  0
VERTEX
  8
0
 10
7.8444
 20
7.69906
 30
0.0
 40
0
 41
0
  0
VERTEX
  8
0
 10
7.85542
 20
7.69358
 30
0.0
 40
0
 41
0
  0
VERTEX
  8
0
 10
7.84717
 20
7.65229
 30
0.0
 40
0
 41
0
  0
VERTEX
  8
0
 10
7.86919
 20
7.64128
 30
0.0
 40
0
 41
0
  0
VERTEX
  8
0
 10
7.8719
 20
7.611
 30
0.0
 40
0
 41
0
  0
VERTEX
  8
0
 10
7.91325
 20
7.57796
 30
0.0
 40
0
 41
0
  0
VERTEX
  8
0
 10
7.9126
 20
7.57736
 30
0.0
 40
0
 41
0
  0
VERTEX
  8
0
 10
7.90576
 20
7.56993
 30
0.0
 40
0
 41
0
  0
VERTEX
  8
0
 10
7.90494
 20
7.56967
 30
0.0
 40
0
 41
0
  0
VERTEX
  8
0
 10
7.90246
 20
7.56901
 30
0.0
 40
0
 41
0
  0
VERTEX
  8
0
 10
7.88846
 20
7.57189
 30
0.0
 40
0
 41
0
  0
VERTEX
  8
0
 10
7.87435
 20
7.57736
 30
0.0
 40
0
 41
0
  0
VERTEX
  8
0
 10
7.8719
 20
7.57796
 30
0.0
 40
0
 41
0
  0
VERTEX
  8
0
 10
7.82238
 20
7.55317
 30
0.0
 40
0
 41
0
  0
VERTEX
  8
0
 10
7.79758
 20
7.49533
 30
0.0
 40
0
 41
0
  0
VERTEX
  8
0
 10
7.78381
 20
7.4981
 30
0.0
 40
0
 41
0
  0
VERTEX
  8
0
 10
7.7844
 20
7.5006
 30
0.0
 40
0
 41
0
  0
VERTEX
  8
0
 10
7.79172
 20
7.52865
 30
0.0
 40
0
 41
0
  0
VERTEX
  8
0
 10
7.79204
 20
7.53114
 30
0.0
 40
0
 41
0
  0
VERTEX
  8
0
 10
7.79232
 20
7.53364
 30
0.0
 40
0
 41
0
  0
VERTEX
  8
0
 10
7.79204
 20
7.55658
 30
0.0
 40
0
 41
0
  0
VERTEX
  8
0
 10
7.79204
 20
7.56418
 30
0.0
 40
0
 41
0
  0
VERTEX
  8
0
 10
7.76731
 20
7.57243
 30
0.0
 40
0
 41
0
  0
VERTEX
  8
0
 10
7.76731
 20
7.59722
 30
0.0
 40
0
 41
0
  0
VERTEX
  8
0
 10
7.71772
 20
7.63026
 30
0.0
 40
0
 41
0
  0
VERTEX
  8
0
 10
7.78933
 20
7.64128
 30
0.0
 40
0
 41
0
  0
VERTEX
  8
0
 10
7.78933
 20
7.64421
 30
0.0
 40
0
 41
0
  0
VERTEX
  8
0
 10
7.78819
 20
7.653
 30
0.0
 40
0
 41
0
  0
VERTEX
  8
0
 10
7.78489
 20
7.66114
 30
0.0
 40
0
 41
0
  0
VERTEX
  8
0
 10
7.78381
 20
7.66331
 30
0.0
 40
0
 41
0
  0
VERTEX
  8
0
 10
7.78483
 20
7.66351
 30
0.0
 40
0
 41
0
  0
VERTEX
  8
0
 10
7.7966
 20
7.66656
 30
0.0
 40
0
 41
0
  0
VERTEX
  8
0
 10
7.79758
 20
7.66607
 30
0.0
 40
0
 41
0
  0
VERTEX
  8
0
 10
7.79883
 20
7.66547
 30
0.0
 40
0
 41
0
  0
VERTEX
  8
0
 10
7.80263
 20
7.65875
 30
0.0
 40
0
 41
0
  0
VERTEX
  8
0
 10
7.80518
 20
7.65076
 30
0.0
 40
0
 41
0
  0
VERTEX
  8
0
 10
7.80583
 20
7.64953
 30
0.0
 40
0
 41
0
  0
VERTEX
  8
0
 10
7.8444
 20
7.69906
 30
0.0
 40
0
 41
0
  0
SEQEND
 8
0
  0
POLYLINE
  8
0
 62
     0
 66
     1
 10
0
 20
0
 30
0.0
 70
     1
 40
0
 41
0
  0
VERTEX
  8
0
 10
7.86089
 20
7.33567
 30
0.0
 40
0
 41
0
  0
VERTEX
  8
0
 10
7.86919
 20
7.23654
 30
0.0
 40
0
 41
0
  0
VERTEX
  8
0
 10
7.87289
 20
7.23779
 30
0.0
 40
0
 41
0
  0
VERTEX
  8
0
 10
7.88656
 20
7.24283
 30
0.0
 40
0
 41
0
  0
VERTEX
  8
0
 10
7.90093
 20
7.24132
 30
0.0
 40
0
 41
0
  0
VERTEX
  8
0
 10
7.90494
 20
7.23931
 30
0.0
 40
0
 41
0
  0
VERTEX
  8
0
 10
7.88846
 20
7.21451
 30
0.0
 40
0
 41
0
  0
VERTEX
  8
0
 10
7.97108
 20
7.15674
 30
0.0
 40
0
 41
0
  0
VERTEX
  8
0
 10
7.96278
 20
7.14849
 30
0.0
 40
0
 41
0
  0
VERTEX
  8
0
 10
7.86367
 20
7.15674
 30
0.0
 40
0
 41
0
  0
VERTEX
  8
0
 10
7.8719
 20
7.11546
 30
0.0
 40
0
 41
0
  0
VERTEX
  8
0
 10
7.83886
 20
7.14019
 30
0.0
 40
0
 41
0
  0
VERTEX
  8
0
 10
7.79758
 20
7.07417
 30
0.0
 40
0
 41
0
  0
VERTEX
  8
0
 10
7.78381
 20
7.07688
 30
0.0
 40
0
 41
0
  0
VERTEX
  8
0
 10
7.77279
 20
7.16499
 30
0.0
 40
0
 41
0
  0
VERTEX
  8
0
 10
7.77214
 20
7.16439
 30
0.0
 40
0
 41
0
  0
VERTEX
  8
0
 10
7.7654
 20
7.15679
 30
0.0
 40
0
 41
0
  0
VERTEX
  8
0
 10
7.76454
 20
7.15674
 30
0.0
 40
0
 41
0
  0
VERTEX
  8
0
 10
7.76318
 20
7.15668
 30
0.0
 40
0
 41
0
  0
VERTEX
  8
0
 10
7.75179
 20
7.16694
 30
0.0
 40
0
 41
0
  0
VERTEX
  8
0
 10
7.75076
 20
7.16775
 30
0.0
 40
0
 41
0
  0
VERTEX
  8
0
 10
7.76731
 20
7.18425
 30
0.0
 40
0
 41
0
  0
VERTEX
  8
0
 10
7.68468
 20
7.24208
 30
0.0
 40
0
 41
0
  0
VERTEX
  8
0
 10
7.69015
 20
7.2531
 30
0.0
 40
0
 41
0
  0
VERTEX
  8
0
 10
7.77279
 20
7.23654
 30
0.0
 40
0
 41
0
  0
VERTEX
  8
0
 10
7.79204
 20
7.25032
 30
0.0
 40
0
 41
0
  0
VERTEX
  8
0
 10
7.79139
 20
7.25222
 30
0.0
 40
0
 41
0
  0
VERTEX
  8
0
 10
7.78364
 20
7.27317
 30
0.0
 40
0
 41
0
  0
VERTEX
  8
0
 10
7.78381
 20
7.27513
 30
0.0
 40
0
 41
0
  0
VERTEX
  8
0
 10
7.78386
 20
7.27604
 30
0.0
 40
0
 41
0
  0
VERTEX
  8
0
 10
7.7889
 20
7.28532
 30
0.0
 40
0
 41
0
  0
VERTEX
  8
0
 10
7.78933
 20
7.28614
 30
0.0
 40
0
 41
0
  0
VERTEX
  8
0
 10
7.81413
 20
7.26133
 30
0.0
 40
0
 41
0
  0
VERTEX
  8
0
 10
7.86089
 20
7.33567
 30
0.0
 40
0
 41
0
  0
SEQEND
 8
0
  0
POLYLINE
  8
0
 62
     0
 66
     1
 10
0
 20
0
 30
0.0
 70
     1
 40
0
 41
0
  0
VERTEX
  8
0
 10
8.18311
 20
7.17051
 30
0.0
 40
0
 41
0
  0
VERTEX
  8
0
 10
8.19412
 20
7.16499
 30
0.0
 40
0
 41
0
  0
VERTEX
  8
0
 10
8.18587
 20
7.11546
 30
0.0
 40
0
 41
0
  0
VERTEX
  8
0
 10
8.21061
 20
7.0989
 30
0.0
 40
0
 41
0
  0
VERTEX
  8
0
 10
8.20236
 20
7.09065
 30
0.0
 40
0
 41
0
  0
VERTEX
  8
0
 10
8.26844
 20
7.04113
 30
0.0
 40
0
 41
0
  0
VERTEX
  8
0
 10
8.26019
 20
7.03282
 30
0.0
 40
0
 41
0
  0
VERTEX
  8
0
 10
8.21892
 20
7.04113
 30
0.0
 40
0
 41
0
  0
VERTEX
  8
0
 10
8.18587
 20
7.01633
 30
0.0
 40
0
 41
0
  0
VERTEX
  8
0
 10
8.16932
 20
7.02458
 30
0.0
 40
0
 41
0
  0
VERTEX
  8
0
 10
8.12804
 20
6.96674
 30
0.0
 40
0
 41
0
  0
VERTEX
  8
0
 10
8.11426
 20
6.96951
 30
0.0
 40
0
 41
0
  0
VERTEX
  8
0
 10
8.11426
 20
6.96951
 30
0.0
 40
0
 41
0
  0
VERTEX
  8
0
 10
8.11578
 20
6.97532
 30
0.0
 40
0
 41
0
  0
VERTEX
  8
0
 10
8.11914
 20
6.98817
 30
0.0
 40
0
 41
0
  0
VERTEX
  8
0
 10
8.12267
 20
7.00151
 30
0.0
 40
0
 41
0
  0
VERTEX
  8
0
 10
8.1244
 20
7.00808
 30
0.0
 40
0
 41
0
  0
VERTEX
  8
0
 10
8.12457
 20
7.00874
 30
0.0
 40
0
 41
0
  0
VERTEX
  8
0
 10
8.12532
 20
7.01172
 30
0.0
 40
0
 41
0
  0
VERTEX
  8
0
 10
8.12744
 20
7.02094
 30
0.0
 40
0
 41
0
  0
VERTEX
  8
0
 10
8.12804
 20
7.02989
 30
0.0
 40
0
 41
0
  0
VERTEX
  8
0
 10
8.12804
 20
7.03282
 30
0.0
 40
0
 41
0
  0
VERTEX
  8
0
 10
8.09771
 20
7.04383
 30
0.0
 40
0
 41
0
  0
VERTEX
  8
0
 10
8.10601
 20
7.06039
 30
0.0
 40
0
 41
0
  0
VERTEX
  8
0
 10
8.06467
 20
7.09343
 30
0.0
 40
0
 41
0
  0
VERTEX
  8
0
 10
8.11149
 20
7.10444
 30
0.0
 40
0
 41
0
  0
VERTEX
  8
0
 10
8.1225
 20
7.12646
 30
0.0
 40
0
 41
0
  0
VERTEX
  8
0
 10
8.15283
 20
7.12918
 30
0.0
 40
0
 41
0
  0
VERTEX
  8
0
 10
8.18311
 20
7.17051
 30
0.0
 40
0
 41
0
  0
SEQEND
 8
0
  0
POLYLINE
  8
0
 62
     0
 66
     1
 10
0
 20
0
 30
0.0
 70
     1
 40
0
 41
0
  0
VERTEX
  8
0
 10
5.41015
 20
6.96951
 30
0.0
 40
0
 41
0
  0
VERTEX
  8
0
 10
5.40539
 20
6.9656
 30
0.0
 40
0
 41
0
  0
VERTEX
  8
0
 10
5.37776
 20
6.94412
 30
0.0
 40
0
 41
0
  0
VERTEX
  8
0
 10
5.35107
 20
6.92165
 30
0.0
 40
0
 41
0
  0
VERTEX
  8
0
 10
5.34679
 20
6.91721
 30
0.0
 40
0
 41
0
  0
VERTEX
  8
0
 10
5.33817
 20
6.90842
 30
0.0
 40
0
 41
0
  0
VERTEX
  8
0
 10
5.29438
 20
6.85385
 30
0.0
 40
0
 41
0
  0
VERTEX
  8
0
 10
5.25256
 20
6.79753
 30
0.0
 40
0
 41
0
  0
VERTEX
  8
0
 10
5.2449
 20
6.78782
 30
0.0
 40
0
 41
0
  0
VERTEX
  8
0
 10
5.24767
 20
6.77403
 30
0.0
 40
0
 41
0
  0
VERTEX
  8
0
 10
5.25592
 20
6.77403
 30
0.0
 40
0
 41
0
  0
VERTEX
  8
0
 10
5.27826
 20
6.77354
 30
0.0
 40
0
 41
0
  0
VERTEX
  8
0
 10
5.28071
 20
6.77403
 30
0.0
 40
0
 41
0
  0
VERTEX
  8
0
 10
5.28532
 20
6.77501
 30
0.0
 40
0
 41
0
  0
VERTEX
  8
0
 10
5.31054
 20
6.78413
 30
0.0
 40
0
 41
0
  0
VERTEX
  8
0
 10
5.33453
 20
6.79633
 30
0.0
 40
0
 41
0
  0
VERTEX
  8
0
 10
5.33854
 20
6.79883
 30
0.0
 40
0
 41
0
  0
VERTEX
  8
0
 10
5.34407
 20
6.80236
 30
0.0
 40
0
 41
0
  0
VERTEX
  8
0
 10
5.3725
 20
6.82656
 30
0.0
 40
0
 41
0
  0
VERTEX
  8
0
 10
5.39963
 20
6.85232
 30
0.0
 40
0
 41
0
  0
VERTEX
  8
0
 10
5.40462
 20
6.85667
 30
0.0
 40
0
 41
0
  0
VERTEX
  8
0
 10
5.46246
 20
6.94749
 30
0.0
 40
0
 41
0
  0
VERTEX
  8
0
 10
5.42389
 20
6.97504
 30
0.0
 40
0
 41
0
  0
VERTEX
  8
0
 10
5.41015
 20
6.96951
 30
0.0
 40
0
 41
0
  0
SEQEND
 8
0
  0
POLYLINE
  8
0
 62
     0
 66
     1
 10
0
 20
0
 30
0.0
 70
     1
 40
0
 41
0
  0
VERTEX
  8
0
 10
7.92703
 20
6.79883
 30
0.0
 40
0
 41
0
  0
VERTEX
  8
0
 10
7.92974
 20
6.73551
 30
0.0
 40
0
 41
0
  0
VERTEX
  8
0
 10
7.95454
 20
6.71897
 30
0.0
 40
0
 41
0
  0
VERTEX
  8
0
 10
7.94629
 20
6.71072
 30
0.0
 40
0
 41
0
  0
VERTEX
  8
0
 10
7.99582
 20
6.66943
 30
0.0
 40
0
 41
0
  0
VERTEX
  8
0
 10
7.99517
 20
6.66883
 30
0.0
 40
0
 41
0
  0
VERTEX
  8
0
 10
7.98839
 20
6.66146
 30
0.0
 40
0
 41
0
  0
VERTEX
  8
0
 10
7.98757
 20
6.66118
 30
0.0
 40
0
 41
0
  0
VERTEX
  8
0
 10
7.98508
 20
6.66054
 30
0.0
 40
0
 41
0
  0
VERTEX
  8
0
 10
7.97108
 20
6.66336
 30
0.0
 40
0
 41
0
  0
VERTEX
  8
0
 10
7.95697
 20
6.66883
 30
0.0
 40
0
 41
0
  0
VERTEX
  8
0
 10
7.95454
 20
6.66943
 30
0.0
 40
0
 41
0
  0
VERTEX
  8
0
 10
7.92974
 20
6.63639
 30
0.0
 40
0
 41
0
  0
VERTEX
  8
0
 10
7.90494
 20
6.64464
 30
0.0
 40
0
 41
0
  0
VERTEX
  8
0
 10
7.88021
 20
6.60335
 30
0.0
 40
0
 41
0
  0
VERTEX
  8
0
 10
7.86643
 20
6.60612
 30
0.0
 40
0
 41
0
  0
VERTEX
  8
0
 10
7.86643
 20
6.65565
 30
0.0
 40
0
 41
0
  0
VERTEX
  8
0
 10
7.84164
 20
6.67219
 30
0.0
 40
0
 41
0
  0
VERTEX
  8
0
 10
7.84261
 20
6.67426
 30
0.0
 40
0
 41
0
  0
VERTEX
  8
0
 10
7.84592
 20
6.68201
 30
0.0
 40
0
 41
0
  0
VERTEX
  8
0
 10
7.84717
 20
6.69119
 30
0.0
 40
0
 41
0
  0
VERTEX
  8
0
 10
7.84717
 20
6.69422
 30
0.0
 40
0
 41
0
  0
VERTEX
  8
0
 10
7.80035
 20
6.72174
 30
0.0
 40
0
 41
0
  0
VERTEX
  8
0
 10
7.84717
 20
6.7245
 30
0.0
 40
0
 41
0
  0
VERTEX
  8
0
 10
7.8719
 20
6.75754
 30
0.0
 40
0
 41
0
  0
VERTEX
  8
0
 10
7.88846
 20
6.74929
 30
0.0
 40
0
 41
0
  0
VERTEX
  8
0
 10
7.88846
 20
6.74929
 30
0.0
 40
0
 41
0
  0
VERTEX
  8
0
 10
7.89404
 20
6.75667
 30
0.0
 40
0
 41
0
  0
VERTEX
  8
0
 10
7.90657
 20
6.773
 30
0.0
 40
0
 41
0
  0
VERTEX
  8
0
 10
7.91971
 20
6.78988
 30
0.0
 40
0
 41
0
  0
VERTEX
  8
0
 10
7.92626
 20
6.79812
 30
0.0
 40
0
 41
0
  0
VERTEX
  8
0
 10
7.92703
 20
6.79883
 30
0.0
 40
0
 41
0
  0
SEQEND
 8
0
  0
POLYLINE
  8
0
 62
     0
 66
     1
 10
0
 20
0
 30
0.0
 70
     1
 40
0
 41
0
  0
VERTEX
  8
0
 10
7.53874
 20
6.77403
 30
0.0
 40
0
 41
0
  0
VERTEX
  8
0
 10
7.5415
 20
6.72726
 30
0.0
 40
0
 41
0
  0
VERTEX
  8
0
 10
7.60482
 20
6.65842
 30
0.0
 40
0
 41
0
  0
VERTEX
  8
0
 10
7.60221
 20
6.65582
 30
0.0
 40
0
 41
0
  0
VERTEX
  8
0
 10
7.58029
 20
6.65181
 30
0.0
 40
0
 41
0
  0
VERTEX
  8
0
 10
7.55735
 20
6.65294
 30
0.0
 40
0
 41
0
  0
VERTEX
  8
0
 10
7.54975
 20
6.65294
 30
0.0
 40
0
 41
0
  0
VERTEX
  8
0
 10
7.5415
 20
6.6199
 30
0.0
 40
0
 41
0
  0
VERTEX
  8
0
 10
7.52496
 20
6.62815
 30
0.0
 40
0
 41
0
  0
VERTEX
  8
0
 10
7.52496
 20
6.62815
 30
0.0
 40
0
 41
0
  0
VERTEX
  8
0
 10
7.51904
 20
6.62099
 30
0.0
 40
0
 41
0
  0
VERTEX
  8
0
 10
7.50538
 20
6.60444
 30
0.0
 40
0
 41
0
  0
VERTEX
  8
0
 10
7.48975
 20
6.58599
 30
0.0
 40
0
 41
0
  0
VERTEX
  8
0
 10
7.48068
 20
6.57563
 30
0.0
 40
0
 41
0
  0
VERTEX
  8
0
 10
7.47814
 20
6.57308
 30
0.0
 40
0
 41
0
  0
VERTEX
  8
0
 10
7.47874
 20
6.57617
 30
0.0
 40
0
 41
0
  0
VERTEX
  8
0
 10
7.48611
 20
6.61128
 30
0.0
 40
0
 41
0
  0
VERTEX
  8
0
 10
7.48643
 20
6.61436
 30
0.0
 40
0
 41
0
  0
VERTEX
  8
0
 10
7.4866
 20
6.61626
 30
0.0
 40
0
 41
0
  0
VERTEX
  8
0
 10
7.48643
 20
6.63346
 30
0.0
 40
0
 41
0
  0
VERTEX
  8
0
 10
7.48643
 20
6.63917
 30
0.0
 40
0
 41
0
  0
VERTEX
  8
0
 10
7.46164
 20
6.65565
 30
0.0
 40
0
 41
0
  0
VERTEX
  8
0
 10
7.46164
 20
6.68044
 30
0.0
 40
0
 41
0
  0
VERTEX
  8
0
 10
7.41758
 20
6.71072
 30
0.0
 40
0
 41
0
  0
VERTEX
  8
0
 10
7.41758
 20
6.71625
 30
0.0
 40
0
 41
0
  0
VERTEX
  8
0
 10
7.47542
 20
6.71625
 30
0.0
 40
0
 41
0
  0
VERTEX
  8
0
 10
7.48367
 20
6.74929
 30
0.0
 40
0
 41
0
  0
VERTEX
  8
0
 10
7.50017
 20
6.73275
 30
0.0
 40
0
 41
0
  0
VERTEX
  8
0
 10
7.50017
 20
6.73275
 30
0.0
 40
0
 41
0
  0
VERTEX
  8
0
 10
7.50581
 20
6.73888
 30
0.0
 40
0
 41
0
  0
VERTEX
  8
0
 10
7.51844
 20
6.75244
 30
0.0
 40
0
 41
0
  0
VERTEX
  8
0
 10
7.53157
 20
6.7665
 30
0.0
 40
0
 41
0
  0
VERTEX
  8
0
 10
7.53803
 20
6.77339
 30
0.0
 40
0
 41
0
  0
VERTEX
  8
0
 10
7.53874
 20
6.77403
 30
0.0
 40
0
 41
0
  0
SEQEND
 8
0
  0
POLYLINE
  8
0
 62
     0
 66
     1
 10
0
 20
0
 30
0.0
 70
     1
 40
0
 41
0
  0
VERTEX
  8
0
 10
8.24094
 20
6.55106
 30
0.0
 40
0
 41
0
  0
VERTEX
  8
0
 10
8.2354
 20
6.40517
 30
0.0
 40
0
 41
0
  0
VERTEX
  8
0
 10
8.24154
 20
6.40517
 30
0.0
 40
0
 41
0
  0
VERTEX
  8
0
 10
8.2601
 20
6.40739
 30
0.0
 40
0
 41
0
  0
VERTEX
  8
0
 10
8.28603
 20
6.41217
 30
0.0
 40
0
 41
0
  0
VERTEX
  8
0
 10
8.29324
 20
6.41342
 30
0.0
 40
0
 41
0
  0
VERTEX
  8
0
 10
8.25196
 20
6.38037
 30
0.0
 40
0
 41
0
  0
VERTEX
  8
0
 10
8.35932
 20
6.29779
 30
0.0
 40
0
 41
0
  0
VERTEX
  8
0
 10
8.35107
 20
6.2895
 30
0.0
 40
0
 41
0
  0
VERTEX
  8
0
 10
8.24365
 20
6.31429
 30
0.0
 40
0
 41
0
  0
VERTEX
  8
0
 10
8.22715
 20
6.29779
 30
0.0
 40
0
 41
0
  0
VERTEX
  8
0
 10
8.2354
 20
6.24821
 30
0.0
 40
0
 41
0
  0
VERTEX
  8
0
 10
8.19412
 20
6.2895
 30
0.0
 40
0
 41
0
  0
VERTEX
  8
0
 10
8.15283
 20
6.22071
 30
0.0
 40
0
 41
0
  0
VERTEX
  8
0
 10
8.15283
 20
6.22071
 30
0.0
 40
0
 41
0
  0
VERTEX
  8
0
 10
8.15022
 20
6.21647
 30
0.0
 40
0
 41
0
  0
VERTEX
  8
0
 10
8.14426
 20
6.20654
 30
0.0
 40
0
 41
0
  0
VERTEX
  8
0
 10
8.13743
 20
6.1951
 30
0.0
 40
0
 41
0
  0
VERTEX
  8
0
 10
8.13336
 20
6.18832
 30
0.0
 40
0
 41
0
  0
VERTEX
  8
0
 10
8.13217
 20
6.18631
 30
0.0
 40
0
 41
0
  0
VERTEX
  8
0
 10
8.13081
 20
6.18408
 30
0.0
 40
0
 41
0
  0
VERTEX
  8
0
 10
8.12506
 20
6.17378
 30
0.0
 40
0
 41
0
  0
VERTEX
  8
0
 10
8.11686
 20
6.16276
 30
0.0
 40
0
 41
0
  0
VERTEX
  8
0
 10
8.11426
 20
6.1601
 30
0.0
 40
0
 41
0
  0
VERTEX
  8
0
 10
8.11974
 20
6.31429
 30
0.0
 40
0
 41
0
  0
VERTEX
  8
0
 10
8.08122
 20
6.30881
 30
0.0
 40
0
 41
0
  0
VERTEX
  8
0
 10
8.10601
 20
6.34185
 30
0.0
 40
0
 41
0
  0
VERTEX
  8
0
 10
7.9821
 20
6.41618
 30
0.0
 40
0
 41
0
  0
VERTEX
  8
0
 10
8.00413
 20
6.42719
 30
0.0
 40
0
 41
0
  0
VERTEX
  8
0
 10
8.13075
 20
6.41618
 30
0.0
 40
0
 41
0
  0
VERTEX
  8
0
 10
8.12804
 20
6.47672
 30
0.0
 40
0
 41
0
  0
VERTEX
  8
0
 10
8.16108
 20
6.43544
 30
0.0
 40
0
 41
0
  0
VERTEX
  8
0
 10
8.16249
 20
6.43756
 30
0.0
 40
0
 41
0
  0
VERTEX
  8
0
 10
8.1805
 20
6.46386
 30
0.0
 40
0
 41
0
  0
VERTEX
  8
0
 10
8.18267
 20
6.46701
 30
0.0
 40
0
 41
0
  0
VERTEX
  8
0
 10
8.18267
 20
6.46701
 30
0.0
 40
0
 41
0
  0
VERTEX
  8
0
 10
8.18864
 20
6.47586
 30
0.0
 40
0
 41
0
  0
VERTEX
  8
0
 10
8.199
 20
6.491
 30
0.0
 40
0
 41
0
  0
VERTEX
  8
0
 10
8.20117
 20
6.49414
 30
0.0
 40
0
 41
0
  0
VERTEX
  8
0
 10
8.20247
 20
6.4961
 30
0.0
 40
0
 41
0
  0
VERTEX
  8
0
 10
8.20888
 20
6.50558
 30
0.0
 40
0
 41
0
  0
VERTEX
  8
0
 10
8.22114
 20
6.52365
 30
0.0
 40
0
 41
0
  0
VERTEX
  8
0
 10
8.23335
 20
6.54118
 30
0.0
 40
0
 41
0
  0
VERTEX
  8
0
 10
8.23969
 20
6.54986
 30
0.0
 40
0
 41
0
  0
VERTEX
  8
0
 10
8.24094
 20
6.55106
 30
0.0
 40
0
 41
0
  0
SEQEND
 8
0
  0
POLYLINE
  8
0
 62
     0
 66
     1
 10
0
 20
0
 30
0.0
 70
     1
 40
0
 41
0
  0
VERTEX
  8
0
 10
7.67914
 20
6.49322
 30
0.0
 40
0
 41
0
  0
VERTEX
  8
0
 10
7.69015
 20
6.47949
 30
0.0
 40
0
 41
0
  0
VERTEX
  8
0
 10
7.65712
 20
6.31429
 30
0.0
 40
0
 41
0
  0
VERTEX
  8
0
 10
7.67914
 20
6.29503
 30
0.0
 40
0
 41
0
  0
VERTEX
  8
0
 10
7.75629
 20
6.30604
 30
0.0
 40
0
 41
0
  0
VERTEX
  8
0
 10
7.69015
 20
6.25646
 30
0.0
 40
0
 41
0
  0
VERTEX
  8
0
 10
7.85542
 20
6.14908
 30
0.0
 40
0
 41
0
  0
VERTEX
  8
0
 10
7.84717
 20
6.14085
 30
0.0
 40
0
 41
0
  0
VERTEX
  8
0
 10
7.68192
 20
6.17389
 30
0.0
 40
0
 41
0
  0
VERTEX
  8
0
 10
7.65712
 20
6.15739
 30
0.0
 40
0
 41
0
  0
VERTEX
  8
0
 10
7.67367
 20
6.09956
 30
0.0
 40
0
 41
0
  0
VERTEX
  8
0
 10
7.66542
 20
6.09131
 30
0.0
 40
0
 41
0
  0
VERTEX
  8
0
 10
7.61583
 20
6.14085
 30
0.0
 40
0
 41
0
  0
VERTEX
  8
0
 10
7.53321
 20
5.99219
 30
0.0
 40
0
 41
0
  0
VERTEX
  8
0
 10
7.51947
 20
5.99496
 30
0.0
 40
0
 41
0
  0
VERTEX
  8
0
 10
7.52496
 20
6.17389
 30
0.0
 40
0
 41
0
  0
VERTEX
  8
0
 10
7.4534
 20
6.1601
 30
0.0
 40
0
 41
0
  0
VERTEX
  8
0
 10
7.50293
 20
6.20969
 30
0.0
 40
0
 41
0
  0
VERTEX
  8
0
 10
7.48367
 20
6.23996
 30
0.0
 40
0
 41
0
  0
VERTEX
  8
0
 10
7.34321
 20
6.31429
 30
0.0
 40
0
 41
0
  0
VERTEX
  8
0
 10
7.34321
 20
6.31982
 30
0.0
 40
0
 41
0
  0
VERTEX
  8
0
 10
7.52496
 20
6.29503
 30
0.0
 40
0
 41
0
  0
VERTEX
  8
0
 10
7.5415
 20
6.30328
 30
0.0
 40
0
 41
0
  0
VERTEX
  8
0
 10
7.5415
 20
6.3074
 30
0.0
 40
0
 41
0
  0
VERTEX
  8
0
 10
7.53976
 20
6.31976
 30
0.0
 40
0
 41
0
  0
VERTEX
  8
0
 10
7.53554
 20
6.34321
 30
0.0
 40
0
 41
0
  0
VERTEX
  8
0
 10
7.53017
 20
6.36942
 30
0.0
 40
0
 41
0
  0
VERTEX
  8
0
 10
7.52621
 20
6.38797
 30
0.0
 40
0
 41
0
  0
VERTEX
  8
0
 10
7.52496
 20
6.39415
 30
0.0
 40
0
 41
0
  0
VERTEX
  8
0
 10
7.58279
 20
6.33632
 30
0.0
 40
0
 41
0
  0
VERTEX
  8
0
 10
7.67914
 20
6.49322
 30
0.0
 40
0
 41
0
  0
SEQEND
 8
0
  0
POLYLINE
  8
0
 62
     0
 66
     1
 10
0
 20
0
 30
0.0
 70
     1
 40
0
 41
0
  0
VERTEX
  8
0
 10
7.06787
 20
6.42719
 30
0.0
 40
0
 41
0
  0
VERTEX
  8
0
 10
7.0541
 20
6.30604
 30
0.0
 40
0
 41
0
  0
VERTEX
  8
0
 10
7.06233
 20
6.2895
 30
0.0
 40
0
 41
0
  0
VERTEX
  8
0
 10
7.10092
 20
6.29503
 30
0.0
 40
0
 41
0
  0
VERTEX
  8
0
 10
7.11193
 20
6.28125
 30
0.0
 40
0
 41
0
  0
VERTEX
  8
0
 10
7.08713
 20
6.24821
 30
0.0
 40
0
 41
0
  0
VERTEX
  8
0
 10
7.21104
 20
6.17389
 30
0.0
 40
0
 41
0
  0
VERTEX
  8
0
 10
7.20281
 20
6.16564
 30
0.0
 40
0
 41
0
  0
VERTEX
  8
0
 10
7.19715
 20
6.16704
 30
0.0
 40
0
 41
0
  0
VERTEX
  8
0
 10
7.16683
 20
6.176
 30
0.0
 40
0
 41
0
  0
VERTEX
  8
0
 10
7.12972
 20
6.18213
 30
0.0
 40
0
 41
0
  0
VERTEX
  8
0
 10
7.1174
 20
6.18213
 30
0.0
 40
0
 41
0
  0
VERTEX
  8
0
 10
7.11257
 20
6.18213
 30
0.0
 40
0
 41
0
  0
VERTEX
  8
0
 10
7.10172
 20
6.18213
 30
0.0
 40
0
 41
0
  0
VERTEX
  8
0
 10
7.09814
 20
6.18213
 30
0.0
 40
0
 41
0
  0
VERTEX
  8
0
 10
7.09814
 20
6.18213
 30
0.0
 40
0
 41
0
  0
VERTEX
  8
0
 10
7.08203
 20
6.18213
 30
0.0
 40
0
 41
0
  0
VERTEX
  8
0
 10
7.06722
 20
6.18213
 30
0.0
 40
0
 41
0
  0
VERTEX
  8
0
 10
7.06233
 20
6.18213
 30
0.0
 40
0
 41
0
  0
VERTEX
  8
0
 10
7.07058
 20
6.12435
 30
0.0
 40
0
 41
0
  0
VERTEX
  8
0
 10
7.06511
 20
6.11882
 30
0.0
 40
0
 41
0
  0
VERTEX
  8
0
 10
7.02106
 20
6.15739
 30
0.0
 40
0
 41
0
  0
VERTEX
  8
0
 10
6.95497
 20
6.05003
 30
0.0
 40
0
 41
0
  0
VERTEX
  8
0
 10
6.94119
 20
6.05274
 30
0.0
 40
0
 41
0
  0
VERTEX
  8
0
 10
6.96599
 20
6.1684
 30
0.0
 40
0
 41
0
  0
VERTEX
  8
0
 10
6.94667
 20
6.19043
 30
0.0
 40
0
 41
0
  0
VERTEX
  8
0
 10
6.90815
 20
6.1849
 30
0.0
 40
0
 41
0
  0
VERTEX
  8
0
 10
6.93294
 20
6.21793
 30
0.0
 40
0
 41
0
  0
VERTEX
  8
0
 10
6.92193
 20
6.23996
 30
0.0
 40
0
 41
0
  0
VERTEX
  8
0
 10
6.80903
 20
6.29226
 30
0.0
 40
0
 41
0
  0
VERTEX
  8
0
 10
6.83931
 20
6.30328
 30
0.0
 40
0
 41
0
  0
VERTEX
  8
0
 10
6.96322
 20
6.29503
 30
0.0
 40
0
 41
0
  0
VERTEX
  8
0
 10
6.96322
 20
6.29932
 30
0.0
 40
0
 41
0
  0
VERTEX
  8
0
 10
6.96018
 20
6.31218
 30
0.0
 40
0
 41
0
  0
VERTEX
  8
0
 10
6.95449
 20
6.32503
 30
0.0
 40
0
 41
0
  0
VERTEX
  8
0
 10
6.95107
 20
6.3374
 30
0.0
 40
0
 41
0
  0
VERTEX
  8
0
 10
6.95324
 20
6.34939
 30
0.0
 40
0
 41
0
  0
VERTEX
  8
0
 10
6.95497
 20
6.35286
 30
0.0
 40
0
 41
0
  0
VERTEX
  8
0
 10
6.99625
 20
6.31153
 30
0.0
 40
0
 41
0
  0
VERTEX
  8
0
 10
6.99858
 20
6.31543
 30
0.0
 40
0
 41
0
  0
VERTEX
  8
0
 10
7.01047
 20
6.33529
 30
0.0
 40
0
 41
0
  0
VERTEX
  8
0
 10
7.03315
 20
6.37278
 30
0.0
 40
0
 41
0
  0
VERTEX
  8
0
 10
7.05528
 20
6.40858
 30
0.0
 40
0
 41
0
  0
VERTEX
  8
0
 10
7.06625
 20
6.42562
 30
0.0
 40
0
 41
0
  0
VERTEX
  8
0
 10
7.06787
 20
6.42719
 30
0.0
 40
0
 41
0
  0
SEQEND
 8
0
  0
POLYLINE
  8
0
 62
     0
 66
     1
 10
0
 20
0
 30
0.0
 70
     1
 40
0
 41
0
  0
VERTEX
  8
0
 10
7.66265
 20
5.86556
 30
0.0
 40
0
 41
0
  0
VERTEX
  8
0
 10
7.66265
 20
5.86556
 30
0.0
 40
0
 41
0
  0
VERTEX
  8
0
 10
7.66292
 20
5.85835
 30
0.0
 40
0
 41
0
  0
VERTEX
  8
0
 10
7.66351
 20
5.84233
 30
0.0
 40
0
 41
0
  0
VERTEX
  8
0
 10
7.66417
 20
5.82601
 30
0.0
 40
0
 41
0
  0
VERTEX
  8
0
 10
7.66444
 20
5.81825
 30
0.0
 40
0
 41
0
  0
VERTEX
  8
0
 10
7.6645
 20
5.81782
 30
0.0
 40
0
 41
0
  0
VERTEX
  8
0
 10
7.66456
 20
5.81603
 30
0.0
 40
0
 41
0
  0
VERTEX
  8
0
 10
7.66493
 20
5.79568
 30
0.0
 40
0
 41
0
  0
VERTEX
  8
0
 10
7.66542
 20
5.79394
 30
0.0
 40
0
 41
0
  0
VERTEX
  8
0
 10
7.66575
 20
5.79264
 30
0.0
 40
0
 41
0
  0
VERTEX
  8
0
 10
7.67301
 20
5.77869
 30
0.0
 40
0
 41
0
  0
VERTEX
  8
0
 10
7.67367
 20
5.77746
 30
0.0
 40
0
 41
0
  0
VERTEX
  8
0
 10
7.67871
 20
5.77746
 30
0.0
 40
0
 41
0
  0
VERTEX
  8
0
 10
7.69401
 20
5.77919
 30
0.0
 40
0
 41
0
  0
VERTEX
  8
0
 10
7.70871
 20
5.78228
 30
0.0
 40
0
 41
0
  0
VERTEX
  8
0
 10
7.71224
 20
5.78293
 30
0.0
 40
0
 41
0
  0
VERTEX
  8
0
 10
7.71001
 20
5.78076
 30
0.0
 40
0
 41
0
  0
VERTEX
  8
0
 10
7.7015
 20
5.76997
 30
0.0
 40
0
 41
0
  0
VERTEX
  8
0
 10
7.69254
 20
5.75629
 30
0.0
 40
0
 41
0
  0
VERTEX
  8
0
 10
7.69015
 20
5.75265
 30
0.0
 40
0
 41
0
  0
VERTEX
  8
0
 10
7.76178
 20
5.70861
 30
0.0
 40
0
 41
0
  0
VERTEX
  8
0
 10
7.75629
 20
5.70313
 30
0.0
 40
0
 41
0
  0
VERTEX
  8
0
 10
7.68192
 20
5.71137
 30
0.0
 40
0
 41
0
  0
VERTEX
  8
0
 10
7.68192
 20
5.71137
 30
0.0
 40
0
 41
0
  0
VERTEX
  8
0
 10
7.68121
 20
5.70557
 30
0.0
 40
0
 41
0
  0
VERTEX
  8
0
 10
7.67888
 20
5.69189
 30
0.0
 40
0
 41
0
  0
VERTEX
  8
0
 10
7.67464
 20
5.67626
 30
0.0
 40
0
 41
0
  0
VERTEX
  8
0
 10
7.67036
 20
5.66689
 30
0.0
 40
0
 41
0
  0
VERTEX
  8
0
 10
7.66812
 20
5.66461
 30
0.0
 40
0
 41
0
  0
VERTEX
  8
0
 10
7.64063
 20
5.68658
 30
0.0
 40
0
 41
0
  0
VERTEX
  8
0
 10
7.64063
 20
5.68658
 30
0.0
 40
0
 41
0
  0
VERTEX
  8
0
 10
7.63683
 20
5.68061
 30
0.0
 40
0
 41
0
  0
VERTEX
  8
0
 10
7.62853
 20
5.66726
 30
0.0
 40
0
 41
0
  0
VERTEX
  8
0
 10
7.62001
 20
5.65375
 30
0.0
 40
0
 41
0
  0
VERTEX
  8
0
 10
7.616
 20
5.64729
 30
0.0
 40
0
 41
0
  0
VERTEX
  8
0
 10
7.61583
 20
5.64697
 30
0.0
 40
0
 41
0
  0
VERTEX
  8
0
 10
7.61393
 20
5.64399
 30
0.0
 40
0
 41
0
  0
VERTEX
  8
0
 10
7.60607
 20
5.63058
 30
0.0
 40
0
 41
0
  0
VERTEX
  8
0
 10
7.59651
 20
5.61778
 30
0.0
 40
0
 41
0
  0
VERTEX
  8
0
 10
7.59381
 20
5.61501
 30
0.0
 40
0
 41
0
  0
VERTEX
  8
0
 10
7.5944
 20
5.62001
 30
0.0
 40
0
 41
0
  0
VERTEX
  8
0
 10
7.6001
 20
5.64811
 30
0.0
 40
0
 41
0
  0
VERTEX
  8
0
 10
7.60286
 20
5.67622
 30
0.0
 40
0
 41
0
  0
VERTEX
  8
0
 10
7.60206
 20
5.6811
 30
0.0
 40
0
 41
0
  0
VERTEX
  8
0
 10
7.60172
 20
5.68294
 30
0.0
 40
0
 41
0
  0
VERTEX
  8
0
 10
7.59185
 20
5.7015
 30
0.0
 40
0
 41
0
  0
VERTEX
  8
0
 10
7.59104
 20
5.70313
 30
0.0
 40
0
 41
0
  0
VERTEX
  8
0
 10
7.558
 20
5.70313
 30
0.0
 40
0
 41
0
  0
VERTEX
  8
0
 10
7.558
 20
5.706
 30
0.0
 40
0
 41
0
  0
VERTEX
  8
0
 10
7.56375
 20
5.71457
 30
0.0
 40
0
 41
0
  0
VERTEX
  8
0
 10
7.57465
 20
5.72771
 30
0.0
 40
0
 41
0
  0
VERTEX
  8
0
 10
7.57726
 20
5.73063
 30
0.0
 40
0
 41
0
  0
VERTEX
  8
0
 10
7.50017
 20
5.78569
 30
0.0
 40
0
 41
0
  0
VERTEX
  8
0
 10
7.50017
 20
5.79124
 30
0.0
 40
0
 41
0
  0
VERTEX
  8
0
 10
7.60206
 20
5.78847
 30
0.0
 40
0
 41
0
  0
VERTEX
  8
0
 10
7.60081
 20
5.79215
 30
0.0
 40
0
 41
0
  0
VERTEX
  8
0
 10
7.59581
 20
5.80588
 30
0.0
 40
0
 41
0
  0
VERTEX
  8
0
 10
7.59733
 20
5.82026
 30
0.0
 40
0
 41
0
  0
VERTEX
  8
0
 10
7.59933
 20
5.82428
 30
0.0
 40
0
 41
0
  0
VERTEX
  8
0
 10
7.62408
 20
5.79949
 30
0.0
 40
0
 41
0
  0
VERTEX
  8
0
 10
7.66265
 20
5.86556
 30
0.0
 40
0
 41
0
  0
SEQEND
 8
0
  0
POLYLINE
  8
0
 62
     0
 66
     1
 10
0
 20
0
 30
0.0
 70
     1
 40
0
 41
0
  0
VERTEX
  8
0
 10
6.53917
 20
5.44433
 30
0.0
 40
0
 41
0
  0
VERTEX
  8
0
 10
6.55018
 20
5.41407
 30
0.0
 40
0
 41
0
  0
VERTEX
  8
0
 10
6.54893
 20
5.40972
 30
0.0
 40
0
 41
0
  0
VERTEX
  8
0
 10
6.54096
 20
5.38536
 30
0.0
 40
0
 41
0
  0
VERTEX
  8
0
 10
6.53424
 20
5.36074
 30
0.0
 40
0
 41
0
  0
VERTEX
  8
0
 10
6.53364
 20
5.35622
 30
0.0
 40
0
 41
0
  0
VERTEX
  8
0
 10
6.53326
 20
5.35379
 30
0.0
 40
0
 41
0
  0
VERTEX
  8
0
 10
6.53364
 20
5.33083
 30
0.0
 40
0
 41
0
  0
VERTEX
  8
0
 10
6.53364
 20
5.32319
 30
0.0
 40
0
 41
0
  0
VERTEX
  8
0
 10
6.53364
 20
5.32319
 30
0.0
 40
0
 41
0
  0
VERTEX
  8
0
 10
6.54058
 20
5.32362
 30
0.0
 40
0
 41
0
  0
VERTEX
  8
0
 10
6.55772
 20
5.32357
 30
0.0
 40
0
 41
0
  0
VERTEX
  8
0
 10
6.57932
 20
5.32129
 30
0.0
 40
0
 41
0
  0
VERTEX
  8
0
 10
6.595
 20
5.31733
 30
0.0
 40
0
 41
0
  0
VERTEX
  8
0
 10
6.59972
 20
5.31494
 30
0.0
 40
0
 41
0
  0
VERTEX
  8
0
 10
6.55843
 20
5.27365
 30
0.0
 40
0
 41
0
  0
VERTEX
  8
0
 10
6.66581
 20
5.19933
 30
0.0
 40
0
 41
0
  0
VERTEX
  8
0
 10
6.65756
 20
5.19103
 30
0.0
 40
0
 41
0
  0
VERTEX
  8
0
 10
6.65256
 20
5.19228
 30
0.0
 40
0
 41
0
  0
VERTEX
  8
0
 10
6.62468
 20
5.20025
 30
0.0
 40
0
 41
0
  0
VERTEX
  8
0
 10
6.59651
 20
5.20697
 30
0.0
 40
0
 41
0
  0
VERTEX
  8
0
 10
6.59147
 20
5.20757
 30
0.0
 40
0
 41
0
  0
VERTEX
  8
0
 10
6.58778
 20
5.20806
 30
0.0
 40
0
 41
0
  0
VERTEX
  8
0
 10
6.55333
 20
5.20757
 30
0.0
 40
0
 41
0
  0
VERTEX
  8
0
 10
6.54189
 20
5.20757
 30
0.0
 40
0
 41
0
  0
VERTEX
  8
0
 10
6.54189
 20
5.14974
 30
0.0
 40
0
 41
0
  0
VERTEX
  8
0
 10
6.5006
 20
5.19103
 30
0.0
 40
0
 41
0
  0
VERTEX
  8
0
 10
6.43451
 20
5.07542
 30
0.0
 40
0
 41
0
  0
VERTEX
  8
0
 10
6.42074
 20
5.07818
 30
0.0
 40
0
 41
0
  0
VERTEX
  8
0
 10
6.43451
 20
5.21582
 30
0.0
 40
0
 41
0
  0
VERTEX
  8
0
 10
6.38493
 20
5.19103
 30
0.0
 40
0
 41
0
  0
VERTEX
  8
0
 10
6.37115
 20
5.20204
 30
0.0
 40
0
 41
0
  0
VERTEX
  8
0
 10
6.41249
 20
5.24338
 30
0.0
 40
0
 41
0
  0
VERTEX
  8
0
 10
6.30507
 20
5.3094
 30
0.0
 40
0
 41
0
  0
VERTEX
  8
0
 10
6.41797
 20
5.30393
 30
0.0
 40
0
 41
0
  0
VERTEX
  8
0
 10
6.43728
 20
5.32596
 30
0.0
 40
0
 41
0
  0
VERTEX
  8
0
 10
6.43451
 20
5.37001
 30
0.0
 40
0
 41
0
  0
VERTEX
  8
0
 10
6.46756
 20
5.32872
 30
0.0
 40
0
 41
0
  0
VERTEX
  8
0
 10
6.53917
 20
5.44433
 30
0.0
 40
0
 41
0
  0
SEQEND
 8
0
  0
POLYLINE
  8
0
 62
     0
 66
     1
 10
0
 20
0
 30
0.0
 70
     1
 40
0
 41
0
  0
VERTEX
  8
0
 10
6.82829
 20
5.00662
 30
0.0
 40
0
 41
0
  0
VERTEX
  8
0
 10
6.82844
 20
5.00315
 30
0.0
 40
0
 41
0
  0
VERTEX
  8
0
 10
6.8284
 20
4.98301
 30
0.0
 40
0
 41
0
  0
VERTEX
  8
0
 10
6.82997
 20
4.96317
 30
0.0
 40
0
 41
0
  0
VERTEX
  8
0
 10
6.83106
 20
4.95979
 30
0.0
 40
0
 41
0
  0
VERTEX
  8
0
 10
6.83208
 20
4.95638
 30
0.0
 40
0
 41
0
  0
VERTEX
  8
0
 10
6.84218
 20
4.93864
 30
0.0
 40
0
 41
0
  0
VERTEX
  8
0
 10
6.85389
 20
4.9216
 30
0.0
 40
0
 41
0
  0
VERTEX
  8
0
 10
6.85579
 20
4.91851
 30
0.0
 40
0
 41
0
  0
VERTEX
  8
0
 10
6.92193
 20
4.87722
 30
0.0
 40
0
 41
0
  0
VERTEX
  8
0
 10
6.91363
 20
4.86893
 30
0.0
 40
0
 41
0
  0
VERTEX
  8
0
 10
6.91054
 20
4.86957
 30
0.0
 40
0
 41
0
  0
VERTEX
  8
0
 10
6.87549
 20
4.87696
 30
0.0
 40
0
 41
0
  0
VERTEX
  8
0
 10
6.87235
 20
4.87722
 30
0.0
 40
0
 41
0
  0
VERTEX
  8
0
 10
6.86985
 20
4.8775
 30
0.0
 40
0
 41
0
  0
VERTEX
  8
0
 10
6.8469
 20
4.87722
 30
0.0
 40
0
 41
0
  0
VERTEX
  8
0
 10
6.83931
 20
4.87722
 30
0.0
 40
0
 41
0
  0
VERTEX
  8
0
 10
6.83931
 20
4.84418
 30
0.0
 40
0
 41
0
  0
VERTEX
  8
0
 10
6.81451
 20
4.86068
 30
0.0
 40
0
 41
0
  0
VERTEX
  8
0
 10
6.81451
 20
4.86068
 30
0.0
 40
0
 41
0
  0
VERTEX
  8
0
 10
6.80865
 20
4.85487
 30
0.0
 40
0
 41
0
  0
VERTEX
  8
0
 10
6.79568
 20
4.8419
 30
0.0
 40
0
 41
0
  0
VERTEX
  8
0
 10
6.7825
 20
4.82872
 30
0.0
 40
0
 41
0
  0
VERTEX
  8
0
 10
6.77626
 20
4.82249
 30
0.0
 40
0
 41
0
  0
VERTEX
  8
0
 10
6.77599
 20
4.82215
 30
0.0
 40
0
 41
0
  0
VERTEX
  8
0
 10
6.77599
 20
4.8284
 30
0.0
 40
0
 41
0
  0
VERTEX
  8
0
 10
6.77724
 20
4.84711
 30
0.0
 40
0
 41
0
  0
VERTEX
  8
0
 10
6.77681
 20
4.86811
 30
0.0
 40
0
 41
0
  0
VERTEX
  8
0
 10
6.77599
 20
4.87169
 30
0.0
 40
0
 41
0
  0
VERTEX
  8
0
 10
6.77522
 20
4.87483
 30
0.0
 40
0
 41
0
  0
VERTEX
  8
0
 10
6.76736
 20
4.89139
 30
0.0
 40
0
 41
0
  0
VERTEX
  8
0
 10
6.75808
 20
4.90739
 30
0.0
 40
0
 41
0
  0
VERTEX
  8
0
 10
6.75667
 20
4.91026
 30
0.0
 40
0
 41
0
  0
VERTEX
  8
0
 10
6.70985
 20
4.92953
 30
0.0
 40
0
 41
0
  0
VERTEX
  8
0
 10
6.76492
 20
4.94054
 30
0.0
 40
0
 41
0
  0
VERTEX
  8
0
 10
6.82829
 20
5.00662
 30
0.0
 40
0
 41
0
  0
SEQEND
 8
0
  0
POLYLINE
  8
0
 62
     0
 66
     1
 10
0
 20
0
 30
0.0
 70
     1
 40
0
 41
0
  0
VERTEX
  8
0
 10
6.77869
 20
4.51107
 30
0.0
 40
0
 41
0
  0
VERTEX
  8
0
 10
6.78971
 20
4.49729
 30
0.0
 40
0
 41
0
  0
VERTEX
  8
0
 10
6.78147
 20
4.43946
 30
0.0
 40
0
 41
0
  0
VERTEX
  8
0
 10
6.81451
 20
4.42296
 30
0.0
 40
0
 41
0
  0
VERTEX
  8
0
 10
6.79801
 20
4.40642
 30
0.0
 40
0
 41
0
  0
VERTEX
  8
0
 10
6.8641
 20
4.35688
 30
0.0
 40
0
 41
0
  0
VERTEX
  8
0
 10
6.8641
 20
4.35688
 30
0.0
 40
0
 41
0
  0
VERTEX
  8
0
 10
6.85504
 20
4.35688
 30
0.0
 40
0
 41
0
  0
VERTEX
  8
0
 10
6.83311
 20
4.35688
 30
0.0
 40
0
 41
0
  0
VERTEX
  8
0
 10
6.80599
 20
4.35688
 30
0.0
 40
0
 41
0
  0
VERTEX
  8
0
 10
6.7876
 20
4.35688
 30
0.0
 40
0
 41
0
  0
VERTEX
  8
0
 10
6.78147
 20
4.35688
 30
0.0
 40
0
 41
0
  0
VERTEX
  8
0
 10
6.77322
 20
4.32383
 30
0.0
 40
0
 41
0
  0
VERTEX
  8
0
 10
6.74843
 20
4.33208
 30
0.0
 40
0
 41
0
  0
VERTEX
  8
0
 10
6.71539
 20
4.27431
 30
0.0
 40
0
 41
0
  0
VERTEX
  8
0
 10
6.70161
 20
4.28532
 30
0.0
 40
0
 41
0
  0
VERTEX
  8
0
 10
6.70161
 20
4.28532
 30
0.0
 40
0
 41
0
  0
VERTEX
  8
0
 10
6.70313
 20
4.29113
 30
0.0
 40
0
 41
0
  0
VERTEX
  8
0
 10
6.70649
 20
4.30399
 30
0.0
 40
0
 41
0
  0
VERTEX
  8
0
 10
6.71001
 20
4.31733
 30
0.0
 40
0
 41
0
  0
VERTEX
  8
0
 10
6.71175
 20
4.32389
 30
0.0
 40
0
 41
0
  0
VERTEX
  8
0
 10
6.71192
 20
4.32454
 30
0.0
 40
0
 41
0
  0
VERTEX
  8
0
 10
6.71257
 20
4.3271
 30
0.0
 40
0
 41
0
  0
VERTEX
  8
0
 10
6.71463
 20
4.33589
 30
0.0
 40
0
 41
0
  0
VERTEX
  8
0
 10
6.71539
 20
4.34549
 30
0.0
 40
0
 41
0
  0
VERTEX
  8
0
 10
6.71539
 20
4.34864
 30
0.0
 40
0
 41
0
  0
VERTEX
  8
0
 10
6.71414
 20
4.34928
 30
0.0
 40
0
 41
0
  0
VERTEX
  8
0
 10
6.70019
 20
4.3571
 30
0.0
 40
0
 41
0
  0
VERTEX
  8
0
 10
6.69883
 20
4.35688
 30
0.0
 40
0
 41
0
  0
VERTEX
  8
0
 10
6.69797
 20
4.35678
 30
0.0
 40
0
 41
0
  0
VERTEX
  8
0
 10
6.69119
 20
4.34928
 30
0.0
 40
0
 41
0
  0
VERTEX
  8
0
 10
6.6906
 20
4.34864
 30
0.0
 40
0
 41
0
  0
VERTEX
  8
0
 10
6.67681
 20
4.35965
 30
0.0
 40
0
 41
0
  0
VERTEX
  8
0
 10
6.68511
 20
4.37614
 30
0.0
 40
0
 41
0
  0
VERTEX
  8
0
 10
6.63276
 20
4.42296
 30
0.0
 40
0
 41
0
  0
VERTEX
  8
0
 10
6.63276
 20
4.42844
 30
0.0
 40
0
 41
0
  0
VERTEX
  8
0
 10
6.6906
 20
4.42019
 30
0.0
 40
0
 41
0
  0
VERTEX
  8
0
 10
6.72364
 20
4.45324
 30
0.0
 40
0
 41
0
  0
VERTEX
  8
0
 10
6.73188
 20
4.44499
 30
0.0
 40
0
 41
0
  0
VERTEX
  8
0
 10
6.77869
 20
4.51107
 30
0.0
 40
0
 41
0
  0
SEQEND
 8
0
  0
POLYLINE
  8
0
 62
     0
 66
     1
 10
0
 20
0
 30
0.0
 70
     1
 40
0
 41
0
  0
VERTEX
  8
0
 10
6.91917
 20
3.91639
 30
0.0
 40
0
 41
0
  0
VERTEX
  8
0
 10
6.93018
 20
3.90261
 30
0.0
 40
0
 41
0
  0
VERTEX
  8
0
 10
6.91363
 20
3.82004
 30
0.0
 40
0
 41
0
  0
VERTEX
  8
0
 10
6.93565
 20
3.77599
 30
0.0
 40
0
 41
0
  0
VERTEX
  8
0
 10
6.97971
 20
3.77875
 30
0.0
 40
0
 41
0
  0
VERTEX
  8
0
 10
6.93842
 20
3.73747
 30
0.0
 40
0
 41
0
  0
VERTEX
  8
0
 10
7.04585
 20
3.67139
 30
0.0
 40
0
 41
0
  0
VERTEX
  8
0
 10
6.92193
 20
3.67964
 30
0.0
 40
0
 41
0
  0
VERTEX
  8
0
 10
6.92193
 20
3.61356
 30
0.0
 40
0
 41
0
  0
VERTEX
  8
0
 10
6.87235
 20
3.6466
 30
0.0
 40
0
 41
0
  0
VERTEX
  8
0
 10
6.81451
 20
3.54747
 30
0.0
 40
0
 41
0
  0
VERTEX
  8
0
 10
6.80072
 20
3.55849
 30
0.0
 40
0
 41
0
  0
VERTEX
  8
0
 10
6.80197
 20
3.56472
 30
0.0
 40
0
 41
0
  0
VERTEX
  8
0
 10
6.81087
 20
3.60385
 30
0.0
 40
0
 41
0
  0
VERTEX
  8
0
 10
6.81728
 20
3.65039
 30
0.0
 40
0
 41
0
  0
VERTEX
  8
0
 10
6.81728
 20
3.66585
 30
0.0
 40
0
 41
0
  0
VERTEX
  8
0
 10
6.74843
 20
3.66308
 30
0.0
 40
0
 41
0
  0
VERTEX
  8
0
 10
6.74843
 20
3.66547
 30
0.0
 40
0
 41
0
  0
VERTEX
  8
0
 10
6.75256
 20
3.67247
 30
0.0
 40
0
 41
0
  0
VERTEX
  8
0
 10
6.76243
 20
3.68457
 30
0.0
 40
0
 41
0
  0
VERTEX
  8
0
 10
6.77425
 20
3.69694
 30
0.0
 40
0
 41
0
  0
VERTEX
  8
0
 10
6.78179
 20
3.70454
 30
0.0
 40
0
 41
0
  0
VERTEX
  8
0
 10
6.78424
 20
3.70714
 30
0.0
 40
0
 41
0
  0
VERTEX
  8
0
 10
6.68511
 20
3.78147
 30
0.0
 40
0
 41
0
  0
VERTEX
  8
0
 10
6.6906
 20
3.79249
 30
0.0
 40
0
 41
0
  0
VERTEX
  8
0
 10
6.81451
 20
3.78424
 30
0.0
 40
0
 41
0
  0
VERTEX
  8
0
 10
6.81451
 20
3.78657
 30
0.0
 40
0
 41
0
  0
VERTEX
  8
0
 10
6.81451
 20
3.7934
 30
0.0
 40
0
 41
0
  0
VERTEX
  8
0
 10
6.81451
 20
3.81028
 30
0.0
 40
0
 41
0
  0
VERTEX
  8
0
 10
6.81451
 20
3.82656
 30
0.0
 40
0
 41
0
  0
VERTEX
  8
0
 10
6.81451
 20
3.83382
 30
0.0
 40
0
 41
0
  0
VERTEX
  8
0
 10
6.81451
 20
3.83382
 30
0.0
 40
0
 41
0
  0
VERTEX
  8
0
 10
6.84754
 20
3.80078
 30
0.0
 40
0
 41
0
  0
VERTEX
  8
0
 10
6.91917
 20
3.91639
 30
0.0
 40
0
 41
0
  0
SEQEND
 8
0
  0
POLYLINE
  8
0
 62
     0
 66
     1
 10
0
 20
0
 30
0.0
 70
     1
 40
0
 41
0
  0
VERTEX
  8
0
 10
7.41482
 20
3.7595
 30
0.0
 40
0
 41
0
  0
VERTEX
  8
0
 10
7.41758
 20
3.70443
 30
0.0
 40
0
 41
0
  0
VERTEX
  8
0
 10
7.4809
 20
3.62733
 30
0.0
 40
0
 41
0
  0
VERTEX
  8
0
 10
7.47868
 20
3.62511
 30
0.0
 40
0
 41
0
  0
VERTEX
  8
0
 10
7.46181
 20
3.62125
 30
0.0
 40
0
 41
0
  0
VERTEX
  8
0
 10
7.44097
 20
3.62181
 30
0.0
 40
0
 41
0
  0
VERTEX
  8
0
 10
7.43408
 20
3.62181
 30
0.0
 40
0
 41
0
  0
VERTEX
  8
0
 10
7.42583
 20
3.58876
 30
0.0
 40
0
 41
0
  0
VERTEX
  8
0
 10
7.40104
 20
3.60531
 30
0.0
 40
0
 41
0
  0
VERTEX
  8
0
 10
7.40104
 20
3.60531
 30
0.0
 40
0
 41
0
  0
VERTEX
  8
0
 10
7.39492
 20
3.59793
 30
0.0
 40
0
 41
0
  0
VERTEX
  8
0
 10
7.38081
 20
3.581
 30
0.0
 40
0
 41
0
  0
VERTEX
  8
0
 10
7.36513
 20
3.56244
 30
0.0
 40
0
 41
0
  0
VERTEX
  8
0
 10
7.35633
 20
3.5524
 30
0.0
 40
0
 41
0
  0
VERTEX
  8
0
 10
7.35422
 20
3.55024
 30
0.0
 40
0
 41
0
  0
VERTEX
  8
0
 10
7.35482
 20
3.55274
 30
0.0
 40
0
 41
0
  0
VERTEX
  8
0
 10
7.36219
 20
3.58078
 30
0.0
 40
0
 41
0
  0
VERTEX
  8
0
 10
7.36253
 20
3.58328
 30
0.0
 40
0
 41
0
  0
VERTEX
  8
0
 10
7.36274
 20
3.58512
 30
0.0
 40
0
 41
0
  0
VERTEX
  8
0
 10
7.36253
 20
3.60238
 30
0.0
 40
0
 41
0
  0
VERTEX
  8
0
 10
7.36253
 20
3.60807
 30
0.0
 40
0
 41
0
  0
VERTEX
  8
0
 10
7.32943
 20
3.62457
 30
0.0
 40
0
 41
0
  0
VERTEX
  8
0
 10
7.33008
 20
3.62549
 30
0.0
 40
0
 41
0
  0
VERTEX
  8
0
 10
7.33729
 20
3.63525
 30
0.0
 40
0
 41
0
  0
VERTEX
  8
0
 10
7.34321
 20
3.64996
 30
0.0
 40
0
 41
0
  0
VERTEX
  8
0
 10
7.34321
 20
3.65483
 30
0.0
 40
0
 41
0
  0
VERTEX
  8
0
 10
7.30192
 20
3.67964
 30
0.0
 40
0
 41
0
  0
VERTEX
  8
0
 10
7.30192
 20
3.68511
 30
0.0
 40
0
 41
0
  0
VERTEX
  8
0
 10
7.35146
 20
3.68511
 30
0.0
 40
0
 41
0
  0
VERTEX
  8
0
 10
7.368
 20
3.7099
 30
0.0
 40
0
 41
0
  0
VERTEX
  8
0
 10
7.37625
 20
3.70167
 30
0.0
 40
0
 41
0
  0
VERTEX
  8
0
 10
7.41482
 20
3.7595
 30
0.0
 40
0
 41
0
  0
SEQEND
 8
0
  0
POLYLINE
  8
0
 62
     0
 66
     1
 10
0
 20
0
 30
0.0
 70
     1
 40
0.283465
 41
0.283465
  0
VERTEX
  8
0
 10
4.06082
 20
10.1686
 30
0.0
 40
0.00393701
 41
0.00393701
  0
VERTEX
  8
0
 10
4.09386
 20
10.1686
 30
0.0
 40
0.00393701
 41
0.00393701
  0
VERTEX
  8
0
 10
4.25082
 20
10.0282
 30
0.0
 40
0.00393701
 41
0.00393701
  0
VERTEX
  8
0
 10
4.27436
 20
10.0034
 30
0.0
 40
0.00393701
 41
0.00393701
  0
VERTEX
  8
0
 10
4.4089
 20
9.86404
 30
0.0
 40
0.00393701
 41
0.00393701
  0
VERTEX
  8
0
 10
4.54194
 20
9.72331
 30
0.0
 40
0.00393701
 41
0.00393701
  0
VERTEX
  8
0
 10
4.56478
 20
9.69781
 30
0.0
 40
0.00393701
 41
0.00393701
  0
VERTEX
  8
0
 10
4.58529
 20
9.67492
 30
0.0
 40
0.00393701
 41
0.00393701
  0
VERTEX
  8
0
 10
4.69797
 20
9.54178
 30
0.0
 40
0.00393701
 41
0.00393701
  0
VERTEX
  8
0
 10
4.80925
 20
9.4075
 30
0.0
 40
0.00393701
 41
0.00393701
  0
VERTEX
  8
0
 10
4.8291
 20
9.38396
 30
0.0
 40
0.00393701
 41
0.00393701
  0
VERTEX
  8
0
 10
4.83404
 20
9.37739
 30
0.0
 40
0.00393701
 41
0.00393701
  0
VERTEX
  8
0
 10
4.85792
 20
9.34565
 30
0.0
 40
0.00393701
 41
0.00393701
  0
VERTEX
  8
0
 10
4.92215
 20
9.26025
 30
0.0
 40
0.00393701
 41
0.00393701
  0
VERTEX
  8
0
 10
5.01058
 20
9.14279
 30
0.0
 40
0.00393701
 41
0.00393701
  0
VERTEX
  8
0
 10
5.11208
 20
9.00803
 30
0.0
 40
0.00393701
 41
0.00393701
  0
VERTEX
  8
0
 10
5.2156
 20
8.87088
 30
0.0
 40
0.00393701
 41
0.00393701
  0
VERTEX
  8
0
 10
5.30994
 20
8.74621
 30
0.0
 40
0.00393701
 41
0.00393701
  0
VERTEX
  8
0
 10
5.384
 20
8.64893
 30
0.0
 40
0.00393701
 41
0.00393701
  0
VERTEX
  8
0
 10
5.41575
 20
8.60742
 30
0.0
 40
0.00393701
 41
0.00393701
  0
VERTEX
  8
0
 10
5.42665
 20
8.59381
 30
0.0
 40
0.00393701
 41
0.00393701
  0
VERTEX
  8
0
 10
5.42665
 20
8.59381
 30
0.0
 40
0.00393701
 41
0.00393701
  0
VERTEX
  8
0
 10
5.43674
 20
8.59082
 30
0.0
 40
0.00393701
 41
0.00393701
  0
VERTEX
  8
0
 10
5.46306
 20
8.58421
 30
0.0
 40
0.00393701
 41
0.00393701
  0
VERTEX
  8
0
 10
5.49935
 20
8.57758
 30
0.0
 40
0.00393701
 41
0.00393701
  0
VERTEX
  8
0
 10
5.52946
 20
8.57454
 30
0.0
 40
0.00393701
 41
0.00393701
  0
VERTEX
  8
0
 10
5.53956
 20
8.57454
 30
0.0
 40
0.00393701
 41
0.00393701
  0
VERTEX
  8
0
 10
5.53922
 20
8.57915
 30
0.0
 40
0.00393701
 41
0.00393701
  0
VERTEX
  8
0
 10
5.53733
 20
8.62532
 30
0.0
 40
0.00393701
 41
0.00393701
  0
VERTEX
  8
0
 10
5.53358
 20
8.71907
 30
0.0
 40
0.00393701
 41
0.00393701
  0
VERTEX
  8
0
 10
5.53006
 20
8.8094
 30
0.0
 40
0.00393701
 41
0.00393701
  0
VERTEX
  8
0
 10
5.52854
 20
8.84983
 30
0.0
 40
0.00393701
 41
0.00393701
  0
VERTEX
  8
0
 10
5.52854
 20
8.84983
 30
0.0
 40
0.00393701
 41
0.00393701
  0
VERTEX
  8
0
 10
5.61117
 20
8.97374
 30
0.0
 40
0.00393701
 41
0.00393701
  0
VERTEX
  8
0
 10
5.61436
 20
8.98497
 30
0.0
 40
0.00393701
 41
0.00393701
  0
VERTEX
  8
0
 10
5.62549
 20
9.01818
 30
0.0
 40
0.00393701
 41
0.00393701
  0
VERTEX
  8
0
 10
5.64117
 20
9.05404
 30
0.0
 40
0.00393701
 41
0.00393701
  0
VERTEX
  8
0
 10
5.65935
 20
9.08268
 30
0.0
 40
0.00393701
 41
0.00393701
  0
VERTEX
  8
0
 10
5.68126
 20
9.10568
 30
0.0
 40
0.00393701
 41
0.00393701
  0
VERTEX
  8
0
 10
5.70796
 20
9.12435
 30
0.0
 40
0.00393701
 41
0.00393701
  0
VERTEX
  8
0
 10
5.74061
 20
9.14025
 30
0.0
 40
0.00393701
 41
0.00393701
  0
VERTEX
  8
0
 10
5.78049
 20
9.15468
 30
0.0
 40
0.00393701
 41
0.00393701
  0
VERTEX
  8
0
 10
5.81657
 20
9.16581
 30
0.0
 40
0.00393701
 41
0.00393701
  0
VERTEX
  8
0
 10
5.82867
 20
9.16922
 30
0.0
 40
0.00393701
 41
0.00393701
  0
VERTEX
  8
0
 10
5.84364
 20
9.16818
 30
0.0
 40
0.00393701
 41
0.00393701
  0
VERTEX
  8
0
 10
5.88857
 20
9.16461
 30
0.0
 40
0.00393701
 41
0.00393701
  0
VERTEX
  8
0
 10
5.95296
 20
9.15494
 30
0.0
 40
0.00393701
 41
0.00393701
  0
VERTEX
  8
0
 10
6.02746
 20
9.1339
 30
0.0
 40
0.00393701
 41
0.00393701
  0
VERTEX
  8
0
 10
6.09586
 20
9.1059
 30
0.0
 40
0.00393701
 41
0.00393701
  0
VERTEX
  8
0
 10
6.11783
 20
9.09489
 30
0.0
 40
0.00393701
 41
0.00393701
  0
VERTEX
  8
0
 10
6.17014
 20
8.98199
 30
0.0
 40
0.00393701
 41
0.00393701
  0
VERTEX
  8
0
 10
6.17242
 20
8.98118
 30
0.0
 40
0.00393701
 41
0.00393701
  0
VERTEX
  8
0
 10
6.18576
 20
8.97743
 30
0.0
 40
0.00393701
 41
0.00393701
  0
VERTEX
  8
0
 10
6.19851
 20
8.97244
 30
0.0
 40
0.00393701
 41
0.00393701
  0
VERTEX
  8
0
 10
6.20047
 20
8.97097
 30
0.0
 40
0.00393701
 41
0.00393701
  0
VERTEX
  8
0
 10
6.2029
 20
8.96912
 30
0.0
 40
0.00393701
 41
0.00393701
  0
VERTEX
  8
0
 10
6.21376
 20
8.95546
 30
0.0
 40
0.00393701
 41
0.00393701
  0
VERTEX
  8
0
 10
6.22331
 20
8.94043
 30
0.0
 40
0.00393701
 41
0.00393701
  0
VERTEX
  8
0
 10
6.22521
 20
8.93793
 30
0.0
 40
0.00393701
 41
0.00393701
  0
VERTEX
  8
0
 10
6.22797
 20
8.87463
 30
0.0
 40
0.00393701
 41
0.00393701
  0
VERTEX
  8
0
 10
6.22797
 20
8.87463
 30
0.0
 40
0.00393701
 41
0.00393701
  0
VERTEX
  8
0
 10
6.22265
 20
8.85969
 30
0.0
 40
0.00393701
 41
0.00393701
  0
VERTEX
  8
0
 10
6.21035
 20
8.82383
 30
0.0
 40
0.00393701
 41
0.00393701
  0
VERTEX
  8
0
 10
6.19656
 20
8.78033
 30
0.0
 40
0.00393701
 41
0.00393701
  0
VERTEX
  8
0
 10
6.18858
 20
8.75206
 30
0.0
 40
0.00393701
 41
0.00393701
  0
VERTEX
  8
0
 10
6.18668
 20
8.74246
 30
0.0
 40
0.00393701
 41
0.00393701
  0
VERTEX
  8
0
 10
6.26654
 20
8.73144
 30
0.0
 40
0.00393701
 41
0.00393701
  0
VERTEX
  8
0
 10
6.47304
 20
8.63238
 30
0.0
 40
0.00393701
 41
0.00393701
  0
VERTEX
  8
0
 10
6.50336
 20
8.64339
 30
0.0
 40
0.00393701
 41
0.00393701
  0
VERTEX
  8
0
 10
6.52339
 20
8.66922
 30
0.0
 40
0.00393701
 41
0.00393701
  0
VERTEX
  8
0
 10
6.6359
 20
8.81629
 30
0.0
 40
0.00393701
 41
0.00393701
  0
VERTEX
  8
0
 10
6.74972
 20
8.96224
 30
0.0
 40
0.00393701
 41
0.00393701
  0
VERTEX
  8
0
 10
6.77046
 20
8.98753
 30
0.0
 40
0.00393701
 41
0.00393701
  0
VERTEX
  8
0
 10
6.79161
 20
9.0134
 30
0.0
 40
0.00393701
 41
0.00393701
  0
VERTEX
  8
0
 10
6.8565
 20
9.09006
 30
0.0
 40
0.00393701
 41
0.00393701
  0
VERTEX
  8
0
 10
6.95096
 20
9.19917
 30
0.0
 40
0.00393701
 41
0.00393701
  0
VERTEX
  8
0
 10
7.04601
 20
9.30778
 30
0.0
 40
0.00393701
 41
0.00393701
  0
VERTEX
  8
0
 10
7.11208
 20
9.3834
 30
0.0
 40
0.00393701
 41
0.00393701
  0
VERTEX
  8
0
 10
7.13396
 20
9.40875
 30
0.0
 40
0.00393701
 41
0.00393701
  0
VERTEX
  8
0
 10
7.46436
 20
9.74735
 30
0.0
 40
0.00393701
 41
0.00393701
  0
VERTEX
  8
0
 10
7.51394
 20
9.78863
 30
0.0
 40
0.00393701
 41
0.00393701
  0
VERTEX
  8
0
 10
7.60482
 20
9.82167
 30
0.0
 40
0.00393701
 41
0.00393701
  0
VERTEX
  8
0
 10
7.6709
 20
9.82167
 30
0.0
 40
0.00393701
 41
0.00393701
  0
VERTEX
  8
0
 10
7.67367
 20
9.79139
 30
0.0
 40
0.00393701
 41
0.00393701
  0
VERTEX
  8
0
 10
7.50017
 20
9.51882
 30
0.0
 40
0.00393701
 41
0.00393701
  0
VERTEX
  8
0
 10
7.40104
 20
9.31239
 30
0.0
 40
0.00393701
 41
0.00393701
  0
VERTEX
  8
0
 10
7.39301
 20
9.28711
 30
0.0
 40
0.00393701
 41
0.00393701
  0
VERTEX
  8
0
 10
7.36774
 20
9.21149
 30
0.0
 40
0.00393701
 41
0.00393701
  0
VERTEX
  8
0
 10
7.338
 20
9.13206
 30
0.0
 40
0.00393701
 41
0.00393701
  0
VERTEX
  8
0
 10
7.30464
 20
9.05404
 30
0.0
 40
0.00393701
 41
0.00393701
  0
VERTEX
  8
0
 10
7.27171
 20
8.98144
 30
0.0
 40
0.00393701
 41
0.00393701
  0
VERTEX
  8
0
 10
7.26064
 20
8.95725
 30
0.0
 40
0.00393701
 41
0.00393701
  0
VERTEX
  8
0
 10
7.26064
 20
8.95725
 30
0.0
 40
0.00393701
 41
0.00393701
  0
VERTEX
  8
0
 10
7.25097
 20
8.94097
 30
0.0
 40
0.00393701
 41
0.00393701
  0
VERTEX
  8
0
 10
7.22542
 20
8.89785
 30
0.0
 40
0.00393701
 41
0.00393701
  0
VERTEX
  8
0
 10
7.18907
 20
8.83632
 30
0.0
 40
0.00393701
 41
0.00393701
  0
VERTEX
  8
0
 10
7.14686
 20
8.76497
 30
0.0
 40
0.00393701
 41
0.00393701
  0
VERTEX
  8
0
 10
7.10389
 20
8.69243
 30
0.0
 40
0.00393701
 41
0.00393701
  0
VERTEX
  8
0
 10
7.06526
 20
8.62711
 30
0.0
 40
0.00393701
 41
0.00393701
  0
VERTEX
  8
0
 10
7.03597
 20
8.57764
 30
0.0
 40
0.00393701
 41
0.00393701
  0
VERTEX
  8
0
 10
7.02479
 20
8.55881
 30
0.0
 40
0.00393701
 41
0.00393701
  0
VERTEX
  8
0
 10
7.02106
 20
8.55251
 30
0.0
 40
0.00393701
 41
0.00393701
  0
VERTEX
  8
0
 10
7.07058
 20
8.33778
 30
0.0
 40
0.00393701
 41
0.00393701
  0
VERTEX
  8
0
 10
7.02929
 20
8.37082
 30
0.0
 40
0.00393701
 41
0.00393701
  0
VERTEX
  8
0
 10
7.02106
 20
8.36257
 30
0.0
 40
0.00393701
 41
0.00393701
  0
VERTEX
  8
0
 10
7.04585
 20
8.28825
 30
0.0
 40
0.00393701
 41
0.00393701
  0
VERTEX
  8
0
 10
7.04585
 20
8.14785
 30
0.0
 40
0.00393701
 41
0.00393701
  0
VERTEX
  8
0
 10
7.04551
 20
8.14469
 30
0.0
 40
0.00393701
 41
0.00393701
  0
VERTEX
  8
0
 10
7.04346
 20
8.12668
 30
0.0
 40
0.00393701
 41
0.00393701
  0
VERTEX
  8
0
 10
7.03901
 20
8.10938
 30
0.0
 40
0.00393701
 41
0.00393701
  0
VERTEX
  8
0
 10
7.03754
 20
8.10656
 30
0.0
 40
0.00393701
 41
0.00393701
  0
VERTEX
  8
0
 10
7.03586
 20
8.10346
 30
0.0
 40
0.00393701
 41
0.00393701
  0
VERTEX
  8
0
 10
7.02225
 20
8.08914
 30
0.0
 40
0.00393701
 41
0.00393701
  0
VERTEX
  8
0
 10
7.00694
 20
8.07601
 30
0.0
 40
0.00393701
 41
0.00393701
  0
VERTEX
  8
0
 10
7.0045
 20
8.07351
 30
0.0
 40
0.00393701
 41
0.00393701
  0
VERTEX
  8
0
 10
6.97146
 20
7.97439
 30
0.0
 40
0.00393701
 41
0.00393701
  0
VERTEX
  8
0
 10
6.93842
 20
7.95785
 30
0.0
 40
0.00393701
 41
0.00393701
  0
VERTEX
  8
0
 10
6.80626
 20
7.79269
 30
0.0
 40
0.00393701
 41
0.00393701
  0
VERTEX
  8
0
 10
6.79249
 20
7.80371
 30
0.0
 40
0.00393701
 41
0.00393701
  0
VERTEX
  8
0
 10
6.79639
 20
7.81347
 30
0.0
 40
0.00393701
 41
0.00393701
  0
VERTEX
  8
0
 10
6.80544
 20
7.84386
 30
0.0
 40
0.00393701
 41
0.00393701
  0
VERTEX
  8
0
 10
6.81
 20
7.87831
 30
0.0
 40
0.00393701
 41
0.00393701
  0
VERTEX
  8
0
 10
6.8099
 20
7.91672
 30
0.0
 40
0.00393701
 41
0.00393701
  0
VERTEX
  8
0
 10
6.80903
 20
7.95583
 30
0.0
 40
0.00393701
 41
0.00393701
  0
VERTEX
  8
0
 10
6.80903
 20
7.96886
 30
0.0
 40
0.00393701
 41
0.00393701
  0
VERTEX
  8
0
 10
6.77599
 20
7.97715
 30
0.0
 40
0.00393701
 41
0.00393701
  0
VERTEX
  8
0
 10
6.76492
 20
8.00743
 30
0.0
 40
0.00393701
 41
0.00393701
  0
VERTEX
  8
0
 10
6.70714
 20
7.86703
 30
0.0
 40
0.00393701
 41
0.00393701
  0
VERTEX
  8
0
 10
6.72364
 20
7.84224
 30
0.0
 40
0.00393701
 41
0.00393701
  0
VERTEX
  8
0
 10
6.72364
 20
7.84224
 30
0.0
 40
0.00393701
 41
0.00393701
  0
VERTEX
  8
0
 10
6.73107
 20
7.84321
 30
0.0
 40
0.00393701
 41
0.00393701
  0
VERTEX
  8
0
 10
6.74328
 20
7.84657
 30
0.0
 40
0.00393701
 41
0.00393701
  0
VERTEX
  8
0
 10
6.74567
 20
7.84776
 30
0.0
 40
0.00393701
 41
0.00393701
  0
VERTEX
  8
0
 10
6.74843
 20
7.83399
 30
0.0
 40
0.00393701
 41
0.00393701
  0
VERTEX
  8
0
 10
6.6906
 20
7.81743
 30
0.0
 40
0.00393701
 41
0.00393701
  0
VERTEX
  8
0
 10
6.6741
 20
7.79269
 30
0.0
 40
0.00393701
 41
0.00393701
  0
VERTEX
  8
0
 10
6.6741
 20
7.79269
 30
0.0
 40
0.00393701
 41
0.00393701
  0
VERTEX
  8
0
 10
6.67415
 20
7.78635
 30
0.0
 40
0.00393701
 41
0.00393701
  0
VERTEX
  8
0
 10
6.67421
 20
7.76904
 30
0.0
 40
0.00393701
 41
0.00393701
  0
VERTEX
  8
0
 10
6.67415
 20
7.74349
 30
0.0
 40
0.00393701
 41
0.00393701
  0
VERTEX
  8
0
 10
6.67378
 20
7.7124
 30
0.0
 40
0.00393701
 41
0.00393701
  0
VERTEX
  8
0
 10
6.6729
 20
7.67844
 30
0.0
 40
0.00393701
 41
0.00393701
  0
VERTEX
  8
0
 10
6.67139
 20
7.64432
 30
0.0
 40
0.00393701
 41
0.00393701
  0
VERTEX
  8
0
 10
6.66906
 20
7.61268
 30
0.0
 40
0.00393701
 41
0.00393701
  0
VERTEX
  8
0
 10
6.66689
 20
7.59278
 30
0.0
 40
0.00393701
 41
0.00393701
  0
VERTEX
  8
0
 10
6.66581
 20
7.58621
 30
0.0
 40
0.00393701
 41
0.00393701
  0
VERTEX
  8
0
 10
6.60796
 20
7.49533
 30
0.0
 40
0.00393701
 41
0.00393701
  0
VERTEX
  8
0
 10
6.43451
 20
7.34668
 30
0.0
 40
0.00393701
 41
0.00393701
  0
VERTEX
  8
0
 10
6.47581
 20
7.29715
 30
0.0
 40
0.00393701
 41
0.00393701
  0
VERTEX
  8
0
 10
6.47581
 20
7.29715
 30
0.0
 40
0.00393701
 41
0.00393701
  0
VERTEX
  8
0
 10
6.49447
 20
7.28108
 30
0.0
 40
0.00393701
 41
0.00393701
  0
VERTEX
  8
0
 10
6.54486
 20
7.24046
 30
0.0
 40
0.00393701
 41
0.00393701
  0
VERTEX
  8
0
 10
6.61854
 20
7.1869
 30
0.0
 40
0.00393701
 41
0.00393701
  0
VERTEX
  8
0
 10
6.68435
 20
7.14458
 30
0.0
 40
0.00393701
 41
0.00393701
  0
VERTEX
  8
0
 10
6.70714
 20
7.13194
 30
0.0
 40
0.00393701
 41
0.00393701
  0
VERTEX
  8
0
 10
6.76221
 20
7.13747
 30
0.0
 40
0.00393701
 41
0.00393701
  0
VERTEX
  8
0
 10
6.76764
 20
7.1396
 30
0.0
 40
0.00393701
 41
0.00393701
  0
VERTEX
  8
0
 10
6.81315
 20
7.15528
 30
0.0
 40
0.00393701
 41
0.00393701
  0
VERTEX
  8
0
 10
6.90836
 20
7.1906
 30
0.0
 40
0.00393701
 41
0.00393701
  0
VERTEX
  8
0
 10
7.01036
 20
7.23508
 30
0.0
 40
0.00393701
 41
0.00393701
  0
VERTEX
  8
0
 10
7.06717
 20
7.26617
 30
0.0
 40
0.00393701
 41
0.00393701
  0
VERTEX
  8
0
 10
7.0816
 20
7.2806
 30
0.0
 40
0.00393701
 41
0.00393701
  0
VERTEX
  8
0
 10
7.07335
 20
7.33843
 30
0.0
 40
0.00393701
 41
0.00393701
  0
VERTEX
  8
0
 10
7.07335
 20
7.33843
 30
0.0
 40
0.00393701
 41
0.00393701
  0
VERTEX
  8
0
 10
7.06418
 20
7.34706
 30
0.0
 40
0.00393701
 41
0.00393701
  0
VERTEX
  8
0
 10
7.04346
 20
7.36828
 30
0.0
 40
0.00393701
 41
0.00393701
  0
VERTEX
  8
0
 10
7.02115
 20
7.39524
 30
0.0
 40
0.00393701
 41
0.00393701
  0
VERTEX
  8
0
 10
7.00917
 20
7.41417
 30
0.0
 40
0.00393701
 41
0.00393701
  0
VERTEX
  8
0
 10
7.00726
 20
7.42101
 30
0.0
 40
0.00393701
 41
0.00393701
  0
VERTEX
  8
0
 10
7.00662
 20
7.42324
 30
0.0
 40
0.00393701
 41
0.00393701
  0
VERTEX
  8
0
 10
7.00635
 20
7.43306
 30
0.0
 40
0.00393701
 41
0.00393701
  0
VERTEX
  8
0
 10
7.00732
 20
7.4541
 30
0.0
 40
0.00393701
 41
0.00393701
  0
VERTEX
  8
0
 10
7.01031
 20
7.48133
 30
0.0
 40
0.00393701
 41
0.00393701
  0
VERTEX
  8
0
 10
7.014
 20
7.50435
 30
0.0
 40
0.00393701
 41
0.00393701
  0
VERTEX
  8
0
 10
7.01551
 20
7.51187
 30
0.0
 40
0.00393701
 41
0.00393701
  0
VERTEX
  8
0
 10
7.07611
 20
7.54215
 30
0.0
 40
0.00393701
 41
0.00393701
  0
VERTEX
  8
0
 10
7.07611
 20
7.54215
 30
0.0
 40
0.00393701
 41
0.00393701
  0
VERTEX
  8
0
 10
7.07943
 20
7.54617
 30
0.0
 40
0.00393701
 41
0.00393701
  0
VERTEX
  8
0
 10
7.08822
 20
7.55675
 30
0.0
 40
0.00393701
 41
0.00393701
  0
VERTEX
  8
0
 10
7.10075
 20
7.57183
 30
0.0
 40
0.00393701
 41
0.00393701
  0
VERTEX
  8
0
 10
7.11529
 20
7.58931
 30
0.0
 40
0.00393701
 41
0.00393701
  0
VERTEX
  8
0
 10
7.13004
 20
7.6071
 30
0.0
 40
0.00393701
 41
0.00393701
  0
VERTEX
  8
0
 10
7.14339
 20
7.62304
 30
0.0
 40
0.00393701
 41
0.00393701
  0
VERTEX
  8
0
 10
7.15354
 20
7.63519
 30
0.0
 40
0.00393701
 41
0.00393701
  0
VERTEX
  8
0
 10
7.15739
 20
7.63981
 30
0.0
 40
0.00393701
 41
0.00393701
  0
VERTEX
  8
0
 10
7.15875
 20
7.64128
 30
0.0
 40
0.00393701
 41
0.00393701
  0
VERTEX
  8
0
 10
7.21653
 20
7.64953
 30
0.0
 40
0.00393701
 41
0.00393701
  0
VERTEX
  8
0
 10
7.21653
 20
7.64953
 30
0.0
 40
0.00393701
 41
0.00393701
  0
VERTEX
  8
0
 10
7.24121
 20
7.67301
 30
0.0
 40
0.00393701
 41
0.00393701
  0
VERTEX
  8
0
 10
7.30285
 20
7.73372
 30
0.0
 40
0.00393701
 41
0.00393701
  0
VERTEX
  8
0
 10
7.3826
 20
7.817
 30
0.0
 40
0.00393701
 41
0.00393701
  0
VERTEX
  8
0
 10
7.44276
 20
7.88476
 30
0.0
 40
0.00393701
 41
0.00393701
  0
VERTEX
  8
0
 10
7.46164
 20
7.90831
 30
0.0
 40
0.00393701
 41
0.00393701
  0
VERTEX
  8
0
 10
7.46164
 20
7.90831
 30
0.0
 40
0.00393701
 41
0.00393701
  0
VERTEX
  8
0
 10
7.46018
 20
7.91282
 30
0.0
 40
0.00393701
 41
0.00393701
  0
VERTEX
  8
0
 10
7.45736
 20
7.92426
 30
0.0
 40
0.00393701
 41
0.00393701
  0
VERTEX
  8
0
 10
7.45524
 20
7.9394
 30
0.0
 40
0.00393701
 41
0.00393701
  0
VERTEX
  8
0
 10
7.45535
 20
7.95133
 30
0.0
 40
0.00393701
 41
0.00393701
  0
VERTEX
  8
0
 10
7.45611
 20
7.95514
 30
0.0
 40
0.00393701
 41
0.00393701
  0
VERTEX
  8
0
 10
7.4809
 20
7.94683
 30
0.0
 40
0.00393701
 41
0.00393701
  0
VERTEX
  8
0
 10
7.51947
 20
7.97439
 30
0.0
 40
0.00393701
 41
0.00393701
  0
VERTEX
  8
0
 10
7.52772
 20
8.09
 30
0.0
 40
0.00393701
 41
0.00393701
  0
VERTEX
  8
0
 10
7.53321
 20
8.09
 30
0.0
 40
0.00393701
 41
0.00393701
  0
VERTEX
  8
0
 10
7.56629
 20
8.02393
 30
0.0
 40
0.00393701
 41
0.00393701
  0
VERTEX
  8
0
 10
7.57726
 20
8.02393
 30
0.0
 40
0.00393701
 41
0.00393701
  0
VERTEX
  8
0
 10
7.57726
 20
8.02393
 30
0.0
 40
0.00393701
 41
0.00393701
  0
VERTEX
  8
0
 10
7.58914
 20
8.03776
 30
0.0
 40
0.00393701
 41
0.00393701
  0
VERTEX
  8
0
 10
7.62076
 20
8.07437
 30
0.0
 40
0.00393701
 41
0.00393701
  0
VERTEX
  8
0
 10
7.66607
 20
8.12674
 30
0.0
 40
0.00393701
 41
0.00393701
  0
VERTEX
  8
0
 10
7.71903
 20
8.18772
 30
0.0
 40
0.00393701
 41
0.00393701
  0
VERTEX
  8
0
 10
7.77354
 20
8.25028
 30
0.0
 40
0.00393701
 41
0.00393701
  0
VERTEX
  8
0
 10
7.82351
 20
8.30729
 30
0.0
 40
0.00393701
 41
0.00393701
  0
VERTEX
  8
0
 10
7.8629
 20
8.35167
 30
0.0
 40
0.00393701
 41
0.00393701
  0
VERTEX
  8
0
 10
7.87972
 20
8.37039
 30
0.0
 40
0.00393701
 41
0.00393701
  0
VERTEX
  8
0
 10
7.88569
 20
8.37631
 30
0.0
 40
0.00393701
 41
0.00393701
  0
VERTEX
  8
0
 10
7.92974
 20
8.37082
 30
0.0
 40
0.00393701
 41
0.00393701
  0
VERTEX
  8
0
 10
7.85542
 20
8.25521
 30
0.0
 40
0.00393701
 41
0.00393701
  0
VERTEX
  8
0
 10
7.59104
 20
7.94135
 30
0.0
 40
0.00393701
 41
0.00393701
  0
VERTEX
  8
0
 10
7.60482
 20
7.93033
 30
0.0
 40
0.00393701
 41
0.00393701
  0
VERTEX
  8
0
 10
7.66265
 20
7.97988
 30
0.0
 40
0.00393701
 41
0.00393701
  0
VERTEX
  8
0
 10
7.67367
 20
7.96615
 30
0.0
 40
0.00393701
 41
0.00393701
  0
VERTEX
  8
0
 10
7.67128
 20
7.96067
 30
0.0
 40
0.00393701
 41
0.00393701
  0
VERTEX
  8
0
 10
7.66357
 20
7.94444
 30
0.0
 40
0.00393701
 41
0.00393701
  0
VERTEX
  8
0
 10
7.65571
 20
7.92708
 30
0.0
 40
0.00393701
 41
0.00393701
  0
VERTEX
  8
0
 10
7.65067
 20
7.90858
 30
0.0
 40
0.00393701
 41
0.00393701
  0
VERTEX
  8
0
 10
7.64887
 20
7.88981
 30
0.0
 40
0.00393701
 41
0.00393701
  0
VERTEX
  8
0
 10
7.64887
 20
7.88351
 30
0.0
 40
0.00393701
 41
0.00393701
  0
VERTEX
  8
0
 10
7.77001
 20
7.85601
 30
0.0
 40
0.00393701
 41
0.00393701
  0
VERTEX
  8
0
 10
7.76454
 20
7.85047
 30
0.0
 40
0.00393701
 41
0.00393701
  0
VERTEX
  8
0
 10
7.64887
 20
7.81743
 30
0.0
 40
0.00393701
 41
0.00393701
  0
VERTEX
  8
0
 10
7.71496
 20
7.72661
 30
0.0
 40
0.00393701
 41
0.00393701
  0
VERTEX
  8
0
 10
7.70671
 20
7.71838
 30
0.0
 40
0.00393701
 41
0.00393701
  0
VERTEX
  8
0
 10
7.62408
 20
7.7679
 30
0.0
 40
0.00393701
 41
0.00393701
  0
VERTEX
  8
0
 10
7.60758
 20
7.65229
 30
0.0
 40
0.00393701
 41
0.00393701
  0
VERTEX
  8
0
 10
7.558
 20
7.75142
 30
0.0
 40
0.00393701
 41
0.00393701
  0
VERTEX
  8
0
 10
7.49192
 20
7.68533
 30
0.0
 40
0.00393701
 41
0.00393701
  0
VERTEX
  8
0
 10
7.47814
 20
7.69635
 30
0.0
 40
0.00393701
 41
0.00393701
  0
VERTEX
  8
0
 10
7.47814
 20
7.69635
 30
0.0
 40
0.00393701
 41
0.00393701
  0
VERTEX
  8
0
 10
7.48438
 20
7.70811
 30
0.0
 40
0.00393701
 41
0.00393701
  0
VERTEX
  8
0
 10
7.49767
 20
7.73589
 30
0.0
 40
0.00393701
 41
0.00393701
  0
VERTEX
  8
0
 10
7.50939
 20
7.76872
 30
0.0
 40
0.00393701
 41
0.00393701
  0
VERTEX
  8
0
 10
7.51297
 20
7.78944
 30
0.0
 40
0.00393701
 41
0.00393701
  0
VERTEX
  8
0
 10
7.51118
 20
7.79542
 30
0.0
 40
0.00393701
 41
0.00393701
  0
VERTEX
  8
0
 10
7.51079
 20
7.79671
 30
0.0
 40
0.00393701
 41
0.00393701
  0
VERTEX
  8
0
 10
7.50097
 20
7.80817
 30
0.0
 40
0.00393701
 41
0.00393701
  0
VERTEX
  8
0
 10
7.50017
 20
7.80919
 30
0.0
 40
0.00393701
 41
0.00393701
  0
VERTEX
  8
0
 10
7.45888
 20
7.80094
 30
0.0
 40
0.00393701
 41
0.00393701
  0
VERTEX
  8
0
 10
7.29368
 20
7.611
 30
0.0
 40
0.00393701
 41
0.00393701
  0
VERTEX
  8
0
 10
7.29135
 20
7.59961
 30
0.0
 40
0.00393701
 41
0.00393701
  0
VERTEX
  8
0
 10
7.28814
 20
7.56451
 30
0.0
 40
0.00393701
 41
0.00393701
  0
VERTEX
  8
0
 10
7.2921
 20
7.52994
 30
0.0
 40
0.00393701
 41
0.00393701
  0
VERTEX
  8
0
 10
7.303
 20
7.49881
 30
0.0
 40
0.00393701
 41
0.00393701
  0
VERTEX
  8
0
 10
7.31472
 20
7.47151
 30
0.0
 40
0.00393701
 41
0.00393701
  0
VERTEX
  8
0
 10
7.31842
 20
7.46229
 30
0.0
 40
0.00393701
 41
0.00393701
  0
VERTEX
  8
0
 10
7.50569
 20
7.43479
 30
0.0
 40
0.00393701
 41
0.00393701
  0
VERTEX
  8
0
 10
7.50017
 20
7.42925
 30
0.0
 40
0.00393701
 41
0.00393701
  0
VERTEX
  8
0
 10
7.35146
 20
7.39626
 30
0.0
 40
0.00393701
 41
0.00393701
  0
VERTEX
  8
0
 10
7.32671
 20
7.34668
 30
0.0
 40
0.00393701
 41
0.00393701
  0
VERTEX
  8
0
 10
7.31842
 20
7.14849
 30
0.0
 40
0.00393701
 41
0.00393701
  0
VERTEX
  8
0
 10
7.31293
 20
7.14296
 30
0.0
 40
0.00393701
 41
0.00393701
  0
VERTEX
  8
0
 10
7.26064
 20
7.30539
 30
0.0
 40
0.00393701
 41
0.00393701
  0
VERTEX
  8
0
 10
7.23975
 20
7.28575
 30
0.0
 40
0.00393701
 41
0.00393701
  0
VERTEX
  8
0
 10
7.17637
 20
7.22754
 30
0.0
 40
0.00393701
 41
0.00393701
  0
VERTEX
  8
0
 10
7.08171
 20
7.14535
 30
0.0
 40
0.00393701
 41
0.00393701
  0
VERTEX
  8
0
 10
6.96701
 20
7.05447
 30
0.0
 40
0.00393701
 41
0.00393701
  0
VERTEX
  8
0
 10
6.85932
 20
6.97558
 30
0.0
 40
0.00393701
 41
0.00393701
  0
VERTEX
  8
0
 10
6.82275
 20
6.95025
 30
0.0
 40
0.00393701
 41
0.00393701
  0
VERTEX
  8
0
 10
6.80935
 20
6.94581
 30
0.0
 40
0.00393701
 41
0.00393701
  0
VERTEX
  8
0
 10
6.76882
 20
6.93386
 30
0.0
 40
0.00393701
 41
0.00393701
  0
VERTEX
  8
0
 10
6.72542
 20
6.92714
 30
0.0
 40
0.00393701
 41
0.00393701
  0
VERTEX
  8
0
 10
6.6791
 20
6.9299
 30
0.0
 40
0.00393701
 41
0.00393701
  0
VERTEX
  8
0
 10
6.63183
 20
6.93858
 30
0.0
 40
0.00393701
 41
0.00393701
  0
VERTEX
  8
0
 10
6.61626
 20
6.942
 30
0.0
 40
0.00393701
 41
0.00393701
  0
VERTEX
  8
0
 10
6.61626
 20
6.942
 30
0.0
 40
0.00393701
 41
0.00393701
  0
VERTEX
  8
0
 10
6.60275
 20
6.9484
 30
0.0
 40
0.00393701
 41
0.00393701
  0
VERTEX
  8
0
 10
6.56679
 20
6.96528
 30
0.0
 40
0.00393701
 41
0.00393701
  0
VERTEX
  8
0
 10
6.51503
 20
6.98904
 30
0.0
 40
0.00393701
 41
0.00393701
  0
VERTEX
  8
0
 10
6.4541
 20
7.01633
 30
0.0
 40
0.00393701
 41
0.00393701
  0
VERTEX
  8
0
 10
6.39074
 20
7.04368
 30
0.0
 40
0.00393701
 41
0.00393701
  0
VERTEX
  8
0
 10
6.3316
 20
7.06743
 30
0.0
 40
0.00393701
 41
0.00393701
  0
VERTEX
  8
0
 10
6.28336
 20
7.08431
 30
0.0
 40
0.00393701
 41
0.00393701
  0
VERTEX
  8
0
 10
6.26042
 20
7.09065
 30
0.0
 40
0.00393701
 41
0.00393701
  0
VERTEX
  8
0
 10
6.25276
 20
7.09065
 30
0.0
 40
0.00393701
 41
0.00393701
  0
VERTEX
  8
0
 10
6.23622
 20
7.06586
 30
0.0
 40
0.00393701
 41
0.00393701
  0
VERTEX
  8
0
 10
6.23622
 20
7.06586
 30
0.0
 40
0.00393701
 41
0.00393701
  0
VERTEX
  8
0
 10
6.23557
 20
7.05865
 30
0.0
 40
0.00393701
 41
0.00393701
  0
VERTEX
  8
0
 10
6.23389
 20
7.03956
 30
0.0
 40
0.00393701
 41
0.00393701
  0
VERTEX
  8
0
 10
6.23144
 20
7.01247
 30
0.0
 40
0.00393701
 41
0.00393701
  0
VERTEX
  8
0
 10
6.22863
 20
6.98122
 30
0.0
 40
0.00393701
 41
0.00393701
  0
VERTEX
  8
0
 10
6.22569
 20
6.94976
 30
0.0
 40
0.00393701
 41
0.00393701
  0
VERTEX
  8
0
 10
6.22304
 20
6.92188
 30
0.0
 40
0.00393701
 41
0.00393701
  0
VERTEX
  8
0
 10
6.22092
 20
6.90147
 30
0.0
 40
0.00393701
 41
0.00393701
  0
VERTEX
  8
0
 10
6.22017
 20
6.89382
 30
0.0
 40
0.00393701
 41
0.00393701
  0
VERTEX
  8
0
 10
6.21972
 20
6.89242
 30
0.0
 40
0.00393701
 41
0.00393701
  0
VERTEX
  8
0
 10
6.21685
 20
6.88363
 30
0.0
 40
0.00393701
 41
0.00393701
  0
VERTEX
  8
0
 10
6.19194
 20
6.84972
 30
0.0
 40
0.00393701
 41
0.00393701
  0
VERTEX
  8
0
 10
6.15446
 20
6.81771
 30
0.0
 40
0.00393701
 41
0.00393701
  0
VERTEX
  8
0
 10
6.14535
 20
6.80985
 30
0.0
 40
0.00393701
 41
0.00393701
  0
VERTEX
  8
0
 10
6.07926
 20
6.79335
 30
0.0
 40
0.00393701
 41
0.00393701
  0
VERTEX
  8
0
 10
6.05469
 20
6.77582
 30
0.0
 40
0.00393701
 41
0.00393701
  0
VERTEX
  8
0
 10
5.98063
 20
6.72364
 30
0.0
 40
0.00393701
 41
0.00393701
  0
VERTEX
  8
0
 10
5.90332
 20
6.67231
 30
0.0
 40
0.00393701
 41
0.00393701
  0
VERTEX
  8
0
 10
5.81901
 20
6.62164
 30
0.0
 40
0.00393701
 41
0.00393701
  0
VERTEX
  8
0
 10
5.72928
 20
6.57064
 30
0.0
 40
0.00393701
 41
0.00393701
  0
VERTEX
  8
0
 10
5.69928
 20
6.55382
 30
0.0
 40
0.00393701
 41
0.00393701
  0
VERTEX
  8
0
 10
5.82042
 20
6.38585
 30
0.0
 40
0.00393701
 41
0.00393701
  0
VERTEX
  8
0
 10
5.9636
 20
6.09131
 30
0.0
 40
0.00393701
 41
0.00393701
  0
VERTEX
  8
0
 10
5.93886
 20
6.08306
 30
0.0
 40
0.00393701
 41
0.00393701
  0
VERTEX
  8
0
 10
5.87278
 20
6.1161
 30
0.0
 40
0.00393701
 41
0.00393701
  0
VERTEX
  8
0
 10
5.86447
 20
6.10781
 30
0.0
 40
0.00393701
 41
0.00393701
  0
VERTEX
  8
0
 10
5.92231
 20
5.96739
 30
0.0
 40
0.00393701
 41
0.00393701
  0
VERTEX
  8
0
 10
5.88103
 20
5.95915
 30
0.0
 40
0.00393701
 41
0.00393701
  0
VERTEX
  8
0
 10
5.87278
 20
5.66183
 30
0.0
 40
0.00393701
 41
0.00393701
  0
VERTEX
  8
0
 10
5.79015
 20
5.14974
 30
0.0
 40
0.00393701
 41
0.00393701
  0
VERTEX
  8
0
 10
5.7819
 20
4.95979
 30
0.0
 40
0.00393701
 41
0.00393701
  0
VERTEX
  8
0
 10
5.83143
 20
4.73682
 30
0.0
 40
0.00393701
 41
0.00393701
  0
VERTEX
  8
0
 10
5.85622
 20
4.03478
 30
0.0
 40
0.00393701
 41
0.00393701
  0
VERTEX
  8
0
 10
5.85682
 20
4.03201
 30
0.0
 40
0.00393701
 41
0.00393701
  0
VERTEX
  8
0
 10
5.86415
 20
4.00142
 30
0.0
 40
0.00393701
 41
0.00393701
  0
VERTEX
  8
0
 10
5.88308
 20
3.92665
 30
0.0
 40
0.00393701
 41
0.00393701
  0
VERTEX
  8
0
 10
5.91129
 20
3.82335
 30
0.0
 40
0.00393701
 41
0.00393701
  0
VERTEX
  8
0
 10
5.93767
 20
3.73406
 30
0.0
 40
0.00393701
 41
0.00393701
  0
VERTEX
  8
0
 10
5.9471
 20
3.70443
 30
0.0
 40
0.00393701
 41
0.00393701
  0
VERTEX
  8
0
 10
5.9719
 20
3.66308
 30
0.0
 40
0.00393701
 41
0.00393701
  0
VERTEX
  8
0
 10
5.9719
 20
3.66308
 30
0.0
 40
0.00393701
 41
0.00393701
  0
VERTEX
  8
0
 10
5.98432
 20
3.65847
 30
0.0
 40
0.00393701
 41
0.00393701
  0
VERTEX
  8
0
 10
6.01372
 20
3.64578
 30
0.0
 40
0.00393701
 41
0.00393701
  0
VERTEX
  8
0
 10
6.04839
 20
3.62657
 30
0.0
 40
0.00393701
 41
0.00393701
  0
VERTEX
  8
0
 10
6.07075
 20
3.60965
 30
0.0
 40
0.00393701
 41
0.00393701
  0
VERTEX
  8
0
 10
6.0765
 20
3.60254
 30
0.0
 40
0.00393701
 41
0.00393701
  0
VERTEX
  8
0
 10
6.07937
 20
3.59896
 30
0.0
 40
0.00393701
 41
0.00393701
  0
VERTEX
  8
0
 10
6.09153
 20
3.57585
 30
0.0
 40
0.00393701
 41
0.00393701
  0
VERTEX
  8
0
 10
6.102
 20
3.55165
 30
0.0
 40
0.00393701
 41
0.00393701
  0
VERTEX
  8
0
 10
6.10406
 20
3.54747
 30
0.0
 40
0.00393701
 41
0.00393701
  0
VERTEX
  8
0
 10
6.10406
 20
3.54747
 30
0.0
 40
0.00393701
 41
0.00393701
  0
VERTEX
  8
0
 10
6.10493
 20
3.53614
 30
0.0
 40
0.00393701
 41
0.00393701
  0
VERTEX
  8
0
 10
6.10579
 20
3.5089
 30
0.0
 40
0.00393701
 41
0.00393701
  0
VERTEX
  8
0
 10
6.10368
 20
3.47618
 30
0.0
 40
0.00393701
 41
0.00393701
  0
VERTEX
  8
0
 10
6.09912
 20
3.45458
 30
0.0
 40
0.00393701
 41
0.00393701
  0
VERTEX
  8
0
 10
6.09581
 20
3.44835
 30
0.0
 40
0.00393701
 41
0.00393701
  0
VERTEX
  8
0
 10
6.09413
 20
3.44532
 30
0.0
 40
0.00393701
 41
0.00393701
  0
VERTEX
  8
0
 10
6.08051
 20
3.43093
 30
0.0
 40
0.00393701
 41
0.00393701
  0
VERTEX
  8
0
 10
6.06521
 20
3.41781
 30
0.0
 40
0.00393701
 41
0.00393701
  0
VERTEX
  8
0
 10
6.06278
 20
3.41531
 30
0.0
 40
0.00393701
 41
0.00393701
  0
VERTEX
  8
0
 10
6.06278
 20
3.41531
 30
0.0
 40
0.00393701
 41
0.00393701
  0
VERTEX
  8
0
 10
6.06179
 20
3.40901
 30
0.0
 40
0.00393701
 41
0.00393701
  0
VERTEX
  8
0
 10
6.05925
 20
3.39225
 30
0.0
 40
0.00393701
 41
0.00393701
  0
VERTEX
  8
0
 10
6.05556
 20
3.36837
 30
0.0
 40
0.00393701
 41
0.00393701
  0
VERTEX
  8
0
 10
6.05132
 20
3.34071
 30
0.0
 40
0.00393701
 41
0.00393701
  0
VERTEX
  8
0
 10
6.04693
 20
3.31261
 30
0.0
 40
0.00393701
 41
0.00393701
  0
VERTEX
  8
0
 10
6.04292
 20
3.28728
 30
0.0
 40
0.00393701
 41
0.00393701
  0
VERTEX
  8
0
 10
6.03976
 20
3.26812
 30
0.0
 40
0.00393701
 41
0.00393701
  0
VERTEX
  8
0
 10
6.03851
 20
3.26079
 30
0.0
 40
0.00393701
 41
0.00393701
  0
VERTEX
  8
0
 10
6.03797
 20
3.2584
 30
0.0
 40
0.00393701
 41
0.00393701
  0
VERTEX
  8
0
 10
6.00493
 20
3.24192
 30
0.0
 40
0.00393701
 41
0.00393701
  0
VERTEX
  8
0
 10
6.00429
 20
3.24203
 30
0.0
 40
0.00393701
 41
0.00393701
  0
VERTEX
  8
0
 10
5.99507
 20
3.24337
 30
0.0
 40
0.00393701
 41
0.00393701
  0
VERTEX
  8
0
 10
5.97428
 20
3.24621
 30
0.0
 40
0.00393701
 41
0.00393701
  0
VERTEX
  8
0
 10
5.95025
 20
3.24897
 30
0.0
 40
0.00393701
 41
0.00393701
  0
VERTEX
  8
0
 10
5.93544
 20
3.25017
 30
0.0
 40
0.00393701
 41
0.00393701
  0
VERTEX
  8
0
 10
5.93056
 20
3.25017
 30
0.0
 40
0.00393701
 41
0.00393701
  0
VERTEX
  8
0
 10
5.92231
 20
3.20057
 30
0.0
 40
0.00393701
 41
0.00393701
  0
VERTEX
  8
0
 10
5.88926
 20
3.16758
 30
0.0
 40
0.00393701
 41
0.00393701
  0
VERTEX
  8
0
 10
5.83143
 20
3.16758
 30
0.0
 40
0.00393701
 41
0.00393701
  0
VERTEX
  8
0
 10
5.83143
 20
3.16758
 30
0.0
 40
0.00393701
 41
0.00393701
  0
VERTEX
  8
0
 10
5.8265
 20
3.17008
 30
0.0
 40
0.00393701
 41
0.00393701
  0
VERTEX
  8
0
 10
5.81337
 20
3.17692
 30
0.0
 40
0.00393701
 41
0.00393701
  0
VERTEX
  8
0
 10
5.79432
 20
3.18701
 30
0.0
 40
0.00393701
 41
0.00393701
  0
VERTEX
  8
0
 10
5.77175
 20
3.19949
 30
0.0
 40
0.00393701
 41
0.00393701
  0
VERTEX
  8
0
 10
5.7481
 20
3.21332
 30
0.0
 40
0.00393701
 41
0.00393701
  0
VERTEX
  8
0
 10
5.72558
 20
3.22749
 30
0.0
 40
0.00393701
 41
0.00393701
  0
VERTEX
  8
0
 10
5.70671
 20
3.24104
 30
0.0
 40
0.00393701
 41
0.00393701
  0
VERTEX
  8
0
 10
5.69656
 20
3.24963
 30
0.0
 40
0.00393701
 41
0.00393701
  0
VERTEX
  8
0
 10
5.69374
 20
3.25293
 30
0.0
 40
0.00393701
 41
0.00393701
  0
VERTEX
  8
0
 10
5.69049
 20
3.25672
 30
0.0
 40
0.00393701
 41
0.00393701
  0
VERTEX
  8
0
 10
5.67606
 20
3.28103
 30
0.0
 40
0.00393701
 41
0.00393701
  0
VERTEX
  8
0
 10
5.66314
 20
3.30643
 30
0.0
 40
0.00393701
 41
0.00393701
  0
VERTEX
  8
0
 10
5.66069
 20
3.31071
 30
0.0
 40
0.00393701
 41
0.00393701
  0
VERTEX
  8
0
 10
5.59462
 20
3.54199
 30
0.0
 40
0.00393701
 41
0.00393701
  0
VERTEX
  8
0
 10
5.56158
 20
3.59978
 30
0.0
 40
0.00393701
 41
0.00393701
  0
VERTEX
  8
0
 10
5.56158
 20
3.6824
 30
0.0
 40
0.00393701
 41
0.00393701
  0
VERTEX
  8
0
 10
5.60286
 20
3.78147
 30
0.0
 40
0.00393701
 41
0.00393701
  0
VERTEX
  8
0
 10
5.60286
 20
3.8641
 30
0.0
 40
0.00393701
 41
0.00393701
  0
VERTEX
  8
0
 10
5.59343
 20
3.87668
 30
0.0
 40
0.00393701
 41
0.00393701
  0
VERTEX
  8
0
 10
5.56521
 20
3.91456
 30
0.0
 40
0.00393701
 41
0.00393701
  0
VERTEX
  8
0
 10
5.52399
 20
3.97032
 30
0.0
 40
0.00393701
 41
0.00393701
  0
VERTEX
  8
0
 10
5.4815
 20
4.02838
 30
0.0
 40
0.00393701
 41
0.00393701
  0
VERTEX
  8
0
 10
5.44006
 20
4.0855
 30
0.0
 40
0.00393701
 41
0.00393701
  0
VERTEX
  8
0
 10
5.40186
 20
4.13872
 30
0.0
 40
0.00393701
 41
0.00393701
  0
VERTEX
  8
0
 10
5.36931
 20
4.18494
 30
0.0
 40
0.00393701
 41
0.00393701
  0
VERTEX
  8
0
 10
5.34467
 20
4.22108
 30
0.0
 40
0.00393701
 41
0.00393701
  0
VERTEX
  8
0
 10
5.33356
 20
4.23812
 30
0.0
 40
0.00393701
 41
0.00393701
  0
VERTEX
  8
0
 10
5.33029
 20
4.24397
 30
0.0
 40
0.00393701
 41
0.00393701
  0
VERTEX
  8
0
 10
5.32249
 20
4.25792
 30
0.0
 40
0.00393701
 41
0.00393701
  0
VERTEX
  8
0
 10
5.30089
 20
4.30067
 30
0.0
 40
0.00393701
 41
0.00393701
  0
VERTEX
  8
0
 10
5.26753
 20
4.37506
 30
0.0
 40
0.00393701
 41
0.00393701
  0
VERTEX
  8
0
 10
5.23042
 20
4.4706
 30
0.0
 40
0.00393701
 41
0.00393701
  0
VERTEX
  8
0
 10
5.19938
 20
4.56065
 30
0.0
 40
0.00393701
 41
0.00393701
  0
VERTEX
  8
0
 10
5.18983
 20
4.59088
 30
0.0
 40
0.00393701
 41
0.00393701
  0
VERTEX
  8
0
 10
5.18983
 20
4.59088
 30
0.0
 40
0.00393701
 41
0.00393701
  0
VERTEX
  8
0
 10
5.18913
 20
4.6091
 30
0.0
 40
0.00393701
 41
0.00393701
  0
VERTEX
  8
0
 10
5.18733
 20
4.65722
 30
0.0
 40
0.00393701
 41
0.00393701
  0
VERTEX
  8
0
 10
5.18485
 20
4.72558
 30
0.0
 40
0.00393701
 41
0.00393701
  0
VERTEX
  8
0
 10
5.18192
 20
4.80431
 30
0.0
 40
0.00393701
 41
0.00393701
  0
VERTEX
  8
0
 10
5.17893
 20
4.88374
 30
0.0
 40
0.00393701
 41
0.00393701
  0
VERTEX
  8
0
 10
5.17626
 20
4.9541
 30
0.0
 40
0.00393701
 41
0.00393701
  0
VERTEX
  8
0
 10
5.17426
 20
5.00569
 30
0.0
 40
0.00393701
 41
0.00393701
  0
VERTEX
  8
0
 10
5.17356
 20
5.02501
 30
0.0
 40
0.00393701
 41
0.00393701
  0
VERTEX
  8
0
 10
5.17333
 20
5.02865
 30
0.0
 40
0.00393701
 41
0.00393701
  0
VERTEX
  8
0
 10
4.83464
 20
5.75543
 30
0.0
 40
0.00393701
 41
0.00393701
  0
VERTEX
  8
0
 10
4.77681
 20
5.91233
 30
0.0
 40
0.00393701
 41
0.00393701
  0
VERTEX
  8
0
 10
4.77681
 20
5.91233
 30
0.0
 40
0.00393701
 41
0.00393701
  0
VERTEX
  8
0
 10
4.77192
 20
5.95117
 30
0.0
 40
0.00393701
 41
0.00393701
  0
VERTEX
  8
0
 10
4.76101
 20
6.03728
 30
0.0
 40
0.00393701
 41
0.00393701
  0
VERTEX
  8
0
 10
4.74978
 20
6.12489
 30
0.0
 40
0.00393701
 41
0.00393701
  0
VERTEX
  8
0
 10
4.74425
 20
6.16635
 30
0.0
 40
0.00393701
 41
0.00393701
  0
VERTEX
  8
0
 10
4.74376
 20
6.1684
 30
0.0
 40
0.00393701
 41
0.00393701
  0
VERTEX
  8
0
 10
4.65012
 20
6.17389
 30
0.0
 40
0.00393701
 41
0.00393701
  0
VERTEX
  8
0
 10
4.58681
 20
6.20969
 30
0.0
 40
0.00393701
 41
0.00393701
  0
VERTEX
  8
0
 10
4.5931
 20
6.21506
 30
0.0
 40
0.00393701
 41
0.00393701
  0
VERTEX
  8
0
 10
4.61193
 20
6.23112
 30
0.0
 40
0.00393701
 41
0.00393701
  0
VERTEX
  8
0
 10
4.63157
 20
6.24821
 30
0.0
 40
0.00393701
 41
0.00393701
  0
VERTEX
  8
0
 10
4.64729
 20
6.26275
 30
0.0
 40
0.00393701
 41
0.00393701
  0
VERTEX
  8
0
 10
4.66075
 20
6.27626
 30
0.0
 40
0.00393701
 41
0.00393701
  0
VERTEX
  8
0
 10
4.67361
 20
6.29042
 30
0.0
 40
0.00393701
 41
0.00393701
  0
VERTEX
  8
0
 10
4.68739
 20
6.30681
 30
0.0
 40
0.00393701
 41
0.00393701
  0
VERTEX
  8
0
 10
4.70383
 20
6.3271
 30
0.0
 40
0.00393701
 41
0.00393701
  0
VERTEX
  8
0
 10
4.71929
 20
6.34646
 30
0.0
 40
0.00393701
 41
0.00393701
  0
VERTEX
  8
0
 10
4.72444
 20
6.35286
 30
0.0
 40
0.00393701
 41
0.00393701
  0
VERTEX
  8
0
 10
4.79329
 20
6.4905
 30
0.0
 40
0.00393701
 41
0.00393701
  0
VERTEX
  8
0
 10
4.79053
 20
6.50424
 30
0.0
 40
0.00393701
 41
0.00393701
  0
VERTEX
  8
0
 10
4.741
 20
6.49599
 30
0.0
 40
0.00393701
 41
0.00393701
  0
VERTEX
  8
0
 10
4.73367
 20
6.49164
 30
0.0
 40
0.00393701
 41
0.00393701
  0
VERTEX
  8
0
 10
4.71164
 20
6.47857
 30
0.0
 40
0.00393701
 41
0.00393701
  0
VERTEX
  8
0
 10
4.67665
 20
6.45925
 30
0.0
 40
0.00393701
 41
0.00393701
  0
VERTEX
  8
0
 10
4.63254
 20
6.43772
 30
0.0
 40
0.00393701
 41
0.00393701
  0
VERTEX
  8
0
 10
4.59006
 20
6.41917
 30
0.0
 40
0.00393701
 41
0.00393701
  0
VERTEX
  8
0
 10
4.57574
 20
6.41342
 30
0.0
 40
0.00393701
 41
0.00393701
  0
VERTEX
  8
0
 10
4.55643
 20
6.41217
 30
0.0
 40
0.00393701
 41
0.00393701
  0
VERTEX
  8
0
 10
4.49864
 20
6.40647
 30
0.0
 40
0.00393701
 41
0.00393701
  0
VERTEX
  8
0
 10
4.44069
 20
6.40235
 30
0.0
 40
0.00393701
 41
0.00393701
  0
VERTEX
  8
0
 10
4.38417
 20
6.40793
 30
0.0
 40
0.00393701
 41
0.00393701
  0
VERTEX
  8
0
 10
4.32915
 20
6.42329
 30
0.0
 40
0.00393701
 41
0.00393701
  0
VERTEX
  8
0
 10
4.31142
 20
6.4299
 30
0.0
 40
0.00393701
 41
0.00393701
  0
VERTEX
  8
0
 10
4.16547
 20
6.43267
 30
0.0
 40
0.00393701
 41
0.00393701
  0
VERTEX
  8
0
 10
4.16569
 20
6.43321
 30
0.0
 40
0.00393701
 41
0.00393701
  0
VERTEX
  8
0
 10
4.16857
 20
6.44168
 30
0.0
 40
0.00393701
 41
0.00393701
  0
VERTEX
  8
0
 10
4.17096
 20
6.45144
 30
0.0
 40
0.00393701
 41
0.00393701
  0
VERTEX
  8
0
 10
4.17096
 20
6.45469
 30
0.0
 40
0.00393701
 41
0.00393701
  0
VERTEX
  8
0
 10
4.06358
 20
6.45469
 30
0.0
 40
0.00393701
 41
0.00393701
  0
VERTEX
  8
0
 10
4.05806
 20
6.48226
 30
0.0
 40
0.00393701
 41
0.00393701
  0
VERTEX
  8
0
 10
4.15446
 20
6.54281
 30
0.0
 40
0.00393701
 41
0.00393701
  0
VERTEX
  8
0
 10
4.15446
 20
6.55382
 30
0.0
 40
0.00393701
 41
0.00393701
  0
VERTEX
  8
0
 10
4.03331
 20
6.58132
 30
0.0
 40
0.00393701
 41
0.00393701
  0
VERTEX
  8
0
 10
4.05533
 20
6.60064
 30
0.0
 40
0.00393701
 41
0.00393701
  0
VERTEX
  8
0
 10
4.19575
 20
6.61714
 30
0.0
 40
0.00393701
 41
0.00393701
  0
VERTEX
  8
0
 10
4.24533
 20
6.64193
 30
0.0
 40
0.00393701
 41
0.00393701
  0
VERTEX
  8
0
 10
4.35271
 20
6.63363
 30
0.0
 40
0.00393701
 41
0.00393701
  0
VERTEX
  8
0
 10
4.56749
 20
6.53456
 30
0.0
 40
0.00393701
 41
0.00393701
  0
VERTEX
  8
0
 10
4.63357
 20
6.5676
 30
0.0
 40
0.00393701
 41
0.00393701
  0
VERTEX
  8
0
 10
5.04943
 20
6.92822
 30
0.0
 40
0.00393701
 41
0.00393701
  0
VERTEX
  8
0
 10
5.021
 20
6.93875
 30
0.0
 40
0.00393701
 41
0.00393701
  0
VERTEX
  8
0
 10
4.93533
 20
6.96924
 30
0.0
 40
0.00393701
 41
0.00393701
  0
VERTEX
  8
0
 10
4.84858
 20
7.00868
 30
0.0
 40
0.00393701
 41
0.00393701
  0
VERTEX
  8
0
 10
4.78168
 20
7.06575
 30
0.0
 40
0.00393701
 41
0.00393701
  0
VERTEX
  8
0
 10
4.73779
 20
7.13482
 30
0.0
 40
0.00393701
 41
0.00393701
  0
VERTEX
  8
0
 10
4.72721
 20
7.1595
 30
0.0
 40
0.00393701
 41
0.00393701
  0
VERTEX
  8
0
 10
4.71897
 20
7.26688
 30
0.0
 40
0.00393701
 41
0.00393701
  0
VERTEX
  8
0
 10
4.77403
 20
7.50911
 30
0.0
 40
0.00393701
 41
0.00393701
  0
VERTEX
  8
0
 10
4.77403
 20
7.52012
 30
0.0
 40
0.00393701
 41
0.00393701
  0
VERTEX
  8
0
 10
4.76519
 20
7.53022
 30
0.0
 40
0.00393701
 41
0.00393701
  0
VERTEX
  8
0
 10
4.73867
 20
7.56039
 30
0.0
 40
0.00393701
 41
0.00393701
  0
VERTEX
  8
0
 10
4.69075
 20
7.6186
 30
0.0
 40
0.00393701
 41
0.00393701
  0
VERTEX
  8
0
 10
4.63553
 20
7.69433
 30
0.0
 40
0.00393701
 41
0.00393701
  0
VERTEX
  8
0
 10
4.59169
 20
7.7634
 30
0.0
 40
0.00393701
 41
0.00393701
  0
VERTEX
  8
0
 10
4.5785
 20
7.78717
 30
0.0
 40
0.00393701
 41
0.00393701
  0
VERTEX
  8
0
 10
4.5785
 20
7.78717
 30
0.0
 40
0.00393701
 41
0.00393701
  0
VERTEX
  8
0
 10
4.5726
 20
7.79904
 30
0.0
 40
0.00393701
 41
0.00393701
  0
VERTEX
  8
0
 10
4.55658
 20
7.83182
 30
0.0
 40
0.00393701
 41
0.00393701
  0
VERTEX
  8
0
 10
4.53282
 20
7.88151
 30
0.0
 40
0.00393701
 41
0.00393701
  0
VERTEX
  8
0
 10
4.50364
 20
7.94407
 30
0.0
 40
0.00393701
 41
0.00393701
  0
VERTEX
  8
0
 10
4.4714
 20
8.01535
 30
0.0
 40
0.00393701
 41
0.00393701
  0
VERTEX
  8
0
 10
4.43853
 20
8.09142
 30
0.0
 40
0.00393701
 41
0.00393701
  0
VERTEX
  8
0
 10
4.40733
 20
8.16812
 30
0.0
 40
0.00393701
 41
0.00393701
  0
VERTEX
  8
0
 10
4.38661
 20
8.22299
 30
0.0
 40
0.00393701
 41
0.00393701
  0
VERTEX
  8
0
 10
4.38026
 20
8.24143
 30
0.0
 40
0.00393701
 41
0.00393701
  0
VERTEX
  8
0
 10
4.35449
 20
8.31592
 30
0.0
 40
0.00393701
 41
0.00393701
  0
VERTEX
  8
0
 10
4.28965
 20
8.54368
 30
0.0
 40
0.00393701
 41
0.00393701
  0
VERTEX
  8
0
 10
4.20421
 20
8.91097
 30
0.0
 40
0.00393701
 41
0.00393701
  0
VERTEX
  8
0
 10
4.12418
 20
9.34201
 30
0.0
 40
0.00393701
 41
0.00393701
  0
VERTEX
  8
0
 10
4.06662
 20
9.71186
 30
0.0
 40
0.00393701
 41
0.00393701
  0
VERTEX
  8
0
 10
4.04981
 20
9.83544
 30
0.0
 40
0.00393701
 41
0.00393701
  0
VERTEX
  8
0
 10
4.04156
 20
10.0832
 30
0.0
 40
0.00393701
 41
0.00393701
  0
VERTEX
  8
0
 10
4.06082
 20
10.1686
 30
0.0
 40
0.00393701
 41
0.00393701
  0
SEQEND
 8
0
  0
POLYLINE
  8
0
 62
     0
 66
     1
 10
0
 20
0
 30
0.0
 70
     1
 40
0.283465
 41
0.283465
  0
VERTEX
  8
0
 10
8.23264
 20
9.34267
 30
0.0
 40
0.00393701
 41
0.00393701
  0
VERTEX
  8
0
 10
8.24365
 20
9.31239
 30
0.0
 40
0.00393701
 41
0.00393701
  0
VERTEX
  8
0
 10
8.24197
 20
9.30479
 30
0.0
 40
0.00393701
 41
0.00393701
  0
VERTEX
  8
0
 10
8.23649
 20
9.2819
 30
0.0
 40
0.00393701
 41
0.00393701
  0
VERTEX
  8
0
 10
8.23133
 20
9.25956
 30
0.0
 40
0.00393701
 41
0.00393701
  0
VERTEX
  8
0
 10
8.22819
 20
9.23882
 30
0.0
 40
0.00393701
 41
0.00393701
  0
VERTEX
  8
0
 10
8.22715
 20
9.21967
 30
0.0
 40
0.00393701
 41
0.00393701
  0
VERTEX
  8
0
 10
8.22715
 20
9.21326
 30
0.0
 40
0.00393701
 41
0.00393701
  0
VERTEX
  8
0
 10
8.22715
 20
9.21326
 30
0.0
 40
0.00393701
 41
0.00393701
  0
VERTEX
  8
0
 10
8.23465
 20
9.21337
 30
0.0
 40
0.00393701
 41
0.00393701
  0
VERTEX
  8
0
 10
8.25271
 20
9.21289
 30
0.0
 40
0.00393701
 41
0.00393701
  0
VERTEX
  8
0
 10
8.27453
 20
9.2105
 30
0.0
 40
0.00393701
 41
0.00393701
  0
VERTEX
  8
0
 10
8.28896
 20
9.20714
 30
0.0
 40
0.00393701
 41
0.00393701
  0
VERTEX
  8
0
 10
8.29324
 20
9.20497
 30
0.0
 40
0.00393701
 41
0.00393701
  0
VERTEX
  8
0
 10
8.26019
 20
9.16368
 30
0.0
 40
0.00393701
 41
0.00393701
  0
VERTEX
  8
0
 10
8.35932
 20
9.0976
 30
0.0
 40
0.00393701
 41
0.00393701
  0
VERTEX
  8
0
 10
8.24365
 20
9.1059
 30
0.0
 40
0.00393701
 41
0.00393701
  0
VERTEX
  8
0
 10
8.22715
 20
9.0976
 30
0.0
 40
0.00393701
 41
0.00393701
  0
VERTEX
  8
0
 10
8.2354
 20
9.03982
 30
0.0
 40
0.00393701
 41
0.00393701
  0
VERTEX
  8
0
 10
8.19412
 20
9.07286
 30
0.0
 40
0.00393701
 41
0.00393701
  0
VERTEX
  8
0
 10
8.15886
 20
9.01997
 30
0.0
 40
0.00393701
 41
0.00393701
  0
VERTEX
  8
0
 10
8.14122
 20
8.99354
 30
0.0
 40
0.00393701
 41
0.00393701
  0
VERTEX
  8
0
 10
8.14122
 20
8.99354
 30
0.0
 40
0.00393701
 41
0.00393701
  0
VERTEX
  8
0
 10
8.13601
 20
8.98508
 30
0.0
 40
0.00393701
 41
0.00393701
  0
VERTEX
  8
0
 10
8.12528
 20
8.97108
 30
0.0
 40
0.00393701
 41
0.00393701
  0
VERTEX
  8
0
 10
8.1225
 20
8.96826
 30
0.0
 40
0.00393701
 41
0.00393701
  0
VERTEX
  8
0
 10
8.12261
 20
8.97021
 30
0.0
 40
0.00393701
 41
0.00393701
  0
VERTEX
  8
0
 10
8.12397
 20
8.98958
 30
0.0
 40
0.00393701
 41
0.00393701
  0
VERTEX
  8
0
 10
8.12679
 20
9.02897
 30
0.0
 40
0.00393701
 41
0.00393701
  0
VERTEX
  8
0
 10
8.1295
 20
9.06689
 30
0.0
 40
0.00393701
 41
0.00393701
  0
VERTEX
  8
0
 10
8.13075
 20
9.08388
 30
0.0
 40
0.00393701
 41
0.00393701
  0
VERTEX
  8
0
 10
8.13075
 20
9.08388
 30
0.0
 40
0.00393701
 41
0.00393701
  0
VERTEX
  8
0
 10
8.13069
 20
9.08496
 30
0.0
 40
0.00393701
 41
0.00393701
  0
VERTEX
  8
0
 10
8.12819
 20
9.09657
 30
0.0
 40
0.00393701
 41
0.00393701
  0
VERTEX
  8
0
 10
8.12804
 20
9.0976
 30
0.0
 40
0.00393701
 41
0.00393701
  0
VERTEX
  8
0
 10
8.12017
 20
9.09631
 30
0.0
 40
0.00393701
 41
0.00393701
  0
VERTEX
  8
0
 10
8.09392
 20
9.09104
 30
0.0
 40
0.00393701
 41
0.00393701
  0
VERTEX
  8
0
 10
8.0709
 20
9.09088
 30
0.0
 40
0.00393701
 41
0.00393701
  0
VERTEX
  8
0
 10
8.06467
 20
9.09213
 30
0.0
 40
0.00393701
 41
0.00393701
  0
VERTEX
  8
0
 10
8.10601
 20
9.1334
 30
0.0
 40
0.00393701
 41
0.00393701
  0
VERTEX
  8
0
 10
7.99858
 20
9.19949
 30
0.0
 40
0.00393701
 41
0.00393701
  0
VERTEX
  8
0
 10
8.12804
 20
9.20226
 30
0.0
 40
0.00393701
 41
0.00393701
  0
VERTEX
  8
0
 10
8.12756
 20
9.20611
 30
0.0
 40
0.00393701
 41
0.00393701
  0
VERTEX
  8
0
 10
8.1231
 20
9.22851
 30
0.0
 40
0.00393701
 41
0.00393701
  0
VERTEX
  8
0
 10
8.12522
 20
9.25444
 30
0.0
 40
0.00393701
 41
0.00393701
  0
VERTEX
  8
0
 10
8.12804
 20
9.26004
 30
0.0
 40
0.00393701
 41
0.00393701
  0
VERTEX
  8
0
 10
8.16932
 20
9.227
 30
0.0
 40
0.00393701
 41
0.00393701
  0
VERTEX
  8
0
 10
8.23264
 20
9.34267
 30
0.0
 40
0.00393701
 41
0.00393701
  0
SEQEND
 8
0
  0
POLYLINE
  8
0
 62
     0
 66
     1
 10
0
 20
0
 30
0.0
 70
     1
 40
0.283465
 41
0.283465
  0
VERTEX
  8
0
 10
7.89393
 20
9.10314
 30
0.0
 40
0.00393701
 41
0.00393701
  0
VERTEX
  8
0
 10
7.89415
 20
9.09967
 30
0.0
 40
0.00393701
 41
0.00393701
  0
VERTEX
  8
0
 10
7.89426
 20
9.07958
 30
0.0
 40
0.00393701
 41
0.00393701
  0
VERTEX
  8
0
 10
7.89578
 20
9.05974
 30
0.0
 40
0.00393701
 41
0.00393701
  0
VERTEX
  8
0
 10
7.89671
 20
9.05632
 30
0.0
 40
0.00393701
 41
0.00393701
  0
VERTEX
  8
0
 10
7.89774
 20
9.05231
 30
0.0
 40
0.00393701
 41
0.00393701
  0
VERTEX
  8
0
 10
7.90788
 20
9.03114
 30
0.0
 40
0.00393701
 41
0.00393701
  0
VERTEX
  8
0
 10
7.9196
 20
9.01053
 30
0.0
 40
0.00393701
 41
0.00393701
  0
VERTEX
  8
0
 10
7.9215
 20
9.00678
 30
0.0
 40
0.00393701
 41
0.00393701
  0
VERTEX
  8
0
 10
7.97657
 20
8.97097
 30
0.0
 40
0.00393701
 41
0.00393701
  0
VERTEX
  8
0
 10
7.9739
 20
8.96838
 30
0.0
 40
0.00393701
 41
0.00393701
  0
VERTEX
  8
0
 10
7.9521
 20
8.96436
 30
0.0
 40
0.00393701
 41
0.00393701
  0
VERTEX
  8
0
 10
7.92296
 20
8.9655
 30
0.0
 40
0.00393701
 41
0.00393701
  0
VERTEX
  8
0
 10
7.91325
 20
8.9655
 30
0.0
 40
0.00393701
 41
0.00393701
  0
VERTEX
  8
0
 10
7.89671
 20
8.94069
 30
0.0
 40
0.00393701
 41
0.00393701
  0
VERTEX
  8
0
 10
7.88021
 20
8.94894
 30
0.0
 40
0.00393701
 41
0.00393701
  0
VERTEX
  8
0
 10
7.84717
 20
8.89117
 30
0.0
 40
0.00393701
 41
0.00393701
  0
VERTEX
  8
0
 10
7.83339
 20
8.89388
 30
0.0
 40
0.00393701
 41
0.00393701
  0
VERTEX
  8
0
 10
7.84164
 20
8.93522
 30
0.0
 40
0.00393701
 41
0.00393701
  0
VERTEX
  8
0
 10
7.81685
 20
8.993
 30
0.0
 40
0.00393701
 41
0.00393701
  0
VERTEX
  8
0
 10
7.77279
 20
9.03157
 30
0.0
 40
0.00393701
 41
0.00393701
  0
VERTEX
  8
0
 10
7.77279
 20
9.03706
 30
0.0
 40
0.00393701
 41
0.00393701
  0
VERTEX
  8
0
 10
7.82238
 20
9.02881
 30
0.0
 40
0.00393701
 41
0.00393701
  0
VERTEX
  8
0
 10
7.8719
 20
9.0536
 30
0.0
 40
0.00393701
 41
0.00393701
  0
VERTEX
  8
0
 10
7.89393
 20
9.10314
 30
0.0
 40
0.00393701
 41
0.00393701
  0
SEQEND
 8
0
  0
POLYLINE
  8
0
 62
     0
 66
     1
 10
0
 20
0
 30
0.0
 70
     1
 40
0.283465
 41
0.283465
  0
VERTEX
  8
0
 10
8.10047
 20
8.81407
 30
0.0
 40
0.00393701
 41
0.00393701
  0
VERTEX
  8
0
 10
8.11974
 20
8.80854
 30
0.0
 40
0.00393701
 41
0.00393701
  0
VERTEX
  8
0
 10
8.095
 20
8.69293
 30
0.0
 40
0.00393701
 41
0.00393701
  0
VERTEX
  8
0
 10
8.10872
 20
8.67367
 30
0.0
 40
0.00393701
 41
0.00393701
  0
VERTEX
  8
0
 10
8.13629
 20
8.68468
 30
0.0
 40
0.00393701
 41
0.00393701
  0
VERTEX
  8
0
 10
8.13894
 20
8.68576
 30
0.0
 40
0.00393701
 41
0.00393701
  0
VERTEX
  8
0
 10
8.14849
 20
8.68837
 30
0.0
 40
0.00393701
 41
0.00393701
  0
VERTEX
  8
0
 10
8.15826
 20
8.68608
 30
0.0
 40
0.00393701
 41
0.00393701
  0
VERTEX
  8
0
 10
8.16108
 20
8.68468
 30
0.0
 40
0.00393701
 41
0.00393701
  0
VERTEX
  8
0
 10
8.12804
 20
8.64339
 30
0.0
 40
0.00393701
 41
0.00393701
  0
VERTEX
  8
0
 10
8.2354
 20
8.56907
 30
0.0
 40
0.00393701
 41
0.00393701
  0
VERTEX
  8
0
 10
8.22715
 20
8.56076
 30
0.0
 40
0.00393701
 41
0.00393701
  0
VERTEX
  8
0
 10
8.22157
 20
8.56201
 30
0.0
 40
0.00393701
 41
0.00393701
  0
VERTEX
  8
0
 10
8.19011
 20
8.56999
 30
0.0
 40
0.00393701
 41
0.00393701
  0
VERTEX
  8
0
 10
8.15847
 20
8.57671
 30
0.0
 40
0.00393701
 41
0.00393701
  0
VERTEX
  8
0
 10
8.15283
 20
8.57731
 30
0.0
 40
0.00393701
 41
0.00393701
  0
VERTEX
  8
0
 10
8.14974
 20
8.57769
 30
0.0
 40
0.00393701
 41
0.00393701
  0
VERTEX
  8
0
 10
8.12104
 20
8.57731
 30
0.0
 40
0.00393701
 41
0.00393701
  0
VERTEX
  8
0
 10
8.11149
 20
8.57731
 30
0.0
 40
0.00393701
 41
0.00393701
  0
VERTEX
  8
0
 10
8.11149
 20
8.51947
 30
0.0
 40
0.00393701
 41
0.00393701
  0
VERTEX
  8
0
 10
8.10325
 20
8.51124
 30
0.0
 40
0.00393701
 41
0.00393701
  0
VERTEX
  8
0
 10
8.06196
 20
8.55251
 30
0.0
 40
0.00393701
 41
0.00393701
  0
VERTEX
  8
0
 10
8.00413
 20
8.4369
 30
0.0
 40
0.00393701
 41
0.00393701
  0
VERTEX
  8
0
 10
7.99035
 20
8.43967
 30
0.0
 40
0.00393701
 41
0.00393701
  0
VERTEX
  8
0
 10
7.99175
 20
8.45042
 30
0.0
 40
0.00393701
 41
0.00393701
  0
VERTEX
  8
0
 10
7.99658
 20
8.48247
 30
0.0
 40
0.00393701
 41
0.00393701
  0
VERTEX
  8
0
 10
8.00222
 20
8.52061
 30
0.0
 40
0.00393701
 41
0.00393701
  0
VERTEX
  8
0
 10
8.00538
 20
8.55274
 30
0.0
 40
0.00393701
 41
0.00393701
  0
VERTEX
  8
0
 10
8.00532
 20
8.57135
 30
0.0
 40
0.00393701
 41
0.00393701
  0
VERTEX
  8
0
 10
8.00413
 20
8.57731
 30
0.0
 40
0.00393701
 41
0.00393701
  0
VERTEX
  8
0
 10
8.00146
 20
8.57687
 30
0.0
 40
0.00393701
 41
0.00393701
  0
VERTEX
  8
0
 10
7.97553
 20
8.57254
 30
0.0
 40
0.00393701
 41
0.00393701
  0
VERTEX
  8
0
 10
7.94542
 20
8.57086
 30
0.0
 40
0.00393701
 41
0.00393701
  0
VERTEX
  8
0
 10
7.94075
 20
8.57178
 30
0.0
 40
0.00393701
 41
0.00393701
  0
VERTEX
  8
0
 10
7.97379
 20
8.60482
 30
0.0
 40
0.00393701
 41
0.00393701
  0
VERTEX
  8
0
 10
7.95454
 20
8.6351
 30
0.0
 40
0.00393701
 41
0.00393701
  0
VERTEX
  8
0
 10
7.86643
 20
8.67914
 30
0.0
 40
0.00393701
 41
0.00393701
  0
VERTEX
  8
0
 10
7.89671
 20
8.69015
 30
0.0
 40
0.00393701
 41
0.00393701
  0
VERTEX
  8
0
 10
8.00413
 20
8.68192
 30
0.0
 40
0.00393701
 41
0.00393701
  0
VERTEX
  8
0
 10
8.00413
 20
8.68837
 30
0.0
 40
0.00393701
 41
0.00393701
  0
VERTEX
  8
0
 10
8.00142
 20
8.70757
 30
0.0
 40
0.00393701
 41
0.00393701
  0
VERTEX
  8
0
 10
7.99681
 20
8.74143
 30
0.0
 40
0.00393701
 41
0.00393701
  0
VERTEX
  8
0
 10
7.99582
 20
8.74799
 30
0.0
 40
0.00393701
 41
0.00393701
  0
VERTEX
  8
0
 10
8.03717
 20
8.69846
 30
0.0
 40
0.00393701
 41
0.00393701
  0
VERTEX
  8
0
 10
8.10047
 20
8.81407
 30
0.0
 40
0.00393701
 41
0.00393701
  0
SEQEND
 8
0
  0
POLYLINE
  8
0
 62
     0
 66
     1
 10
0
 20
0
 30
0.0
 70
     1
 40
0.283465
 41
0.283465
  0
VERTEX
  8
0
 10
5.45871
 20
8.52567
 30
0.0
 40
0.00393701
 41
0.00393701
  0
VERTEX
  8
0
 10
5.48725
 20
8.49197
 30
0.0
 40
0.00393701
 41
0.00393701
  0
VERTEX
  8
0
 10
5.59462
 20
8.45893
 30
0.0
 40
0.00393701
 41
0.00393701
  0
VERTEX
  8
0
 10
5.62765
 20
8.47542
 30
0.0
 40
0.00393701
 41
0.00393701
  0
VERTEX
  8
0
 10
5.58914
 20
8.50299
 30
0.0
 40
0.00393701
 41
0.00393701
  0
VERTEX
  8
0
 10
5.45871
 20
8.52567
 30
0.0
 40
0.00393701
 41
0.00393701
  0
SEQEND
 8
0
  0
POLYLINE
  8
0
 62
     0
 66
     1
 10
0
 20
0
 30
0.0
 70
     1
 40
0.283465
 41
0.283465
  0
VERTEX
  8
0
 10
8.38135
 20
8.3846
 30
0.0
 40
0.00393701
 41
0.00393701
  0
VERTEX
  8
0
 10
8.38411
 20
8.32954
 30
0.0
 40
0.00393701
 41
0.00393701
  0
VERTEX
  8
0
 10
8.41715
 20
8.30474
 30
0.0
 40
0.00393701
 41
0.00393701
  0
VERTEX
  8
0
 10
8.4089
 20
8.28825
 30
0.0
 40
0.00393701
 41
0.00393701
  0
VERTEX
  8
0
 10
8.45844
 20
8.24696
 30
0.0
 40
0.00393701
 41
0.00393701
  0
VERTEX
  8
0
 10
8.45019
 20
8.23867
 30
0.0
 40
0.00393701
 41
0.00393701
  0
VERTEX
  8
0
 10
8.4089
 20
8.24696
 30
0.0
 40
0.00393701
 41
0.00393701
  0
VERTEX
  8
0
 10
8.38411
 20
8.22217
 30
0.0
 40
0.00393701
 41
0.00393701
  0
VERTEX
  8
0
 10
8.36757
 20
8.23042
 30
0.0
 40
0.00393701
 41
0.00393701
  0
VERTEX
  8
0
 10
8.32628
 20
8.16433
 30
0.0
 40
0.00393701
 41
0.00393701
  0
VERTEX
  8
0
 10
8.3125
 20
8.1671
 30
0.0
 40
0.00393701
 41
0.00393701
  0
VERTEX
  8
0
 10
8.32081
 20
8.20839
 30
0.0
 40
0.00393701
 41
0.00393701
  0
VERTEX
  8
0
 10
8.29601
 20
8.24968
 30
0.0
 40
0.00393701
 41
0.00393701
  0
VERTEX
  8
0
 10
8.29601
 20
8.24968
 30
0.0
 40
0.00393701
 41
0.00393701
  0
VERTEX
  8
0
 10
8.29872
 20
8.25732
 30
0.0
 40
0.00393701
 41
0.00393701
  0
VERTEX
  8
0
 10
8.30149
 20
8.26812
 30
0.0
 40
0.00393701
 41
0.00393701
  0
VERTEX
  8
0
 10
8.30149
 20
8.27171
 30
0.0
 40
0.00393701
 41
0.00393701
  0
VERTEX
  8
0
 10
8.25467
 20
8.29926
 30
0.0
 40
0.00393701
 41
0.00393701
  0
VERTEX
  8
0
 10
8.25879
 20
8.30013
 30
0.0
 40
0.00393701
 41
0.00393701
  0
VERTEX
  8
0
 10
8.28282
 20
8.30306
 30
0.0
 40
0.00393701
 41
0.00393701
  0
VERTEX
  8
0
 10
8.30604
 20
8.30832
 30
0.0
 40
0.00393701
 41
0.00393701
  0
VERTEX
  8
0
 10
8.30979
 20
8.31028
 30
0.0
 40
0.00393701
 41
0.00393701
  0
VERTEX
  8
0
 10
8.31207
 20
8.31153
 30
0.0
 40
0.00393701
 41
0.00393701
  0
VERTEX
  8
0
 10
8.33262
 20
8.33317
 30
0.0
 40
0.00393701
 41
0.00393701
  0
VERTEX
  8
0
 10
8.33453
 20
8.33501
 30
0.0
 40
0.00393701
 41
0.00393701
  0
VERTEX
  8
0
 10
8.34283
 20
8.32676
 30
0.0
 40
0.00393701
 41
0.00393701
  0
VERTEX
  8
0
 10
8.38135
 20
8.3846
 30
0.0
 40
0.00393701
 41
0.00393701
  0
SEQEND
 8
0
  0
POLYLINE
  8
0
 62
     0
 66
     1
 10
0
 20
0
 30
0.0
 70
     1
 40
0.283465
 41
0.283465
  0
VERTEX
  8
0
 10
5.55447
 20
8.37939
 30
0.0
 40
0.00393701
 41
0.00393701
  0
VERTEX
  8
0
 10
5.61404
 20
8.33165
 30
0.0
 40
0.00393701
 41
0.00393701
  0
VERTEX
  8
0
 10
5.63639
 20
8.35736
 30
0.0
 40
0.00393701
 41
0.00393701
  0
VERTEX
  8
0
 10
5.59739
 20
8.37907
 30
0.0
 40
0.00393701
 41
0.00393701
  0
VERTEX
  8
0
 10
5.55447
 20
8.37939
 30
0.0
 40
0.00393701
 41
0.00393701
  0
SEQEND
 8
0
  0
POLYLINE
  8
0
 62
     0
 66
     1
 10
0
 20
0
 30
0.0
 70
     1
 40
0.283465
 41
0.283465
  0
VERTEX
  8
0
 10
5.71576
 20
8.35704
 30
0.0
 40
0.00393701
 41
0.00393701
  0
VERTEX
  8
0
 10
5.7105
 20
8.35215
 30
0.0
 40
0.00393701
 41
0.00393701
  0
VERTEX
  8
0
 10
5.69467
 20
8.33757
 30
0.0
 40
0.00393701
 41
0.00393701
  0
VERTEX
  8
0
 10
5.67936
 20
8.32264
 30
0.0
 40
0.00393701
 41
0.00393701
  0
VERTEX
  8
0
 10
5.66575
 20
8.30643
 30
0.0
 40
0.00393701
 41
0.00393701
  0
VERTEX
  8
0
 10
5.65349
 20
8.28874
 30
0.0
 40
0.00393701
 41
0.00393701
  0
VERTEX
  8
0
 10
5.64968
 20
8.28271
 30
0.0
 40
0.00393701
 41
0.00393701
  0
VERTEX
  8
0
 10
5.71576
 20
8.04318
 30
0.0
 40
0.00393701
 41
0.00393701
  0
VERTEX
  8
0
 10
5.7819
 20
7.58897
 30
0.0
 40
0.00393701
 41
0.00393701
  0
VERTEX
  8
0
 10
5.81765
 20
7.50087
 30
0.0
 40
0.00393701
 41
0.00393701
  0
VERTEX
  8
0
 10
5.859
 20
7.51736
 30
0.0
 40
0.00393701
 41
0.00393701
  0
VERTEX
  8
0
 10
5.98292
 20
7.64128
 30
0.0
 40
0.00393701
 41
0.00393701
  0
VERTEX
  8
0
 10
5.97814
 20
7.64399
 30
0.0
 40
0.00393701
 41
0.00393701
  0
VERTEX
  8
0
 10
5.95042
 20
7.65804
 30
0.0
 40
0.00393701
 41
0.00393701
  0
VERTEX
  8
0
 10
5.92372
 20
7.67361
 30
0.0
 40
0.00393701
 41
0.00393701
  0
VERTEX
  8
0
 10
5.91954
 20
7.67703
 30
0.0
 40
0.00393701
 41
0.00393701
  0
VERTEX
  8
0
 10
5.9151
 20
7.68067
 30
0.0
 40
0.00393701
 41
0.00393701
  0
VERTEX
  8
0
 10
5.89372
 20
7.70492
 30
0.0
 40
0.00393701
 41
0.00393701
  0
VERTEX
  8
0
 10
5.87369
 20
7.73053
 30
0.0
 40
0.00393701
 41
0.00393701
  0
VERTEX
  8
0
 10
5.87001
 20
7.73486
 30
0.0
 40
0.00393701
 41
0.00393701
  0
VERTEX
  8
0
 10
5.86236
 20
7.75201
 30
0.0
 40
0.00393701
 41
0.00393701
  0
VERTEX
  8
0
 10
5.81717
 20
7.84842
 30
0.0
 40
0.00393701
 41
0.00393701
  0
VERTEX
  8
0
 10
5.77453
 20
7.94575
 30
0.0
 40
0.00393701
 41
0.00393701
  0
VERTEX
  8
0
 10
5.76812
 20
7.96337
 30
0.0
 40
0.00393701
 41
0.00393701
  0
VERTEX
  8
0
 10
5.76503
 20
7.9719
 30
0.0
 40
0.00393701
 41
0.00393701
  0
VERTEX
  8
0
 10
5.75065
 20
8.02094
 30
0.0
 40
0.00393701
 41
0.00393701
  0
VERTEX
  8
0
 10
5.73753
 20
8.07036
 30
0.0
 40
0.00393701
 41
0.00393701
  0
VERTEX
  8
0
 10
5.73508
 20
8.079
 30
0.0
 40
0.00393701
 41
0.00393701
  0
VERTEX
  8
0
 10
5.72954
 20
8.36257
 30
0.0
 40
0.00393701
 41
0.00393701
  0
VERTEX
  8
0
 10
5.71576
 20
8.35704
 30
0.0
 40
0.00393701
 41
0.00393701
  0
SEQEND
 8
0
  0
POLYLINE
  8
0
 62
     0
 66
     1
 10
0
 20
0
 30
0.0
 70
     1
 40
0.283465
 41
0.283465
  0
VERTEX
  8
0
 10
8.11703
 20
8.12028
 30
0.0
 40
0.00393701
 41
0.00393701
  0
VERTEX
  8
0
 10
8.10325
 20
7.99918
 30
0.0
 40
0.00393701
 41
0.00393701
  0
VERTEX
  8
0
 10
8.11149
 20
7.98264
 30
0.0
 40
0.00393701
 41
0.00393701
  0
VERTEX
  8
0
 10
8.1166
 20
7.98264
 30
0.0
 40
0.00393701
 41
0.00393701
  0
VERTEX
  8
0
 10
8.13194
 20
7.9866
 30
0.0
 40
0.00393701
 41
0.00393701
  0
VERTEX
  8
0
 10
8.14606
 20
7.99447
 30
0.0
 40
0.00393701
 41
0.00393701
  0
VERTEX
  8
0
 10
8.15007
 20
7.99642
 30
0.0
 40
0.00393701
 41
0.00393701
  0
VERTEX
  8
0
 10
8.16108
 20
7.98264
 30
0.0
 40
0.00393701
 41
0.00393701
  0
VERTEX
  8
0
 10
8.13629
 20
7.9496
 30
0.0
 40
0.00393701
 41
0.00393701
  0
VERTEX
  8
0
 10
8.24094
 20
7.88081
 30
0.0
 40
0.00393701
 41
0.00393701
  0
VERTEX
  8
0
 10
8.2354
 20
7.87528
 30
0.0
 40
0.00393701
 41
0.00393701
  0
VERTEX
  8
0
 10
8.11974
 20
7.89176
 30
0.0
 40
0.00393701
 41
0.00393701
  0
VERTEX
  8
0
 10
8.10325
 20
7.88351
 30
0.0
 40
0.00393701
 41
0.00393701
  0
VERTEX
  8
0
 10
8.11149
 20
7.83399
 30
0.0
 40
0.00393701
 41
0.00393701
  0
VERTEX
  8
0
 10
8.07021
 20
7.85878
 30
0.0
 40
0.00393701
 41
0.00393701
  0
VERTEX
  8
0
 10
8.06862
 20
7.85628
 30
0.0
 40
0.00393701
 41
0.00393701
  0
VERTEX
  8
0
 10
8.05143
 20
7.82829
 30
0.0
 40
0.00393701
 41
0.00393701
  0
VERTEX
  8
0
 10
8.04953
 20
7.82519
 30
0.0
 40
0.00393701
 41
0.00393701
  0
VERTEX
  8
0
 10
8.04953
 20
7.82519
 30
0.0
 40
0.00393701
 41
0.00393701
  0
VERTEX
  8
0
 10
8.04699
 20
7.82118
 30
0.0
 40
0.00393701
 41
0.00393701
  0
VERTEX
  8
0
 10
8.04144
 20
7.81213
 30
0.0
 40
0.00393701
 41
0.00393701
  0
VERTEX
  8
0
 10
8.03581
 20
7.80296
 30
0.0
 40
0.00393701
 41
0.00393701
  0
VERTEX
  8
0
 10
8.03315
 20
7.79861
 30
0.0
 40
0.00393701
 41
0.00393701
  0
VERTEX
  8
0
 10
8.03304
 20
7.79833
 30
0.0
 40
0.00393701
 41
0.00393701
  0
VERTEX
  8
0
 10
8.03271
 20
7.7979
 30
0.0
 40
0.00393701
 41
0.00393701
  0
VERTEX
  8
0
 10
8.0286
 20
7.7909
 30
0.0
 40
0.00393701
 41
0.00393701
  0
VERTEX
  8
0
 10
8.01926
 20
7.77539
 30
0.0
 40
0.00393701
 41
0.00393701
  0
VERTEX
  8
0
 10
8.00814
 20
7.75825
 30
0.0
 40
0.00393701
 41
0.00393701
  0
VERTEX
  8
0
 10
8.00114
 20
7.74849
 30
0.0
 40
0.00393701
 41
0.00393701
  0
VERTEX
  8
0
 10
7.99858
 20
7.74588
 30
0.0
 40
0.00393701
 41
0.00393701
  0
VERTEX
  8
0
 10
8.01514
 20
7.86979
 30
0.0
 40
0.00393701
 41
0.00393701
  0
VERTEX
  8
0
 10
8.00413
 20
7.89176
 30
0.0
 40
0.00393701
 41
0.00393701
  0
VERTEX
  8
0
 10
8.00017
 20
7.89019
 30
0.0
 40
0.00393701
 41
0.00393701
  0
VERTEX
  8
0
 10
7.97965
 20
7.88075
 30
0.0
 40
0.00393701
 41
0.00393701
  0
VERTEX
  8
0
 10
7.95508
 20
7.87685
 30
0.0
 40
0.00393701
 41
0.00393701
  0
VERTEX
  8
0
 10
7.94906
 20
7.87804
 30
0.0
 40
0.00393701
 41
0.00393701
  0
VERTEX
  8
0
 10
7.9821
 20
7.91932
 30
0.0
 40
0.00393701
 41
0.00393701
  0
VERTEX
  8
0
 10
7.97108
 20
7.94135
 30
0.0
 40
0.00393701
 41
0.00393701
  0
VERTEX
  8
0
 10
7.86643
 20
7.99365
 30
0.0
 40
0.00393701
 41
0.00393701
  0
VERTEX
  8
0
 10
7.89671
 20
8.00467
 30
0.0
 40
0.00393701
 41
0.00393701
  0
VERTEX
  8
0
 10
7.90104
 20
8.00347
 30
0.0
 40
0.00393701
 41
0.00393701
  0
VERTEX
  8
0
 10
7.9254
 20
7.99556
 30
0.0
 40
0.00393701
 41
0.00393701
  0
VERTEX
  8
0
 10
7.95003
 20
7.98882
 30
0.0
 40
0.00393701
 41
0.00393701
  0
VERTEX
  8
0
 10
7.95454
 20
7.98817
 30
0.0
 40
0.00393701
 41
0.00393701
  0
VERTEX
  8
0
 10
7.95817
 20
7.98768
 30
0.0
 40
0.00393701
 41
0.00393701
  0
VERTEX
  8
0
 10
7.97922
 20
7.98742
 30
0.0
 40
0.00393701
 41
0.00393701
  0
VERTEX
  8
0
 10
7.99789
 20
7.98817
 30
0.0
 40
0.00393701
 41
0.00393701
  0
VERTEX
  8
0
 10
8.00413
 20
7.98817
 30
0.0
 40
0.00393701
 41
0.00393701
  0
VERTEX
  8
0
 10
8.00379
 20
7.99143
 30
0.0
 40
0.00393701
 41
0.00393701
  0
VERTEX
  8
0
 10
8.00201
 20
8.00103
 30
0.0
 40
0.00393701
 41
0.00393701
  0
VERTEX
  8
0
 10
7.99951
 20
8.01801
 30
0.0
 40
0.00393701
 41
0.00393701
  0
VERTEX
  8
0
 10
7.99935
 20
8.03663
 30
0.0
 40
0.00393701
 41
0.00393701
  0
VERTEX
  8
0
 10
8.00211
 20
8.05024
 30
0.0
 40
0.00393701
 41
0.00393701
  0
VERTEX
  8
0
 10
8.00413
 20
8.05419
 30
0.0
 40
0.00393701
 41
0.00393701
  0
VERTEX
  8
0
 10
8.04542
 20
8.02115
 30
0.0
 40
0.00393701
 41
0.00393701
  0
VERTEX
  8
0
 10
8.04542
 20
8.02115
 30
0.0
 40
0.00393701
 41
0.00393701
  0
VERTEX
  8
0
 10
8.04833
 20
8.02533
 30
0.0
 40
0.00393701
 41
0.00393701
  0
VERTEX
  8
0
 10
8.05615
 20
8.03629
 30
0.0
 40
0.00393701
 41
0.00393701
  0
VERTEX
  8
0
 10
8.06728
 20
8.05181
 30
0.0
 40
0.00393701
 41
0.00393701
  0
VERTEX
  8
0
 10
8.08014
 20
8.06967
 30
0.0
 40
0.00393701
 41
0.00393701
  0
VERTEX
  8
0
 10
8.0931
 20
8.08768
 30
0.0
 40
0.00393701
 41
0.00393701
  0
VERTEX
  8
0
 10
8.1046
 20
8.10363
 30
0.0
 40
0.00393701
 41
0.00393701
  0
VERTEX
  8
0
 10
8.11313
 20
8.11524
 30
0.0
 40
0.00393701
 41
0.00393701
  0
VERTEX
  8
0
 10
8.11626
 20
8.11957
 30
0.0
 40
0.00393701
 41
0.00393701
  0
VERTEX
  8
0
 10
8.11703
 20
8.12028
 30
0.0
 40
0.00393701
 41
0.00393701
  0
SEQEND
 8
0
  0
POLYLINE
  8
0
 62
     0
 66
     1
 10
0
 20
0
 30
0.0
 70
     1
 40
0.283465
 41
0.283465
  0
VERTEX
  8
0
 10
7.8444
 20
7.69906
 30
0.0
 40
0.00393701
 41
0.00393701
  0
VERTEX
  8
0
 10
7.85542
 20
7.69358
 30
0.0
 40
0.00393701
 41
0.00393701
  0
VERTEX
  8
0
 10
7.84717
 20
7.65229
 30
0.0
 40
0.00393701
 41
0.00393701
  0
VERTEX
  8
0
 10
7.86919
 20
7.64128
 30
0.0
 40
0.00393701
 41
0.00393701
  0
VERTEX
  8
0
 10
7.8719
 20
7.611
 30
0.0
 40
0.00393701
 41
0.00393701
  0
VERTEX
  8
0
 10
7.91325
 20
7.57796
 30
0.0
 40
0.00393701
 41
0.00393701
  0
VERTEX
  8
0
 10
7.9126
 20
7.57736
 30
0.0
 40
0.00393701
 41
0.00393701
  0
VERTEX
  8
0
 10
7.90576
 20
7.56993
 30
0.0
 40
0.00393701
 41
0.00393701
  0
VERTEX
  8
0
 10
7.90494
 20
7.56967
 30
0.0
 40
0.00393701
 41
0.00393701
  0
VERTEX
  8
0
 10
7.90246
 20
7.56901
 30
0.0
 40
0.00393701
 41
0.00393701
  0
VERTEX
  8
0
 10
7.88846
 20
7.57189
 30
0.0
 40
0.00393701
 41
0.00393701
  0
VERTEX
  8
0
 10
7.87435
 20
7.57736
 30
0.0
 40
0.00393701
 41
0.00393701
  0
VERTEX
  8
0
 10
7.8719
 20
7.57796
 30
0.0
 40
0.00393701
 41
0.00393701
  0
VERTEX
  8
0
 10
7.82238
 20
7.55317
 30
0.0
 40
0.00393701
 41
0.00393701
  0
VERTEX
  8
0
 10
7.79758
 20
7.49533
 30
0.0
 40
0.00393701
 41
0.00393701
  0
VERTEX
  8
0
 10
7.78381
 20
7.4981
 30
0.0
 40
0.00393701
 41
0.00393701
  0
VERTEX
  8
0
 10
7.7844
 20
7.5006
 30
0.0
 40
0.00393701
 41
0.00393701
  0
VERTEX
  8
0
 10
7.79172
 20
7.52865
 30
0.0
 40
0.00393701
 41
0.00393701
  0
VERTEX
  8
0
 10
7.79204
 20
7.53114
 30
0.0
 40
0.00393701
 41
0.00393701
  0
VERTEX
  8
0
 10
7.79232
 20
7.53364
 30
0.0
 40
0.00393701
 41
0.00393701
  0
VERTEX
  8
0
 10
7.79204
 20
7.55658
 30
0.0
 40
0.00393701
 41
0.00393701
  0
VERTEX
  8
0
 10
7.79204
 20
7.56418
 30
0.0
 40
0.00393701
 41
0.00393701
  0
VERTEX
  8
0
 10
7.76731
 20
7.57243
 30
0.0
 40
0.00393701
 41
0.00393701
  0
VERTEX
  8
0
 10
7.76731
 20
7.59722
 30
0.0
 40
0.00393701
 41
0.00393701
  0
VERTEX
  8
0
 10
7.71772
 20
7.63026
 30
0.0
 40
0.00393701
 41
0.00393701
  0
VERTEX
  8
0
 10
7.78933
 20
7.64128
 30
0.0
 40
0.00393701
 41
0.00393701
  0
VERTEX
  8
0
 10
7.78933
 20
7.64421
 30
0.0
 40
0.00393701
 41
0.00393701
  0
VERTEX
  8
0
 10
7.78819
 20
7.653
 30
0.0
 40
0.00393701
 41
0.00393701
  0
VERTEX
  8
0
 10
7.78489
 20
7.66114
 30
0.0
 40
0.00393701
 41
0.00393701
  0
VERTEX
  8
0
 10
7.78381
 20
7.66331
 30
0.0
 40
0.00393701
 41
0.00393701
  0
VERTEX
  8
0
 10
7.78483
 20
7.66351
 30
0.0
 40
0.00393701
 41
0.00393701
  0
VERTEX
  8
0
 10
7.7966
 20
7.66656
 30
0.0
 40
0.00393701
 41
0.00393701
  0
VERTEX
  8
0
 10
7.79758
 20
7.66607
 30
0.0
 40
0.00393701
 41
0.00393701
  0
VERTEX
  8
0
 10
7.79883
 20
7.66547
 30
0.0
 40
0.00393701
 41
0.00393701
  0
VERTEX
  8
0
 10
7.80263
 20
7.65875
 30
0.0
 40
0.00393701
 41
0.00393701
  0
VERTEX
  8
0
 10
7.80518
 20
7.65076
 30
0.0
 40
0.00393701
 41
0.00393701
  0
VERTEX
  8
0
 10
7.80583
 20
7.64953
 30
0.0
 40
0.00393701
 41
0.00393701
  0
VERTEX
  8
0
 10
7.8444
 20
7.69906
 30
0.0
 40
0.00393701
 41
0.00393701
  0
SEQEND
 8
0
  0
POLYLINE
  8
0
 62
     0
 66
     1
 10
0
 20
0
 30
0.0
 70
     1
 40
0.283465
 41
0.283465
  0
VERTEX
  8
0
 10
7.86089
 20
7.33567
 30
0.0
 40
0.00393701
 41
0.00393701
  0
VERTEX
  8
0
 10
7.86919
 20
7.23654
 30
0.0
 40
0.00393701
 41
0.00393701
  0
VERTEX
  8
0
 10
7.87289
 20
7.23779
 30
0.0
 40
0.00393701
 41
0.00393701
  0
VERTEX
  8
0
 10
7.88656
 20
7.24283
 30
0.0
 40
0.00393701
 41
0.00393701
  0
VERTEX
  8
0
 10
7.90093
 20
7.24132
 30
0.0
 40
0.00393701
 41
0.00393701
  0
VERTEX
  8
0
 10
7.90494
 20
7.23931
 30
0.0
 40
0.00393701
 41
0.00393701
  0
VERTEX
  8
0
 10
7.88846
 20
7.21451
 30
0.0
 40
0.00393701
 41
0.00393701
  0
VERTEX
  8
0
 10
7.97108
 20
7.15674
 30
0.0
 40
0.00393701
 41
0.00393701
  0
VERTEX
  8
0
 10
7.96278
 20
7.14849
 30
0.0
 40
0.00393701
 41
0.00393701
  0
VERTEX
  8
0
 10
7.86367
 20
7.15674
 30
0.0
 40
0.00393701
 41
0.00393701
  0
VERTEX
  8
0
 10
7.8719
 20
7.11546
 30
0.0
 40
0.00393701
 41
0.00393701
  0
VERTEX
  8
0
 10
7.83886
 20
7.14019
 30
0.0
 40
0.00393701
 41
0.00393701
  0
VERTEX
  8
0
 10
7.79758
 20
7.07417
 30
0.0
 40
0.00393701
 41
0.00393701
  0
VERTEX
  8
0
 10
7.78381
 20
7.07688
 30
0.0
 40
0.00393701
 41
0.00393701
  0
VERTEX
  8
0
 10
7.77279
 20
7.16499
 30
0.0
 40
0.00393701
 41
0.00393701
  0
VERTEX
  8
0
 10
7.77214
 20
7.16439
 30
0.0
 40
0.00393701
 41
0.00393701
  0
VERTEX
  8
0
 10
7.7654
 20
7.15679
 30
0.0
 40
0.00393701
 41
0.00393701
  0
VERTEX
  8
0
 10
7.76454
 20
7.15674
 30
0.0
 40
0.00393701
 41
0.00393701
  0
VERTEX
  8
0
 10
7.76318
 20
7.15668
 30
0.0
 40
0.00393701
 41
0.00393701
  0
VERTEX
  8
0
 10
7.75179
 20
7.16694
 30
0.0
 40
0.00393701
 41
0.00393701
  0
VERTEX
  8
0
 10
7.75076
 20
7.16775
 30
0.0
 40
0.00393701
 41
0.00393701
  0
VERTEX
  8
0
 10
7.76731
 20
7.18425
 30
0.0
 40
0.00393701
 41
0.00393701
  0
VERTEX
  8
0
 10
7.68468
 20
7.24208
 30
0.0
 40
0.00393701
 41
0.00393701
  0
VERTEX
  8
0
 10
7.69015
 20
7.2531
 30
0.0
 40
0.00393701
 41
0.00393701
  0
VERTEX
  8
0
 10
7.77279
 20
7.23654
 30
0.0
 40
0.00393701
 41
0.00393701
  0
VERTEX
  8
0
 10
7.79204
 20
7.25032
 30
0.0
 40
0.00393701
 41
0.00393701
  0
VERTEX
  8
0
 10
7.79139
 20
7.25222
 30
0.0
 40
0.00393701
 41
0.00393701
  0
VERTEX
  8
0
 10
7.78364
 20
7.27317
 30
0.0
 40
0.00393701
 41
0.00393701
  0
VERTEX
  8
0
 10
7.78381
 20
7.27513
 30
0.0
 40
0.00393701
 41
0.00393701
  0
VERTEX
  8
0
 10
7.78386
 20
7.27604
 30
0.0
 40
0.00393701
 41
0.00393701
  0
VERTEX
  8
0
 10
7.7889
 20
7.28532
 30
0.0
 40
0.00393701
 41
0.00393701
  0
VERTEX
  8
0
 10
7.78933
 20
7.28614
 30
0.0
 40
0.00393701
 41
0.00393701
  0
VERTEX
  8
0
 10
7.81413
 20
7.26133
 30
0.0
 40
0.00393701
 41
0.00393701
  0
VERTEX
  8
0
 10
7.86089
 20
7.33567
 30
0.0
 40
0.00393701
 41
0.00393701
  0
SEQEND
 8
0
  0
POLYLINE
  8
0
 62
     0
 66
     1
 10
0
 20
0
 30
0.0
 70
     1
 40
0.283465
 41
0.283465
  0
VERTEX
  8
0
 10
8.18311
 20
7.17051
 30
0.0
 40
0.00393701
 41
0.00393701
  0
VERTEX
  8
0
 10
8.19412
 20
7.16499
 30
0.0
 40
0.00393701
 41
0.00393701
  0
VERTEX
  8
0
 10
8.18587
 20
7.11546
 30
0.0
 40
0.00393701
 41
0.00393701
  0
VERTEX
  8
0
 10
8.21061
 20
7.0989
 30
0.0
 40
0.00393701
 41
0.00393701
  0
VERTEX
  8
0
 10
8.20236
 20
7.09065
 30
0.0
 40
0.00393701
 41
0.00393701
  0
VERTEX
  8
0
 10
8.26844
 20
7.04113
 30
0.0
 40
0.00393701
 41
0.00393701
  0
VERTEX
  8
0
 10
8.26019
 20
7.03282
 30
0.0
 40
0.00393701
 41
0.00393701
  0
VERTEX
  8
0
 10
8.21892
 20
7.04113
 30
0.0
 40
0.00393701
 41
0.00393701
  0
VERTEX
  8
0
 10
8.18587
 20
7.01633
 30
0.0
 40
0.00393701
 41
0.00393701
  0
VERTEX
  8
0
 10
8.16932
 20
7.02458
 30
0.0
 40
0.00393701
 41
0.00393701
  0
VERTEX
  8
0
 10
8.12804
 20
6.96674
 30
0.0
 40
0.00393701
 41
0.00393701
  0
VERTEX
  8
0
 10
8.11426
 20
6.96951
 30
0.0
 40
0.00393701
 41
0.00393701
  0
VERTEX
  8
0
 10
8.11426
 20
6.96951
 30
0.0
 40
0.00393701
 41
0.00393701
  0
VERTEX
  8
0
 10
8.11578
 20
6.97532
 30
0.0
 40
0.00393701
 41
0.00393701
  0
VERTEX
  8
0
 10
8.11914
 20
6.98817
 30
0.0
 40
0.00393701
 41
0.00393701
  0
VERTEX
  8
0
 10
8.12267
 20
7.00151
 30
0.0
 40
0.00393701
 41
0.00393701
  0
VERTEX
  8
0
 10
8.1244
 20
7.00808
 30
0.0
 40
0.00393701
 41
0.00393701
  0
VERTEX
  8
0
 10
8.12457
 20
7.00874
 30
0.0
 40
0.00393701
 41
0.00393701
  0
VERTEX
  8
0
 10
8.12532
 20
7.01172
 30
0.0
 40
0.00393701
 41
0.00393701
  0
VERTEX
  8
0
 10
8.12744
 20
7.02094
 30
0.0
 40
0.00393701
 41
0.00393701
  0
VERTEX
  8
0
 10
8.12804
 20
7.02989
 30
0.0
 40
0.00393701
 41
0.00393701
  0
VERTEX
  8
0
 10
8.12804
 20
7.03282
 30
0.0
 40
0.00393701
 41
0.00393701
  0
VERTEX
  8
0
 10
8.09771
 20
7.04383
 30
0.0
 40
0.00393701
 41
0.00393701
  0
VERTEX
  8
0
 10
8.10601
 20
7.06039
 30
0.0
 40
0.00393701
 41
0.00393701
  0
VERTEX
  8
0
 10
8.06467
 20
7.09343
 30
0.0
 40
0.00393701
 41
0.00393701
  0
VERTEX
  8
0
 10
8.11149
 20
7.10444
 30
0.0
 40
0.00393701
 41
0.00393701
  0
VERTEX
  8
0
 10
8.1225
 20
7.12646
 30
0.0
 40
0.00393701
 41
0.00393701
  0
VERTEX
  8
0
 10
8.15283
 20
7.12918
 30
0.0
 40
0.00393701
 41
0.00393701
  0
VERTEX
  8
0
 10
8.18311
 20
7.17051
 30
0.0
 40
0.00393701
 41
0.00393701
  0
SEQEND
 8
0
  0
POLYLINE
  8
0
 62
     0
 66
     1
 10
0
 20
0
 30
0.0
 70
     1
 40
0.283465
 41
0.283465
  0
VERTEX
  8
0
 10
5.41015
 20
6.96951
 30
0.0
 40
0.00393701
 41
0.00393701
  0
VERTEX
  8
0
 10
5.40539
 20
6.9656
 30
0.0
 40
0.00393701
 41
0.00393701
  0
VERTEX
  8
0
 10
5.37776
 20
6.94412
 30
0.0
 40
0.00393701
 41
0.00393701
  0
VERTEX
  8
0
 10
5.35107
 20
6.92165
 30
0.0
 40
0.00393701
 41
0.00393701
  0
VERTEX
  8
0
 10
5.34679
 20
6.91721
 30
0.0
 40
0.00393701
 41
0.00393701
  0
VERTEX
  8
0
 10
5.33817
 20
6.90842
 30
0.0
 40
0.00393701
 41
0.00393701
  0
VERTEX
  8
0
 10
5.29438
 20
6.85385
 30
0.0
 40
0.00393701
 41
0.00393701
  0
VERTEX
  8
0
 10
5.25256
 20
6.79753
 30
0.0
 40
0.00393701
 41
0.00393701
  0
VERTEX
  8
0
 10
5.2449
 20
6.78782
 30
0.0
 40
0.00393701
 41
0.00393701
  0
VERTEX
  8
0
 10
5.24767
 20
6.77403
 30
0.0
 40
0.00393701
 41
0.00393701
  0
VERTEX
  8
0
 10
5.25592
 20
6.77403
 30
0.0
 40
0.00393701
 41
0.00393701
  0
VERTEX
  8
0
 10
5.27826
 20
6.77354
 30
0.0
 40
0.00393701
 41
0.00393701
  0
VERTEX
  8
0
 10
5.28071
 20
6.77403
 30
0.0
 40
0.00393701
 41
0.00393701
  0
VERTEX
  8
0
 10
5.28532
 20
6.77501
 30
0.0
 40
0.00393701
 41
0.00393701
  0
VERTEX
  8
0
 10
5.31054
 20
6.78413
 30
0.0
 40
0.00393701
 41
0.00393701
  0
VERTEX
  8
0
 10
5.33453
 20
6.79633
 30
0.0
 40
0.00393701
 41
0.00393701
  0
VERTEX
  8
0
 10
5.33854
 20
6.79883
 30
0.0
 40
0.00393701
 41
0.00393701
  0
VERTEX
  8
0
 10
5.34407
 20
6.80236
 30
0.0
 40
0.00393701
 41
0.00393701
  0
VERTEX
  8
0
 10
5.3725
 20
6.82656
 30
0.0
 40
0.00393701
 41
0.00393701
  0
VERTEX
  8
0
 10
5.39963
 20
6.85232
 30
0.0
 40
0.00393701
 41
0.00393701
  0
VERTEX
  8
0
 10
5.40462
 20
6.85667
 30
0.0
 40
0.00393701
 41
0.00393701
  0
VERTEX
  8
0
 10
5.46246
 20
6.94749
 30
0.0
 40
0.00393701
 41
0.00393701
  0
VERTEX
  8
0
 10
5.42389
 20
6.97504
 30
0.0
 40
0.00393701
 41
0.00393701
  0
VERTEX
  8
0
 10
5.41015
 20
6.96951
 30
0.0
 40
0.00393701
 41
0.00393701
  0
SEQEND
 8
0
  0
POLYLINE
  8
0
 62
     0
 66
     1
 10
0
 20
0
 30
0.0
 70
     1
 40
0.283465
 41
0.283465
  0
VERTEX
  8
0
 10
7.92703
 20
6.79883
 30
0.0
 40
0.00393701
 41
0.00393701
  0
VERTEX
  8
0
 10
7.92974
 20
6.73551
 30
0.0
 40
0.00393701
 41
0.00393701
  0
VERTEX
  8
0
 10
7.95454
 20
6.71897
 30
0.0
 40
0.00393701
 41
0.00393701
  0
VERTEX
  8
0
 10
7.94629
 20
6.71072
 30
0.0
 40
0.00393701
 41
0.00393701
  0
VERTEX
  8
0
 10
7.99582
 20
6.66943
 30
0.0
 40
0.00393701
 41
0.00393701
  0
VERTEX
  8
0
 10
7.99517
 20
6.66883
 30
0.0
 40
0.00393701
 41
0.00393701
  0
VERTEX
  8
0
 10
7.98839
 20
6.66146
 30
0.0
 40
0.00393701
 41
0.00393701
  0
VERTEX
  8
0
 10
7.98757
 20
6.66118
 30
0.0
 40
0.00393701
 41
0.00393701
  0
VERTEX
  8
0
 10
7.98508
 20
6.66054
 30
0.0
 40
0.00393701
 41
0.00393701
  0
VERTEX
  8
0
 10
7.97108
 20
6.66336
 30
0.0
 40
0.00393701
 41
0.00393701
  0
VERTEX
  8
0
 10
7.95697
 20
6.66883
 30
0.0
 40
0.00393701
 41
0.00393701
  0
VERTEX
  8
0
 10
7.95454
 20
6.66943
 30
0.0
 40
0.00393701
 41
0.00393701
  0
VERTEX
  8
0
 10
7.92974
 20
6.63639
 30
0.0
 40
0.00393701
 41
0.00393701
  0
VERTEX
  8
0
 10
7.90494
 20
6.64464
 30
0.0
 40
0.00393701
 41
0.00393701
  0
VERTEX
  8
0
 10
7.88021
 20
6.60335
 30
0.0
 40
0.00393701
 41
0.00393701
  0
VERTEX
  8
0
 10
7.86643
 20
6.60612
 30
0.0
 40
0.00393701
 41
0.00393701
  0
VERTEX
  8
0
 10
7.86643
 20
6.65565
 30
0.0
 40
0.00393701
 41
0.00393701
  0
VERTEX
  8
0
 10
7.84164
 20
6.67219
 30
0.0
 40
0.00393701
 41
0.00393701
  0
VERTEX
  8
0
 10
7.84261
 20
6.67426
 30
0.0
 40
0.00393701
 41
0.00393701
  0
VERTEX
  8
0
 10
7.84592
 20
6.68201
 30
0.0
 40
0.00393701
 41
0.00393701
  0
VERTEX
  8
0
 10
7.84717
 20
6.69119
 30
0.0
 40
0.00393701
 41
0.00393701
  0
VERTEX
  8
0
 10
7.84717
 20
6.69422
 30
0.0
 40
0.00393701
 41
0.00393701
  0
VERTEX
  8
0
 10
7.80035
 20
6.72174
 30
0.0
 40
0.00393701
 41
0.00393701
  0
VERTEX
  8
0
 10
7.84717
 20
6.7245
 30
0.0
 40
0.00393701
 41
0.00393701
  0
VERTEX
  8
0
 10
7.8719
 20
6.75754
 30
0.0
 40
0.00393701
 41
0.00393701
  0
VERTEX
  8
0
 10
7.88846
 20
6.74929
 30
0.0
 40
0.00393701
 41
0.00393701
  0
VERTEX
  8
0
 10
7.88846
 20
6.74929
 30
0.0
 40
0.00393701
 41
0.00393701
  0
VERTEX
  8
0
 10
7.89404
 20
6.75667
 30
0.0
 40
0.00393701
 41
0.00393701
  0
VERTEX
  8
0
 10
7.90657
 20
6.773
 30
0.0
 40
0.00393701
 41
0.00393701
  0
VERTEX
  8
0
 10
7.91971
 20
6.78988
 30
0.0
 40
0.00393701
 41
0.00393701
  0
VERTEX
  8
0
 10
7.92626
 20
6.79812
 30
0.0
 40
0.00393701
 41
0.00393701
  0
VERTEX
  8
0
 10
7.92703
 20
6.79883
 30
0.0
 40
0.00393701
 41
0.00393701
  0
SEQEND
 8
0
  0
POLYLINE
  8
0
 62
     0
 66
     1
 10
0
 20
0
 30
0.0
 70
     1
 40
0.283465
 41
0.283465
  0
VERTEX
  8
0
 10
7.53874
 20
6.77403
 30
0.0
 40
0.00393701
 41
0.00393701
  0
VERTEX
  8
0
 10
7.5415
 20
6.72726
 30
0.0
 40
0.00393701
 41
0.00393701
  0
VERTEX
  8
0
 10
7.60482
 20
6.65842
 30
0.0
 40
0.00393701
 41
0.00393701
  0
VERTEX
  8
0
 10
7.60221
 20
6.65582
 30
0.0
 40
0.00393701
 41
0.00393701
  0
VERTEX
  8
0
 10
7.58029
 20
6.65181
 30
0.0
 40
0.00393701
 41
0.00393701
  0
VERTEX
  8
0
 10
7.55735
 20
6.65294
 30
0.0
 40
0.00393701
 41
0.00393701
  0
VERTEX
  8
0
 10
7.54975
 20
6.65294
 30
0.0
 40
0.00393701
 41
0.00393701
  0
VERTEX
  8
0
 10
7.5415
 20
6.6199
 30
0.0
 40
0.00393701
 41
0.00393701
  0
VERTEX
  8
0
 10
7.52496
 20
6.62815
 30
0.0
 40
0.00393701
 41
0.00393701
  0
VERTEX
  8
0
 10
7.52496
 20
6.62815
 30
0.0
 40
0.00393701
 41
0.00393701
  0
VERTEX
  8
0
 10
7.51904
 20
6.62099
 30
0.0
 40
0.00393701
 41
0.00393701
  0
VERTEX
  8
0
 10
7.50538
 20
6.60444
 30
0.0
 40
0.00393701
 41
0.00393701
  0
VERTEX
  8
0
 10
7.48975
 20
6.58599
 30
0.0
 40
0.00393701
 41
0.00393701
  0
VERTEX
  8
0
 10
7.48068
 20
6.57563
 30
0.0
 40
0.00393701
 41
0.00393701
  0
VERTEX
  8
0
 10
7.47814
 20
6.57308
 30
0.0
 40
0.00393701
 41
0.00393701
  0
VERTEX
  8
0
 10
7.47874
 20
6.57617
 30
0.0
 40
0.00393701
 41
0.00393701
  0
VERTEX
  8
0
 10
7.48611
 20
6.61128
 30
0.0
 40
0.00393701
 41
0.00393701
  0
VERTEX
  8
0
 10
7.48643
 20
6.61436
 30
0.0
 40
0.00393701
 41
0.00393701
  0
VERTEX
  8
0
 10
7.4866
 20
6.61626
 30
0.0
 40
0.00393701
 41
0.00393701
  0
VERTEX
  8
0
 10
7.48643
 20
6.63346
 30
0.0
 40
0.00393701
 41
0.00393701
  0
VERTEX
  8
0
 10
7.48643
 20
6.63917
 30
0.0
 40
0.00393701
 41
0.00393701
  0
VERTEX
  8
0
 10
7.46164
 20
6.65565
 30
0.0
 40
0.00393701
 41
0.00393701
  0
VERTEX
  8
0
 10
7.46164
 20
6.68044
 30
0.0
 40
0.00393701
 41
0.00393701
  0
VERTEX
  8
0
 10
7.41758
 20
6.71072
 30
0.0
 40
0.00393701
 41
0.00393701
  0
VERTEX
  8
0
 10
7.41758
 20
6.71625
 30
0.0
 40
0.00393701
 41
0.00393701
  0
VERTEX
  8
0
 10
7.47542
 20
6.71625
 30
0.0
 40
0.00393701
 41
0.00393701
  0
VERTEX
  8
0
 10
7.48367
 20
6.74929
 30
0.0
 40
0.00393701
 41
0.00393701
  0
VERTEX
  8
0
 10
7.50017
 20
6.73275
 30
0.0
 40
0.00393701
 41
0.00393701
  0
VERTEX
  8
0
 10
7.50017
 20
6.73275
 30
0.0
 40
0.00393701
 41
0.00393701
  0
VERTEX
  8
0
 10
7.50581
 20
6.73888
 30
0.0
 40
0.00393701
 41
0.00393701
  0
VERTEX
  8
0
 10
7.51844
 20
6.75244
 30
0.0
 40
0.00393701
 41
0.00393701
  0
VERTEX
  8
0
 10
7.53157
 20
6.7665
 30
0.0
 40
0.00393701
 41
0.00393701
  0
VERTEX
  8
0
 10
7.53803
 20
6.77339
 30
0.0
 40
0.00393701
 41
0.00393701
  0
VERTEX
  8
0
 10
7.53874
 20
6.77403
 30
0.0
 40
0.00393701
 41
0.00393701
  0
SEQEND
 8
0
  0
POLYLINE
  8
0
 62
     0
 66
     1
 10
0
 20
0
 30
0.0
 70
     1
 40
0.283465
 41
0.283465
  0
VERTEX
  8
0
 10
8.24094
 20
6.55106
 30
0.0
 40
0.00393701
 41
0.00393701
  0
VERTEX
  8
0
 10
8.2354
 20
6.40517
 30
0.0
 40
0.00393701
 41
0.00393701
  0
VERTEX
  8
0
 10
8.24154
 20
6.40517
 30
0.0
 40
0.00393701
 41
0.00393701
  0
VERTEX
  8
0
 10
8.2601
 20
6.40739
 30
0.0
 40
0.00393701
 41
0.00393701
  0
VERTEX
  8
0
 10
8.28603
 20
6.41217
 30
0.0
 40
0.00393701
 41
0.00393701
  0
VERTEX
  8
0
 10
8.29324
 20
6.41342
 30
0.0
 40
0.00393701
 41
0.00393701
  0
VERTEX
  8
0
 10
8.25196
 20
6.38037
 30
0.0
 40
0.00393701
 41
0.00393701
  0
VERTEX
  8
0
 10
8.35932
 20
6.29779
 30
0.0
 40
0.00393701
 41
0.00393701
  0
VERTEX
  8
0
 10
8.35107
 20
6.2895
 30
0.0
 40
0.00393701
 41
0.00393701
  0
VERTEX
  8
0
 10
8.24365
 20
6.31429
 30
0.0
 40
0.00393701
 41
0.00393701
  0
VERTEX
  8
0
 10
8.22715
 20
6.29779
 30
0.0
 40
0.00393701
 41
0.00393701
  0
VERTEX
  8
0
 10
8.2354
 20
6.24821
 30
0.0
 40
0.00393701
 41
0.00393701
  0
VERTEX
  8
0
 10
8.19412
 20
6.2895
 30
0.0
 40
0.00393701
 41
0.00393701
  0
VERTEX
  8
0
 10
8.15283
 20
6.22071
 30
0.0
 40
0.00393701
 41
0.00393701
  0
VERTEX
  8
0
 10
8.15283
 20
6.22071
 30
0.0
 40
0.00393701
 41
0.00393701
  0
VERTEX
  8
0
 10
8.15022
 20
6.21647
 30
0.0
 40
0.00393701
 41
0.00393701
  0
VERTEX
  8
0
 10
8.14426
 20
6.20654
 30
0.0
 40
0.00393701
 41
0.00393701
  0
VERTEX
  8
0
 10
8.13743
 20
6.1951
 30
0.0
 40
0.00393701
 41
0.00393701
  0
VERTEX
  8
0
 10
8.13336
 20
6.18832
 30
0.0
 40
0.00393701
 41
0.00393701
  0
VERTEX
  8
0
 10
8.13217
 20
6.18631
 30
0.0
 40
0.00393701
 41
0.00393701
  0
VERTEX
  8
0
 10
8.13081
 20
6.18408
 30
0.0
 40
0.00393701
 41
0.00393701
  0
VERTEX
  8
0
 10
8.12506
 20
6.17378
 30
0.0
 40
0.00393701
 41
0.00393701
  0
VERTEX
  8
0
 10
8.11686
 20
6.16276
 30
0.0
 40
0.00393701
 41
0.00393701
  0
VERTEX
  8
0
 10
8.11426
 20
6.1601
 30
0.0
 40
0.00393701
 41
0.00393701
  0
VERTEX
  8
0
 10
8.11974
 20
6.31429
 30
0.0
 40
0.00393701
 41
0.00393701
  0
VERTEX
  8
0
 10
8.08122
 20
6.30881
 30
0.0
 40
0.00393701
 41
0.00393701
  0
VERTEX
  8
0
 10
8.10601
 20
6.34185
 30
0.0
 40
0.00393701
 41
0.00393701
  0
VERTEX
  8
0
 10
7.9821
 20
6.41618
 30
0.0
 40
0.00393701
 41
0.00393701
  0
VERTEX
  8
0
 10
8.00413
 20
6.42719
 30
0.0
 40
0.00393701
 41
0.00393701
  0
VERTEX
  8
0
 10
8.13075
 20
6.41618
 30
0.0
 40
0.00393701
 41
0.00393701
  0
VERTEX
  8
0
 10
8.12804
 20
6.47672
 30
0.0
 40
0.00393701
 41
0.00393701
  0
VERTEX
  8
0
 10
8.16108
 20
6.43544
 30
0.0
 40
0.00393701
 41
0.00393701
  0
VERTEX
  8
0
 10
8.16249
 20
6.43756
 30
0.0
 40
0.00393701
 41
0.00393701
  0
VERTEX
  8
0
 10
8.1805
 20
6.46386
 30
0.0
 40
0.00393701
 41
0.00393701
  0
VERTEX
  8
0
 10
8.18267
 20
6.46701
 30
0.0
 40
0.00393701
 41
0.00393701
  0
VERTEX
  8
0
 10
8.18267
 20
6.46701
 30
0.0
 40
0.00393701
 41
0.00393701
  0
VERTEX
  8
0
 10
8.18864
 20
6.47586
 30
0.0
 40
0.00393701
 41
0.00393701
  0
VERTEX
  8
0
 10
8.199
 20
6.491
 30
0.0
 40
0.00393701
 41
0.00393701
  0
VERTEX
  8
0
 10
8.20117
 20
6.49414
 30
0.0
 40
0.00393701
 41
0.00393701
  0
VERTEX
  8
0
 10
8.20247
 20
6.4961
 30
0.0
 40
0.00393701
 41
0.00393701
  0
VERTEX
  8
0
 10
8.20888
 20
6.50558
 30
0.0
 40
0.00393701
 41
0.00393701
  0
VERTEX
  8
0
 10
8.22114
 20
6.52365
 30
0.0
 40
0.00393701
 41
0.00393701
  0
VERTEX
  8
0
 10
8.23335
 20
6.54118
 30
0.0
 40
0.00393701
 41
0.00393701
  0
VERTEX
  8
0
 10
8.23969
 20
6.54986
 30
0.0
 40
0.00393701
 41
0.00393701
  0
VERTEX
  8
0
 10
8.24094
 20
6.55106
 30
0.0
 40
0.00393701
 41
0.00393701
  0
SEQEND
 8
0
  0
POLYLINE
  8
0
 62
     0
 66
     1
 10
0
 20
0
 30
0.0
 70
     1
 40
0.283465
 41
0.283465
  0
VERTEX
  8
0
 10
7.67914
 20
6.49322
 30
0.0
 40
0.00393701
 41
0.00393701
  0
VERTEX
  8
0
 10
7.69015
 20
6.47949
 30
0.0
 40
0.00393701
 41
0.00393701
  0
VERTEX
  8
0
 10
7.65712
 20
6.31429
 30
0.0
 40
0.00393701
 41
0.00393701
  0
VERTEX
  8
0
 10
7.67914
 20
6.29503
 30
0.0
 40
0.00393701
 41
0.00393701
  0
VERTEX
  8
0
 10
7.75629
 20
6.30604
 30
0.0
 40
0.00393701
 41
0.00393701
  0
VERTEX
  8
0
 10
7.69015
 20
6.25646
 30
0.0
 40
0.00393701
 41
0.00393701
  0
VERTEX
  8
0
 10
7.85542
 20
6.14908
 30
0.0
 40
0.00393701
 41
0.00393701
  0
VERTEX
  8
0
 10
7.84717
 20
6.14085
 30
0.0
 40
0.00393701
 41
0.00393701
  0
VERTEX
  8
0
 10
7.68192
 20
6.17389
 30
0.0
 40
0.00393701
 41
0.00393701
  0
VERTEX
  8
0
 10
7.65712
 20
6.15739
 30
0.0
 40
0.00393701
 41
0.00393701
  0
VERTEX
  8
0
 10
7.67367
 20
6.09956
 30
0.0
 40
0.00393701
 41
0.00393701
  0
VERTEX
  8
0
 10
7.66542
 20
6.09131
 30
0.0
 40
0.00393701
 41
0.00393701
  0
VERTEX
  8
0
 10
7.61583
 20
6.14085
 30
0.0
 40
0.00393701
 41
0.00393701
  0
VERTEX
  8
0
 10
7.53321
 20
5.99219
 30
0.0
 40
0.00393701
 41
0.00393701
  0
VERTEX
  8
0
 10
7.51947
 20
5.99496
 30
0.0
 40
0.00393701
 41
0.00393701
  0
VERTEX
  8
0
 10
7.52496
 20
6.17389
 30
0.0
 40
0.00393701
 41
0.00393701
  0
VERTEX
  8
0
 10
7.4534
 20
6.1601
 30
0.0
 40
0.00393701
 41
0.00393701
  0
VERTEX
  8
0
 10
7.50293
 20
6.20969
 30
0.0
 40
0.00393701
 41
0.00393701
  0
VERTEX
  8
0
 10
7.48367
 20
6.23996
 30
0.0
 40
0.00393701
 41
0.00393701
  0
VERTEX
  8
0
 10
7.34321
 20
6.31429
 30
0.0
 40
0.00393701
 41
0.00393701
  0
VERTEX
  8
0
 10
7.34321
 20
6.31982
 30
0.0
 40
0.00393701
 41
0.00393701
  0
VERTEX
  8
0
 10
7.52496
 20
6.29503
 30
0.0
 40
0.00393701
 41
0.00393701
  0
VERTEX
  8
0
 10
7.5415
 20
6.30328
 30
0.0
 40
0.00393701
 41
0.00393701
  0
VERTEX
  8
0
 10
7.5415
 20
6.3074
 30
0.0
 40
0.00393701
 41
0.00393701
  0
VERTEX
  8
0
 10
7.53976
 20
6.31976
 30
0.0
 40
0.00393701
 41
0.00393701
  0
VERTEX
  8
0
 10
7.53554
 20
6.34321
 30
0.0
 40
0.00393701
 41
0.00393701
  0
VERTEX
  8
0
 10
7.53017
 20
6.36942
 30
0.0
 40
0.00393701
 41
0.00393701
  0
VERTEX
  8
0
 10
7.52621
 20
6.38797
 30
0.0
 40
0.00393701
 41
0.00393701
  0
VERTEX
  8
0
 10
7.52496
 20
6.39415
 30
0.0
 40
0.00393701
 41
0.00393701
  0
VERTEX
  8
0
 10
7.58279
 20
6.33632
 30
0.0
 40
0.00393701
 41
0.00393701
  0
VERTEX
  8
0
 10
7.67914
 20
6.49322
 30
0.0
 40
0.00393701
 41
0.00393701
  0
SEQEND
 8
0
  0
POLYLINE
  8
0
 62
     0
 66
     1
 10
0
 20
0
 30
0.0
 70
     1
 40
0.283465
 41
0.283465
  0
VERTEX
  8
0
 10
7.06787
 20
6.42719
 30
0.0
 40
0.00393701
 41
0.00393701
  0
VERTEX
  8
0
 10
7.0541
 20
6.30604
 30
0.0
 40
0.00393701
 41
0.00393701
  0
VERTEX
  8
0
 10
7.06233
 20
6.2895
 30
0.0
 40
0.00393701
 41
0.00393701
  0
VERTEX
  8
0
 10
7.10092
 20
6.29503
 30
0.0
 40
0.00393701
 41
0.00393701
  0
VERTEX
  8
0
 10
7.11193
 20
6.28125
 30
0.0
 40
0.00393701
 41
0.00393701
  0
VERTEX
  8
0
 10
7.08713
 20
6.24821
 30
0.0
 40
0.00393701
 41
0.00393701
  0
VERTEX
  8
0
 10
7.21104
 20
6.17389
 30
0.0
 40
0.00393701
 41
0.00393701
  0
VERTEX
  8
0
 10
7.20281
 20
6.16564
 30
0.0
 40
0.00393701
 41
0.00393701
  0
VERTEX
  8
0
 10
7.19715
 20
6.16704
 30
0.0
 40
0.00393701
 41
0.00393701
  0
VERTEX
  8
0
 10
7.16683
 20
6.176
 30
0.0
 40
0.00393701
 41
0.00393701
  0
VERTEX
  8
0
 10
7.12972
 20
6.18213
 30
0.0
 40
0.00393701
 41
0.00393701
  0
VERTEX
  8
0
 10
7.1174
 20
6.18213
 30
0.0
 40
0.00393701
 41
0.00393701
  0
VERTEX
  8
0
 10
7.11257
 20
6.18213
 30
0.0
 40
0.00393701
 41
0.00393701
  0
VERTEX
  8
0
 10
7.10172
 20
6.18213
 30
0.0
 40
0.00393701
 41
0.00393701
  0
VERTEX
  8
0
 10
7.09814
 20
6.18213
 30
0.0
 40
0.00393701
 41
0.00393701
  0
VERTEX
  8
0
 10
7.09814
 20
6.18213
 30
0.0
 40
0.00393701
 41
0.00393701
  0
VERTEX
  8
0
 10
7.08203
 20
6.18213
 30
0.0
 40
0.00393701
 41
0.00393701
  0
VERTEX
  8
0
 10
7.06722
 20
6.18213
 30
0.0
 40
0.00393701
 41
0.00393701
  0
VERTEX
  8
0
 10
7.06233
 20
6.18213
 30
0.0
 40
0.00393701
 41
0.00393701
  0
VERTEX
  8
0
 10
7.07058
 20
6.12435
 30
0.0
 40
0.00393701
 41
0.00393701
  0
VERTEX
  8
0
 10
7.06511
 20
6.11882
 30
0.0
 40
0.00393701
 41
0.00393701
  0
VERTEX
  8
0
 10
7.02106
 20
6.15739
 30
0.0
 40
0.00393701
 41
0.00393701
  0
VERTEX
  8
0
 10
6.95497
 20
6.05003
 30
0.0
 40
0.00393701
 41
0.00393701
  0
VERTEX
  8
0
 10
6.94119
 20
6.05274
 30
0.0
 40
0.00393701
 41
0.00393701
  0
VERTEX
  8
0
 10
6.96599
 20
6.1684
 30
0.0
 40
0.00393701
 41
0.00393701
  0
VERTEX
  8
0
 10
6.94667
 20
6.19043
 30
0.0
 40
0.00393701
 41
0.00393701
  0
VERTEX
  8
0
 10
6.90815
 20
6.1849
 30
0.0
 40
0.00393701
 41
0.00393701
  0
VERTEX
  8
0
 10
6.93294
 20
6.21793
 30
0.0
 40
0.00393701
 41
0.00393701
  0
VERTEX
  8
0
 10
6.92193
 20
6.23996
 30
0.0
 40
0.00393701
 41
0.00393701
  0
VERTEX
  8
0
 10
6.80903
 20
6.29226
 30
0.0
 40
0.00393701
 41
0.00393701
  0
VERTEX
  8
0
 10
6.83931
 20
6.30328
 30
0.0
 40
0.00393701
 41
0.00393701
  0
VERTEX
  8
0
 10
6.96322
 20
6.29503
 30
0.0
 40
0.00393701
 41
0.00393701
  0
VERTEX
  8
0
 10
6.96322
 20
6.29932
 30
0.0
 40
0.00393701
 41
0.00393701
  0
VERTEX
  8
0
 10
6.96018
 20
6.31218
 30
0.0
 40
0.00393701
 41
0.00393701
  0
VERTEX
  8
0
 10
6.95449
 20
6.32503
 30
0.0
 40
0.00393701
 41
0.00393701
  0
VERTEX
  8
0
 10
6.95107
 20
6.3374
 30
0.0
 40
0.00393701
 41
0.00393701
  0
VERTEX
  8
0
 10
6.95324
 20
6.34939
 30
0.0
 40
0.00393701
 41
0.00393701
  0
VERTEX
  8
0
 10
6.95497
 20
6.35286
 30
0.0
 40
0.00393701
 41
0.00393701
  0
VERTEX
  8
0
 10
6.99625
 20
6.31153
 30
0.0
 40
0.00393701
 41
0.00393701
  0
VERTEX
  8
0
 10
6.99858
 20
6.31543
 30
0.0
 40
0.00393701
 41
0.00393701
  0
VERTEX
  8
0
 10
7.01047
 20
6.33529
 30
0.0
 40
0.00393701
 41
0.00393701
  0
VERTEX
  8
0
 10
7.03315
 20
6.37278
 30
0.0
 40
0.00393701
 41
0.00393701
  0
VERTEX
  8
0
 10
7.05528
 20
6.40858
 30
0.0
 40
0.00393701
 41
0.00393701
  0
VERTEX
  8
0
 10
7.06625
 20
6.42562
 30
0.0
 40
0.00393701
 41
0.00393701
  0
VERTEX
  8
0
 10
7.06787
 20
6.42719
 30
0.0
 40
0.00393701
 41
0.00393701
  0
SEQEND
 8
0
  0
POLYLINE
  8
0
 62
     0
 66
     1
 10
0
 20
0
 30
0.0
 70
     1
 40
0.283465
 41
0.283465
  0
VERTEX
  8
0
 10
7.66265
 20
5.86556
 30
0.0
 40
0.00393701
 41
0.00393701
  0
VERTEX
  8
0
 10
7.66265
 20
5.86556
 30
0.0
 40
0.00393701
 41
0.00393701
  0
VERTEX
  8
0
 10
7.66292
 20
5.85835
 30
0.0
 40
0.00393701
 41
0.00393701
  0
VERTEX
  8
0
 10
7.66351
 20
5.84233
 30
0.0
 40
0.00393701
 41
0.00393701
  0
VERTEX
  8
0
 10
7.66417
 20
5.82601
 30
0.0
 40
0.00393701
 41
0.00393701
  0
VERTEX
  8
0
 10
7.66444
 20
5.81825
 30
0.0
 40
0.00393701
 41
0.00393701
  0
VERTEX
  8
0
 10
7.6645
 20
5.81782
 30
0.0
 40
0.00393701
 41
0.00393701
  0
VERTEX
  8
0
 10
7.66456
 20
5.81603
 30
0.0
 40
0.00393701
 41
0.00393701
  0
VERTEX
  8
0
 10
7.66493
 20
5.79568
 30
0.0
 40
0.00393701
 41
0.00393701
  0
VERTEX
  8
0
 10
7.66542
 20
5.79394
 30
0.0
 40
0.00393701
 41
0.00393701
  0
VERTEX
  8
0
 10
7.66575
 20
5.79264
 30
0.0
 40
0.00393701
 41
0.00393701
  0
VERTEX
  8
0
 10
7.67301
 20
5.77869
 30
0.0
 40
0.00393701
 41
0.00393701
  0
VERTEX
  8
0
 10
7.67367
 20
5.77746
 30
0.0
 40
0.00393701
 41
0.00393701
  0
VERTEX
  8
0
 10
7.67871
 20
5.77746
 30
0.0
 40
0.00393701
 41
0.00393701
  0
VERTEX
  8
0
 10
7.69401
 20
5.77919
 30
0.0
 40
0.00393701
 41
0.00393701
  0
VERTEX
  8
0
 10
7.70871
 20
5.78228
 30
0.0
 40
0.00393701
 41
0.00393701
  0
VERTEX
  8
0
 10
7.71224
 20
5.78293
 30
0.0
 40
0.00393701
 41
0.00393701
  0
VERTEX
  8
0
 10
7.71001
 20
5.78076
 30
0.0
 40
0.00393701
 41
0.00393701
  0
VERTEX
  8
0
 10
7.7015
 20
5.76997
 30
0.0
 40
0.00393701
 41
0.00393701
  0
VERTEX
  8
0
 10
7.69254
 20
5.75629
 30
0.0
 40
0.00393701
 41
0.00393701
  0
VERTEX
  8
0
 10
7.69015
 20
5.75265
 30
0.0
 40
0.00393701
 41
0.00393701
  0
VERTEX
  8
0
 10
7.76178
 20
5.70861
 30
0.0
 40
0.00393701
 41
0.00393701
  0
VERTEX
  8
0
 10
7.75629
 20
5.70313
 30
0.0
 40
0.00393701
 41
0.00393701
  0
VERTEX
  8
0
 10
7.68192
 20
5.71137
 30
0.0
 40
0.00393701
 41
0.00393701
  0
VERTEX
  8
0
 10
7.68192
 20
5.71137
 30
0.0
 40
0.00393701
 41
0.00393701
  0
VERTEX
  8
0
 10
7.68121
 20
5.70557
 30
0.0
 40
0.00393701
 41
0.00393701
  0
VERTEX
  8
0
 10
7.67888
 20
5.69189
 30
0.0
 40
0.00393701
 41
0.00393701
  0
VERTEX
  8
0
 10
7.67464
 20
5.67626
 30
0.0
 40
0.00393701
 41
0.00393701
  0
VERTEX
  8
0
 10
7.67036
 20
5.66689
 30
0.0
 40
0.00393701
 41
0.00393701
  0
VERTEX
  8
0
 10
7.66812
 20
5.66461
 30
0.0
 40
0.00393701
 41
0.00393701
  0
VERTEX
  8
0
 10
7.64063
 20
5.68658
 30
0.0
 40
0.00393701
 41
0.00393701
  0
VERTEX
  8
0
 10
7.64063
 20
5.68658
 30
0.0
 40
0.00393701
 41
0.00393701
  0
VERTEX
  8
0
 10
7.63683
 20
5.68061
 30
0.0
 40
0.00393701
 41
0.00393701
  0
VERTEX
  8
0
 10
7.62853
 20
5.66726
 30
0.0
 40
0.00393701
 41
0.00393701
  0
VERTEX
  8
0
 10
7.62001
 20
5.65375
 30
0.0
 40
0.00393701
 41
0.00393701
  0
VERTEX
  8
0
 10
7.616
 20
5.64729
 30
0.0
 40
0.00393701
 41
0.00393701
  0
VERTEX
  8
0
 10
7.61583
 20
5.64697
 30
0.0
 40
0.00393701
 41
0.00393701
  0
VERTEX
  8
0
 10
7.61393
 20
5.64399
 30
0.0
 40
0.00393701
 41
0.00393701
  0
VERTEX
  8
0
 10
7.60607
 20
5.63058
 30
0.0
 40
0.00393701
 41
0.00393701
  0
VERTEX
  8
0
 10
7.59651
 20
5.61778
 30
0.0
 40
0.00393701
 41
0.00393701
  0
VERTEX
  8
0
 10
7.59381
 20
5.61501
 30
0.0
 40
0.00393701
 41
0.00393701
  0
VERTEX
  8
0
 10
7.5944
 20
5.62001
 30
0.0
 40
0.00393701
 41
0.00393701
  0
VERTEX
  8
0
 10
7.6001
 20
5.64811
 30
0.0
 40
0.00393701
 41
0.00393701
  0
VERTEX
  8
0
 10
7.60286
 20
5.67622
 30
0.0
 40
0.00393701
 41
0.00393701
  0
VERTEX
  8
0
 10
7.60206
 20
5.6811
 30
0.0
 40
0.00393701
 41
0.00393701
  0
VERTEX
  8
0
 10
7.60172
 20
5.68294
 30
0.0
 40
0.00393701
 41
0.00393701
  0
VERTEX
  8
0
 10
7.59185
 20
5.7015
 30
0.0
 40
0.00393701
 41
0.00393701
  0
VERTEX
  8
0
 10
7.59104
 20
5.70313
 30
0.0
 40
0.00393701
 41
0.00393701
  0
VERTEX
  8
0
 10
7.558
 20
5.70313
 30
0.0
 40
0.00393701
 41
0.00393701
  0
VERTEX
  8
0
 10
7.558
 20
5.706
 30
0.0
 40
0.00393701
 41
0.00393701
  0
VERTEX
  8
0
 10
7.56375
 20
5.71457
 30
0.0
 40
0.00393701
 41
0.00393701
  0
VERTEX
  8
0
 10
7.57465
 20
5.72771
 30
0.0
 40
0.00393701
 41
0.00393701
  0
VERTEX
  8
0
 10
7.57726
 20
5.73063
 30
0.0
 40
0.00393701
 41
0.00393701
  0
VERTEX
  8
0
 10
7.50017
 20
5.78569
 30
0.0
 40
0.00393701
 41
0.00393701
  0
VERTEX
  8
0
 10
7.50017
 20
5.79124
 30
0.0
 40
0.00393701
 41
0.00393701
  0
VERTEX
  8
0
 10
7.60206
 20
5.78847
 30
0.0
 40
0.00393701
 41
0.00393701
  0
VERTEX
  8
0
 10
7.60081
 20
5.79215
 30
0.0
 40
0.00393701
 41
0.00393701
  0
VERTEX
  8
0
 10
7.59581
 20
5.80588
 30
0.0
 40
0.00393701
 41
0.00393701
  0
VERTEX
  8
0
 10
7.59733
 20
5.82026
 30
0.0
 40
0.00393701
 41
0.00393701
  0
VERTEX
  8
0
 10
7.59933
 20
5.82428
 30
0.0
 40
0.00393701
 41
0.00393701
  0
VERTEX
  8
0
 10
7.62408
 20
5.79949
 30
0.0
 40
0.00393701
 41
0.00393701
  0
VERTEX
  8
0
 10
7.66265
 20
5.86556
 30
0.0
 40
0.00393701
 41
0.00393701
  0
SEQEND
 8
0
  0
POLYLINE
  8
0
 62
     0
 66
     1
 10
0
 20
0
 30
0.0
 70
     1
 40
0.283465
 41
0.283465
  0
VERTEX
  8
0
 10
6.53917
 20
5.44433
 30
0.0
 40
0.00393701
 41
0.00393701
  0
VERTEX
  8
0
 10
6.55018
 20
5.41407
 30
0.0
 40
0.00393701
 41
0.00393701
  0
VERTEX
  8
0
 10
6.54893
 20
5.40972
 30
0.0
 40
0.00393701
 41
0.00393701
  0
VERTEX
  8
0
 10
6.54096
 20
5.38536
 30
0.0
 40
0.00393701
 41
0.00393701
  0
VERTEX
  8
0
 10
6.53424
 20
5.36074
 30
0.0
 40
0.00393701
 41
0.00393701
  0
VERTEX
  8
0
 10
6.53364
 20
5.35622
 30
0.0
 40
0.00393701
 41
0.00393701
  0
VERTEX
  8
0
 10
6.53326
 20
5.35379
 30
0.0
 40
0.00393701
 41
0.00393701
  0
VERTEX
  8
0
 10
6.53364
 20
5.33083
 30
0.0
 40
0.00393701
 41
0.00393701
  0
VERTEX
  8
0
 10
6.53364
 20
5.32319
 30
0.0
 40
0.00393701
 41
0.00393701
  0
VERTEX
  8
0
 10
6.53364
 20
5.32319
 30
0.0
 40
0.00393701
 41
0.00393701
  0
VERTEX
  8
0
 10
6.54058
 20
5.32362
 30
0.0
 40
0.00393701
 41
0.00393701
  0
VERTEX
  8
0
 10
6.55772
 20
5.32357
 30
0.0
 40
0.00393701
 41
0.00393701
  0
VERTEX
  8
0
 10
6.57932
 20
5.32129
 30
0.0
 40
0.00393701
 41
0.00393701
  0
VERTEX
  8
0
 10
6.595
 20
5.31733
 30
0.0
 40
0.00393701
 41
0.00393701
  0
VERTEX
  8
0
 10
6.59972
 20
5.31494
 30
0.0
 40
0.00393701
 41
0.00393701
  0
VERTEX
  8
0
 10
6.55843
 20
5.27365
 30
0.0
 40
0.00393701
 41
0.00393701
  0
VERTEX
  8
0
 10
6.66581
 20
5.19933
 30
0.0
 40
0.00393701
 41
0.00393701
  0
VERTEX
  8
0
 10
6.65756
 20
5.19103
 30
0.0
 40
0.00393701
 41
0.00393701
  0
VERTEX
  8
0
 10
6.65256
 20
5.19228
 30
0.0
 40
0.00393701
 41
0.00393701
  0
VERTEX
  8
0
 10
6.62468
 20
5.20025
 30
0.0
 40
0.00393701
 41
0.00393701
  0
VERTEX
  8
0
 10
6.59651
 20
5.20697
 30
0.0
 40
0.00393701
 41
0.00393701
  0
VERTEX
  8
0
 10
6.59147
 20
5.20757
 30
0.0
 40
0.00393701
 41
0.00393701
  0
VERTEX
  8
0
 10
6.58778
 20
5.20806
 30
0.0
 40
0.00393701
 41
0.00393701
  0
VERTEX
  8
0
 10
6.55333
 20
5.20757
 30
0.0
 40
0.00393701
 41
0.00393701
  0
VERTEX
  8
0
 10
6.54189
 20
5.20757
 30
0.0
 40
0.00393701
 41
0.00393701
  0
VERTEX
  8
0
 10
6.54189
 20
5.14974
 30
0.0
 40
0.00393701
 41
0.00393701
  0
VERTEX
  8
0
 10
6.5006
 20
5.19103
 30
0.0
 40
0.00393701
 41
0.00393701
  0
VERTEX
  8
0
 10
6.43451
 20
5.07542
 30
0.0
 40
0.00393701
 41
0.00393701
  0
VERTEX
  8
0
 10
6.42074
 20
5.07818
 30
0.0
 40
0.00393701
 41
0.00393701
  0
VERTEX
  8
0
 10
6.43451
 20
5.21582
 30
0.0
 40
0.00393701
 41
0.00393701
  0
VERTEX
  8
0
 10
6.38493
 20
5.19103
 30
0.0
 40
0.00393701
 41
0.00393701
  0
VERTEX
  8
0
 10
6.37115
 20
5.20204
 30
0.0
 40
0.00393701
 41
0.00393701
  0
VERTEX
  8
0
 10
6.41249
 20
5.24338
 30
0.0
 40
0.00393701
 41
0.00393701
  0
VERTEX
  8
0
 10
6.30507
 20
5.3094
 30
0.0
 40
0.00393701
 41
0.00393701
  0
VERTEX
  8
0
 10
6.41797
 20
5.30393
 30
0.0
 40
0.00393701
 41
0.00393701
  0
VERTEX
  8
0
 10
6.43728
 20
5.32596
 30
0.0
 40
0.00393701
 41
0.00393701
  0
VERTEX
  8
0
 10
6.43451
 20
5.37001
 30
0.0
 40
0.00393701
 41
0.00393701
  0
VERTEX
  8
0
 10
6.46756
 20
5.32872
 30
0.0
 40
0.00393701
 41
0.00393701
  0
VERTEX
  8
0
 10
6.53917
 20
5.44433
 30
0.0
 40
0.00393701
 41
0.00393701
  0
SEQEND
 8
0
  0
POLYLINE
  8
0
 62
     0
 66
     1
 10
0
 20
0
 30
0.0
 70
     1
 40
0.283465
 41
0.283465
  0
VERTEX
  8
0
 10
6.82829
 20
5.00662
 30
0.0
 40
0.00393701
 41
0.00393701
  0
VERTEX
  8
0
 10
6.82844
 20
5.00315
 30
0.0
 40
0.00393701
 41
0.00393701
  0
VERTEX
  8
0
 10
6.8284
 20
4.98301
 30
0.0
 40
0.00393701
 41
0.00393701
  0
VERTEX
  8
0
 10
6.82997
 20
4.96317
 30
0.0
 40
0.00393701
 41
0.00393701
  0
VERTEX
  8
0
 10
6.83106
 20
4.95979
 30
0.0
 40
0.00393701
 41
0.00393701
  0
VERTEX
  8
0
 10
6.83208
 20
4.95638
 30
0.0
 40
0.00393701
 41
0.00393701
  0
VERTEX
  8
0
 10
6.84218
 20
4.93864
 30
0.0
 40
0.00393701
 41
0.00393701
  0
VERTEX
  8
0
 10
6.85389
 20
4.9216
 30
0.0
 40
0.00393701
 41
0.00393701
  0
VERTEX
  8
0
 10
6.85579
 20
4.91851
 30
0.0
 40
0.00393701
 41
0.00393701
  0
VERTEX
  8
0
 10
6.92193
 20
4.87722
 30
0.0
 40
0.00393701
 41
0.00393701
  0
VERTEX
  8
0
 10
6.91363
 20
4.86893
 30
0.0
 40
0.00393701
 41
0.00393701
  0
VERTEX
  8
0
 10
6.91054
 20
4.86957
 30
0.0
 40
0.00393701
 41
0.00393701
  0
VERTEX
  8
0
 10
6.87549
 20
4.87696
 30
0.0
 40
0.00393701
 41
0.00393701
  0
VERTEX
  8
0
 10
6.87235
 20
4.87722
 30
0.0
 40
0.00393701
 41
0.00393701
  0
VERTEX
  8
0
 10
6.86985
 20
4.8775
 30
0.0
 40
0.00393701
 41
0.00393701
  0
VERTEX
  8
0
 10
6.8469
 20
4.87722
 30
0.0
 40
0.00393701
 41
0.00393701
  0
VERTEX
  8
0
 10
6.83931
 20
4.87722
 30
0.0
 40
0.00393701
 41
0.00393701
  0
VERTEX
  8
0
 10
6.83931
 20
4.84418
 30
0.0
 40
0.00393701
 41
0.00393701
  0
VERTEX
  8
0
 10
6.81451
 20
4.86068
 30
0.0
 40
0.00393701
 41
0.00393701
  0
VERTEX
  8
0
 10
6.81451
 20
4.86068
 30
0.0
 40
0.00393701
 41
0.00393701
  0
VERTEX
  8
0
 10
6.80865
 20
4.85487
 30
0.0
 40
0.00393701
 41
0.00393701
  0
VERTEX
  8
0
 10
6.79568
 20
4.8419
 30
0.0
 40
0.00393701
 41
0.00393701
  0
VERTEX
  8
0
 10
6.7825
 20
4.82872
 30
0.0
 40
0.00393701
 41
0.00393701
  0
VERTEX
  8
0
 10
6.77626
 20
4.82249
 30
0.0
 40
0.00393701
 41
0.00393701
  0
VERTEX
  8
0
 10
6.77599
 20
4.82215
 30
0.0
 40
0.00393701
 41
0.00393701
  0
VERTEX
  8
0
 10
6.77599
 20
4.8284
 30
0.0
 40
0.00393701
 41
0.00393701
  0
VERTEX
  8
0
 10
6.77724
 20
4.84711
 30
0.0
 40
0.00393701
 41
0.00393701
  0
VERTEX
  8
0
 10
6.77681
 20
4.86811
 30
0.0
 40
0.00393701
 41
0.00393701
  0
VERTEX
  8
0
 10
6.77599
 20
4.87169
 30
0.0
 40
0.00393701
 41
0.00393701
  0
VERTEX
  8
0
 10
6.77522
 20
4.87483
 30
0.0
 40
0.00393701
 41
0.00393701
  0
VERTEX
  8
0
 10
6.76736
 20
4.89139
 30
0.0
 40
0.00393701
 41
0.00393701
  0
VERTEX
  8
0
 10
6.75808
 20
4.90739
 30
0.0
 40
0.00393701
 41
0.00393701
  0
VERTEX
  8
0
 10
6.75667
 20
4.91026
 30
0.0
 40
0.00393701
 41
0.00393701
  0
VERTEX
  8
0
 10
6.70985
 20
4.92953
 30
0.0
 40
0.00393701
 41
0.00393701
  0
VERTEX
  8
0
 10
6.76492
 20
4.94054
 30
0.0
 40
0.00393701
 41
0.00393701
  0
VERTEX
  8
0
 10
6.82829
 20
5.00662
 30
0.0
 40
0.00393701
 41
0.00393701
  0
SEQEND
 8
0
  0
POLYLINE
  8
0
 62
     0
 66
     1
 10
0
 20
0
 30
0.0
 70
     1
 40
0.283465
 41
0.283465
  0
VERTEX
  8
0
 10
6.77869
 20
4.51107
 30
0.0
 40
0.00393701
 41
0.00393701
  0
VERTEX
  8
0
 10
6.78971
 20
4.49729
 30
0.0
 40
0.00393701
 41
0.00393701
  0
VERTEX
  8
0
 10
6.78147
 20
4.43946
 30
0.0
 40
0.00393701
 41
0.00393701
  0
VERTEX
  8
0
 10
6.81451
 20
4.42296
 30
0.0
 40
0.00393701
 41
0.00393701
  0
VERTEX
  8
0
 10
6.79801
 20
4.40642
 30
0.0
 40
0.00393701
 41
0.00393701
  0
VERTEX
  8
0
 10
6.8641
 20
4.35688
 30
0.0
 40
0.00393701
 41
0.00393701
  0
VERTEX
  8
0
 10
6.8641
 20
4.35688
 30
0.0
 40
0.00393701
 41
0.00393701
  0
VERTEX
  8
0
 10
6.85504
 20
4.35688
 30
0.0
 40
0.00393701
 41
0.00393701
  0
VERTEX
  8
0
 10
6.83311
 20
4.35688
 30
0.0
 40
0.00393701
 41
0.00393701
  0
VERTEX
  8
0
 10
6.80599
 20
4.35688
 30
0.0
 40
0.00393701
 41
0.00393701
  0
VERTEX
  8
0
 10
6.7876
 20
4.35688
 30
0.0
 40
0.00393701
 41
0.00393701
  0
VERTEX
  8
0
 10
6.78147
 20
4.35688
 30
0.0
 40
0.00393701
 41
0.00393701
  0
VERTEX
  8
0
 10
6.77322
 20
4.32383
 30
0.0
 40
0.00393701
 41
0.00393701
  0
VERTEX
  8
0
 10
6.74843
 20
4.33208
 30
0.0
 40
0.00393701
 41
0.00393701
  0
VERTEX
  8
0
 10
6.71539
 20
4.27431
 30
0.0
 40
0.00393701
 41
0.00393701
  0
VERTEX
  8
0
 10
6.70161
 20
4.28532
 30
0.0
 40
0.00393701
 41
0.00393701
  0
VERTEX
  8
0
 10
6.70161
 20
4.28532
 30
0.0
 40
0.00393701
 41
0.00393701
  0
VERTEX
  8
0
 10
6.70313
 20
4.29113
 30
0.0
 40
0.00393701
 41
0.00393701
  0
VERTEX
  8
0
 10
6.70649
 20
4.30399
 30
0.0
 40
0.00393701
 41
0.00393701
  0
VERTEX
  8
0
 10
6.71001
 20
4.31733
 30
0.0
 40
0.00393701
 41
0.00393701
  0
VERTEX
  8
0
 10
6.71175
 20
4.32389
 30
0.0
 40
0.00393701
 41
0.00393701
  0
VERTEX
  8
0
 10
6.71192
 20
4.32454
 30
0.0
 40
0.00393701
 41
0.00393701
  0
VERTEX
  8
0
 10
6.71257
 20
4.3271
 30
0.0
 40
0.00393701
 41
0.00393701
  0
VERTEX
  8
0
 10
6.71463
 20
4.33589
 30
0.0
 40
0.00393701
 41
0.00393701
  0
VERTEX
  8
0
 10
6.71539
 20
4.34549
 30
0.0
 40
0.00393701
 41
0.00393701
  0
VERTEX
  8
0
 10
6.71539
 20
4.34864
 30
0.0
 40
0.00393701
 41
0.00393701
  0
VERTEX
  8
0
 10
6.71414
 20
4.34928
 30
0.0
 40
0.00393701
 41
0.00393701
  0
VERTEX
  8
0
 10
6.70019
 20
4.3571
 30
0.0
 40
0.00393701
 41
0.00393701
  0
VERTEX
  8
0
 10
6.69883
 20
4.35688
 30
0.0
 40
0.00393701
 41
0.00393701
  0
VERTEX
  8
0
 10
6.69797
 20
4.35678
 30
0.0
 40
0.00393701
 41
0.00393701
  0
VERTEX
  8
0
 10
6.69119
 20
4.34928
 30
0.0
 40
0.00393701
 41
0.00393701
  0
VERTEX
  8
0
 10
6.6906
 20
4.34864
 30
0.0
 40
0.00393701
 41
0.00393701
  0
VERTEX
  8
0
 10
6.67681
 20
4.35965
 30
0.0
 40
0.00393701
 41
0.00393701
  0
VERTEX
  8
0
 10
6.68511
 20
4.37614
 30
0.0
 40
0.00393701
 41
0.00393701
  0
VERTEX
  8
0
 10
6.63276
 20
4.42296
 30
0.0
 40
0.00393701
 41
0.00393701
  0
VERTEX
  8
0
 10
6.63276
 20
4.42844
 30
0.0
 40
0.00393701
 41
0.00393701
  0
VERTEX
  8
0
 10
6.6906
 20
4.42019
 30
0.0
 40
0.00393701
 41
0.00393701
  0
VERTEX
  8
0
 10
6.72364
 20
4.45324
 30
0.0
 40
0.00393701
 41
0.00393701
  0
VERTEX
  8
0
 10
6.73188
 20
4.44499
 30
0.0
 40
0.00393701
 41
0.00393701
  0
VERTEX
  8
0
 10
6.77869
 20
4.51107
 30
0.0
 40
0.00393701
 41
0.00393701
  0
SEQEND
 8
0
  0
POLYLINE
  8
0
 62
     0
 66
     1
 10
0
 20
0
 30
0.0
 70
     1
 40
0.283465
 41
0.283465
  0
VERTEX
  8
0
 10
6.91917
 20
3.91639
 30
0.0
 40
0.00393701
 41
0.00393701
  0
VERTEX
  8
0
 10
6.93018
 20
3.90261
 30
0.0
 40
0.00393701
 41
0.00393701
  0
VERTEX
  8
0
 10
6.91363
 20
3.82004
 30
0.0
 40
0.00393701
 41
0.00393701
  0
VERTEX
  8
0
 10
6.93565
 20
3.77599
 30
0.0
 40
0.00393701
 41
0.00393701
  0
VERTEX
  8
0
 10
6.97971
 20
3.77875
 30
0.0
 40
0.00393701
 41
0.00393701
  0
VERTEX
  8
0
 10
6.93842
 20
3.73747
 30
0.0
 40
0.00393701
 41
0.00393701
  0
VERTEX
  8
0
 10
7.04585
 20
3.67139
 30
0.0
 40
0.00393701
 41
0.00393701
  0
VERTEX
  8
0
 10
6.92193
 20
3.67964
 30
0.0
 40
0.00393701
 41
0.00393701
  0
VERTEX
  8
0
 10
6.92193
 20
3.61356
 30
0.0
 40
0.00393701
 41
0.00393701
  0
VERTEX
  8
0
 10
6.87235
 20
3.6466
 30
0.0
 40
0.00393701
 41
0.00393701
  0
VERTEX
  8
0
 10
6.81451
 20
3.54747
 30
0.0
 40
0.00393701
 41
0.00393701
  0
VERTEX
  8
0
 10
6.80072
 20
3.55849
 30
0.0
 40
0.00393701
 41
0.00393701
  0
VERTEX
  8
0
 10
6.80197
 20
3.56472
 30
0.0
 40
0.00393701
 41
0.00393701
  0
VERTEX
  8
0
 10
6.81087
 20
3.60385
 30
0.0
 40
0.00393701
 41
0.00393701
  0
VERTEX
  8
0
 10
6.81728
 20
3.65039
 30
0.0
 40
0.00393701
 41
0.00393701
  0
VERTEX
  8
0
 10
6.81728
 20
3.66585
 30
0.0
 40
0.00393701
 41
0.00393701
  0
VERTEX
  8
0
 10
6.74843
 20
3.66308
 30
0.0
 40
0.00393701
 41
0.00393701
  0
VERTEX
  8
0
 10
6.74843
 20
3.66547
 30
0.0
 40
0.00393701
 41
0.00393701
  0
VERTEX
  8
0
 10
6.75256
 20
3.67247
 30
0.0
 40
0.00393701
 41
0.00393701
  0
VERTEX
  8
0
 10
6.76243
 20
3.68457
 30
0.0
 40
0.00393701
 41
0.00393701
  0
VERTEX
  8
0
 10
6.77425
 20
3.69694
 30
0.0
 40
0.00393701
 41
0.00393701
  0
VERTEX
  8
0
 10
6.78179
 20
3.70454
 30
0.0
 40
0.00393701
 41
0.00393701
  0
VERTEX
  8
0
 10
6.78424
 20
3.70714
 30
0.0
 40
0.00393701
 41
0.00393701
  0
VERTEX
  8
0
 10
6.68511
 20
3.78147
 30
0.0
 40
0.00393701
 41
0.00393701
  0
VERTEX
  8
0
 10
6.6906
 20
3.79249
 30
0.0
 40
0.00393701
 41
0.00393701
  0
VERTEX
  8
0
 10
6.81451
 20
3.78424
 30
0.0
 40
0.00393701
 41
0.00393701
  0
VERTEX
  8
0
 10
6.81451
 20
3.78657
 30
0.0
 40
0.00393701
 41
0.00393701
  0
VERTEX
  8
0
 10
6.81451
 20
3.7934
 30
0.0
 40
0.00393701
 41
0.00393701
  0
VERTEX
  8
0
 10
6.81451
 20
3.81028
 30
0.0
 40
0.00393701
 41
0.00393701
  0
VERTEX
  8
0
 10
6.81451
 20
3.82656
 30
0.0
 40
0.00393701
 41
0.00393701
  0
VERTEX
  8
0
 10
6.81451
 20
3.83382
 30
0.0
 40
0.00393701
 41
0.00393701
  0
VERTEX
  8
0
 10
6.81451
 20
3.83382
 30
0.0
 40
0.00393701
 41
0.00393701
  0
VERTEX
  8
0
 10
6.84754
 20
3.80078
 30
0.0
 40
0.00393701
 41
0.00393701
  0
VERTEX
  8
0
 10
6.91917
 20
3.91639
 30
0.0
 40
0.00393701
 41
0.00393701
  0
SEQEND
 8
0
  0
POLYLINE
  8
0
 62
     0
 66
     1
 10
0
 20
0
 30
0.0
 70
     1
 40
0.283465
 41
0.283465
  0
VERTEX
  8
0
 10
7.41482
 20
3.7595
 30
0.0
 40
0.00393701
 41
0.00393701
  0
VERTEX
  8
0
 10
7.41758
 20
3.70443
 30
0.0
 40
0.00393701
 41
0.00393701
  0
VERTEX
  8
0
 10
7.4809
 20
3.62733
 30
0.0
 40
0.00393701
 41
0.00393701
  0
VERTEX
  8
0
 10
7.47868
 20
3.62511
 30
0.0
 40
0.00393701
 41
0.00393701
  0
VERTEX
  8
0
 10
7.46181
 20
3.62125
 30
0.0
 40
0.00393701
 41
0.00393701
  0
VERTEX
  8
0
 10
7.44097
 20
3.62181
 30
0.0
 40
0.00393701
 41
0.00393701
  0
VERTEX
  8
0
 10
7.43408
 20
3.62181
 30
0.0
 40
0.00393701
 41
0.00393701
  0
VERTEX
  8
0
 10
7.42583
 20
3.58876
 30
0.0
 40
0.00393701
 41
0.00393701
  0
VERTEX
  8
0
 10
7.40104
 20
3.60531
 30
0.0
 40
0.00393701
 41
0.00393701
  0
VERTEX
  8
0
 10
7.40104
 20
3.60531
 30
0.0
 40
0.00393701
 41
0.00393701
  0
VERTEX
  8
0
 10
7.39492
 20
3.59793
 30
0.0
 40
0.00393701
 41
0.00393701
  0
VERTEX
  8
0
 10
7.38081
 20
3.581
 30
0.0
 40
0.00393701
 41
0.00393701
  0
VERTEX
  8
0
 10
7.36513
 20
3.56244
 30
0.0
 40
0.00393701
 41
0.00393701
  0
VERTEX
  8
0
 10
7.35633
 20
3.5524
 30
0.0
 40
0.00393701
 41
0.00393701
  0
VERTEX
  8
0
 10
7.35422
 20
3.55024
 30
0.0
 40
0.00393701
 41
0.00393701
  0
VERTEX
  8
0
 10
7.35482
 20
3.55274
 30
0.0
 40
0.00393701
 41
0.00393701
  0
VERTEX
  8
0
 10
7.36219
 20
3.58078
 30
0.0
 40
0.00393701
 41
0.00393701
  0
VERTEX
  8
0
 10
7.36253
 20
3.58328
 30
0.0
 40
0.00393701
 41
0.00393701
  0
VERTEX
  8
0
 10
7.36274
 20
3.58512
 30
0.0
 40
0.00393701
 41
0.00393701
  0
VERTEX
  8
0
 10
7.36253
 20
3.60238
 30
0.0
 40
0.00393701
 41
0.00393701
  0
VERTEX
  8
0
 10
7.36253
 20
3.60807
 30
0.0
 40
0.00393701
 41
0.00393701
  0
VERTEX
  8
0
 10
7.32943
 20
3.62457
 30
0.0
 40
0.00393701
 41
0.00393701
  0
VERTEX
  8
0
 10
7.33008
 20
3.62549
 30
0.0
 40
0.00393701
 41
0.00393701
  0
VERTEX
  8
0
 10
7.33729
 20
3.63525
 30
0.0
 40
0.00393701
 41
0.00393701
  0
VERTEX
  8
0
 10
7.34321
 20
3.64996
 30
0.0
 40
0.00393701
 41
0.00393701
  0
VERTEX
  8
0
 10
7.34321
 20
3.65483
 30
0.0
 40
0.00393701
 41
0.00393701
  0
VERTEX
  8
0
 10
7.30192
 20
3.67964
 30
0.0
 40
0.00393701
 41
0.00393701
  0
VERTEX
  8
0
 10
7.30192
 20
3.68511
 30
0.0
 40
0.00393701
 41
0.00393701
  0
VERTEX
  8
0
 10
7.35146
 20
3.68511
 30
0.0
 40
0.00393701
 41
0.00393701
  0
VERTEX
  8
0
 10
7.368
 20
3.7099
 30
0.0
 40
0.00393701
 41
0.00393701
  0
VERTEX
  8
0
 10
7.37625
 20
3.70167
 30
0.0
 40
0.00393701
 41
0.00393701
  0
VERTEX
  8
0
 10
7.41482
 20
3.7595
 30
0.0
 40
0.00393701
 41
0.00393701
  0
SEQEND
 8
0
  0
ENDSEC
  0
EOF
