<?xml version="1.0" encoding="utf-8"?>
<!DOCTYPE svg PUBLIC "-//W3C//DTD SVG 1.1//EN" "http://www.w3.org/Graphics/SVG/1.1/DTD/svg11.dtd">
<!-- exported from Silhouette Studio Business Edition V4.1.430ssbe -->
<svg version="1.1" xmlns="http://www.w3.org/2000/svg" xmlns:xlink="http://www.w3.org/1999/xlink" width="317.5mm" height="304.8mm" viewBox="0 0 317.5 304.8">
<defs/>
<path d="M 103.145 46.51849 L 103.9843 46.51849 L 107.9711 50.08479 C 110.3632 52.60217 113.629 55.88822 115.9447 58.47608 C 118.0297 60.80624 120.6449 64.05629 122.6592 66.44781 C 123.1645 67.11731 136.2649 84.55231 137.837 86.51698 C 137.837 86.51698 139.3471 87.00646 140.7047 87.00646 C 140.6742 86.54091 140.4249 80.01373 140.4249 80.01373 L 142.5233 76.86699 C 143.4758 73.53383 144.4774 72.9223 148.0488 71.90215 C 150.0658 72.04618 152.0016 72.09491 155.3929 73.79018 L 156.7218 76.65721 C 156.9526 76.74112 157.2939 76.79066 157.4912 76.93692 C 157.744 77.12434 157.9318 77.52431 158.1207 77.77605 L 158.1906 79.38438 C 158.1906 79.38438 157.3484 81.70639 157.1415 82.74089 L 159.1698 83.02061 L 164.4156 85.53799 L 165.185 85.25828 C 167.2203 82.636 169.8668 79.08592 171.9695 76.51736 C 174.6551 73.23688 178.4323 69.02813 181.2021 65.81846 L 189.5953 57.21738 L 190.8543 56.16847 L 193.1624 55.32935 L 194.8411 55.32935 L 194.911 56.09855 L 190.5046 63.02136 L 187.9866 68.26591 C 186.7206 72.27419 186.1712 73.46548 184.4195 77.28656 C 184.4195 77.28656 178.7442 86.88306 178.3344 87.56589 L 179.5934 93.02023 L 178.5443 92.18109 L 178.3344 92.39088 L 178.9639 94.27893 L 178.9639 97.84521 C 178.9323 98.16455 178.9055 98.61119 178.7541 98.89412 C 178.586 99.20803 178.1665 99.48151 177.9147 99.73325 L 177.0754 102.2506 L 176.2361 102.6702 L 172.8788 106.8659 L 172.5291 106.5862 C 173.1556 105.0202 172.9487 104.4988 172.9487 102.3905 L 172.1094 102.1807 L 171.8296 101.4115 L 170.3608 104.9778 L 170.7805 105.6072 C 170.7805 105.6072 171.0993 105.5877 171.3401 105.4673 L 171.41 105.8169 L 169.9412 106.2365 L 169.5215 106.8659 C 169.5215 106.8659 169.5706 110.5572 169.3117 112.1104 L 167.8429 114.418 L 163.4364 118.1941 L 164.4856 119.4528 C 164.4856 119.4528 167.2051 121.8957 170.3608 123.6484 L 171.7597 123.5086 C 172.3125 123.2946 178.4061 121.3391 179.8732 119.8724 L 179.6633 118.4039 C 179.6633 118.4039 178.1999 117.0828 177.9847 116.3061 C 177.9228 116.0828 177.9824 115.0588 178.1945 113.9985 L 179.7333 113.2292 C 179.7333 113.2292 181.6877 110.8763 181.8316 110.7119 L 183.3004 110.5021 C 183.3004 110.5021 187.0744 106.9919 189.5254 103.9289 C 189.5254 103.9289 189.2838 103.2487 189.3855 102.7401 L 190.015 102.9499 L 190.9942 102.2506 L 191.204 99.31369 L 191.3439 99.31369 L 192.1833 100.992 L 192.463 100.992 C 192.463 100.992 199.4555 92.88223 200.2967 92.04124 L 201.4158 92.18109 L 199.5273 95.11806 L 192.8127 103.0898 L 193.1624 103.3695 L 194.6313 102.1108 L 194.911 102.4604 C 194.5371 103.3328 194.2816 103.5361 194.2816 104.5582 L 197.3591 105.2575 L 197.2192 105.3974 L 194.2816 106.2365 L 195.9602 108.5441 L 195.7504 108.7539 L 193.6521 107.4952 L 193.2324 110.4322 L 191.9734 107.9148 L 190.2948 109.593 L 189.945 109.3133 C 189.945 109.3133 190.9881 107.4736 190.7843 106.7959 C 190.7457 106.6673 190.5885 106.5512 190.5046 106.4463 L 189.4554 106.6561 L 185.2588 111.4811 C 184.8834 113.358 185.3195 113.8354 185.8883 115.2571 L 190.6445 115.9564 L 190.5046 116.0963 L 186.7276 116.9354 L 186.0981 118.1941 L 185.8883 123.2289 L 185.7484 123.3687 L 184.4195 119.243 C 181.6385 121.8598 178.7932 124.4605 173.2985 128.2637 C 171.1402 128.9829 170.6152 129.0427 168.0527 128.4734 C 168.0527 128.4734 160.1501 124.6973 158.8201 124.6973 L 158.4005 125.3267 C 158.4005 125.3267 158.0264 129.5918 157.9808 129.7321 C 157.6898 130.6269 157.0211 131.034 156.0923 131.8299 L 154.4137 132.2495 C 150.3902 135.1228 149.7391 135.5463 144.7614 138.3332 L 147.839 142.5988 L 151.476 150.081 L 150.8466 150.2908 L 149.1679 149.4516 L 148.9581 149.6614 L 150.4269 153.2278 L 149.3777 153.4375 L 149.1679 160.9897 L 147.0696 173.9962 L 146.8598 178.8212 L 148.1187 184.4853 L 148.7482 202.3168 C 148.8112 202.6 149.7367 206.5616 151.0564 210.7081 L 151.6859 211.757 C 151.6859 211.757 153.6357 212.4198 154.3437 213.2954 C 154.6387 213.6602 154.8333 214.2744 155.0432 214.694 C 155.0432 214.694 155.2307 216.4689 154.8333 217.2113 C 154.6653 217.5252 154.2458 217.7987 153.994 218.0505 C 153.994 218.0505 153.4298 221.7753 153.3645 222.0363 L 152.5252 222.4559 C 152.4627 222.4455 151.1434 222.2461 150.6367 222.2461 L 150.4269 223.5048 L 149.5876 224.3439 L 148.1187 224.3439 C 148.1187 224.3439 145.2457 222.9057 144.6216 222.1762 C 144.2917 221.7906 144.034 221.1482 143.7822 220.7077 L 142.1036 214.8338 L 141.2643 213.3653 L 141.2643 211.2675 L 142.3134 208.7501 L 142.3134 206.6523 C 139.9376 203.4853 135.9676 198.0396 135.389 197.0023 C 134.4629 195.342 133.2534 192.7235 131.8219 188.1915 C 131.8219 188.1915 131.4254 177.4432 131.4022 177.073 L 122.7991 158.6122 L 121.3303 154.6263 C 121.3303 154.6263 120.544 148.3351 120.491 148.123 L 118.1129 147.9832 L 116.5042 147.0741 C 118.4301 145.4449 118.4254 145.4075 120.0014 143.4379 L 121.75 139.9415 L 121.68 139.5919 L 120.4211 139.8017 C 119.4823 140.3648 118.4026 141.0284 116.2244 141.8995 C 113.0918 142.1083 112.4496 142.5821 109.5098 141.4799 L 105.8028 141.41 C 105.8286 141.3584 105.9427 141.0428 105.9427 140.8506 L 103.2149 140.8506 L 103.075 140.1513 L 105.5231 138.6129 L 105.5231 138.3332 L 102.4455 137.6339 L 103.0051 137.1444 L 106.5722 136.7249 L 107.8312 136.0955 L 110.559 136.3053 L 116.0146 138.8227 L 117.6933 137.9836 L 128.2548 128.8231 C 123.8453 127.1939 121.7912 126.9612 120.0713 122.9492 L 119.8615 120.222 L 121.2604 114.0684 L 121.2604 113.7887 C 120.3376 112.7343 118.198 110.436 116.2944 107.0057 C 116.2944 107.0057 112.9041 100.2269 111.2585 95.46767 C 108.1055 86.34933 105.2867 72.73314 102.8652 54.97971 L 102.6554 48.68624 L 103.145 46.51849 Z M 209.1096 67.49672 L 209.3894 68.26591 C 209.1125 69.51158 208.9697 69.76246 208.9697 70.78331 C 208.9697 70.78331 210.144 70.74096 210.6484 70.99309 L 209.8091 72.04199 L 212.327 73.72026 L 209.3894 73.51048 L 208.9697 73.72026 L 209.1796 75.18874 L 208.1304 74.34961 L 207.2351 75.69221 L 206.7875 76.36351 C 206.7875 76.36351 206.5948 76.72401 206.3119 77.00684 C 206.3245 76.81096 206.5217 74.0699 206.5217 74.0699 C 206.516 73.96309 206.4727 73.82515 206.4517 73.72026 C 205.6553 73.85297 205.4764 73.98676 204.843 73.86011 L 205.8922 72.8112 L 203.1644 71.13295 L 206.4517 71.06302 C 206.406 70.67411 206.1671 70.16368 206.4517 69.59454 L 207.5009 70.43367 L 209.1096 67.49672 Z M 200.5065 73.58041 C 200.5275 73.93704 200.4842 74.42404 200.5765 74.76917 C 200.6855 75.17704 201.0171 75.65025 201.206 76.02786 L 202.6048 76.93692 C 202.3384 77.20332 201.7497 77.07678 200.9962 77.07678 L 200.5765 77.70612 L 200.1568 77.49633 L 199.3175 78.96481 L 198.9678 78.89489 L 199.1776 77.84598 L 198.5481 76.37749 L 197.429 75.39851 L 197.429 75.25866 L 198.688 75.46844 L 199.947 74.8391 L 200.5065 73.58041 Z M 205.7523 80.92278 L 206.2419 81.06264 L 205.6124 83.99959 L 205.9621 84.48907 L 206.6616 84.20938 C 206.9344 84.1003 207.0095 84.06865 207.2911 84.20938 L 206.4517 85.25828 L 209.1796 87.14632 L 208.9697 87.35611 C 208.4032 87.23024 207.6581 86.99986 207.0813 86.93655 C 206.7684 86.90221 206.3468 86.93655 206.0321 86.93655 L 206.0321 88.40501 L 205.8223 88.61481 L 204.7731 87.56589 L 203.3043 90.50284 L 202.9546 90.43291 C 203.1559 88.92361 203.4421 87.62566 203.3043 86.93655 C 203.0388 86.98078 202.1706 87.17137 201.6956 87.07639 L 202.5349 86.23726 L 202.0453 85.46806 L 199.8071 84.34923 L 200.5765 84.06952 L 203.3043 84.2793 C 203.3043 84.11017 203.1948 83.27008 203.0944 82.60104 L 204.1436 83.85974 L 205.7523 80.92278 Z M 138.6518 88.24876 L 139.3758 89.10429 L 142.1036 89.94342 L 142.9429 89.52386 L 141.9637 88.82458 L 138.6518 88.24876 Z M 212.8866 91.83145 L 212.9565 93.23001 L 213.7958 93.85936 L 213.586 94.27893 L 214.845 95.32784 L 214.6351 95.53761 L 213.586 95.32784 L 212.9565 95.95717 L 212.5368 95.74739 L 211.4877 97.42564 L 211.138 97.35572 L 211.3478 96.30681 L 210.7183 95.2579 C 210.7183 95.2579 210.8582 94.92914 210.8582 94.69849 L 209.6691 93.99922 C 210.0888 93.91531 210.6907 93.9214 211.068 93.7195 C 211.3035 93.59351 211.5087 93.27895 211.6975 93.09015 L 211.9074 93.29994 L 212.8866 91.83145 Z M 141.0835 91.96313 L 142.5973 93.17649 L 143.165 92.52254 L 142.1736 91.97131 L 141.0835 91.96313 Z M 145.1811 92.53073 C 144.3225 93.33866 144.1355 93.42419 143.5025 94.41878 L 145.1811 100.5025 L 146.8598 112.0405 L 147.769 114.2782 L 148.8182 113.8586 L 151.9656 110.7119 C 151.483 110.4391 150.7851 110.1549 150.3569 109.8028 C 149.9087 109.4342 149.4757 108.7749 149.098 108.3343 C 148.3216 106.5931 147.1618 104.3219 146.51 102.5304 C 146.1968 101.6692 145.9225 100.4745 145.6707 99.5934 L 145.5308 92.39088 L 145.1811 92.53073 Z M 206.172 98.54449 L 205.8223 101.6213 L 206.0321 102.0409 C 206.5173 102.0409 206.6083 101.8927 207.0113 101.6912 L 207.2911 102.0409 L 206.6616 102.88 L 209.3194 104.6282 L 209.1796 104.768 L 206.2419 104.3485 L 205.8223 104.5582 L 206.0321 105.8169 L 204.9829 105.1876 C 204.8256 105.4433 204.6507 105.7274 204.4583 106.0398 C 204.4583 106.0398 204.0527 106.6989 204.0387 106.7216 C 204.0108 106.7669 203.4274 107.7916 203.1644 108.0546 L 203.5841 104.9079 L 203.3043 104.3485 C 202.9026 104.5091 202.5181 104.8206 201.9054 104.6981 L 202.7447 103.6492 L 202.465 103.0898 L 199.8071 101.7612 L 200.5765 101.4814 C 201.0172 101.6073 201.5915 101.8375 202.0453 101.901 C 202.4193 101.9534 202.9266 101.901 203.3043 101.901 C 203.2709 101.567 203.029 100.7731 203.3043 100.2227 L 204.3534 101.0619 C 204.3534 101.0619 206.0988 98.61769 206.172 98.54449 Z M 199.2476 109.2434 L 199.5273 109.3832 L 199.3175 110.4322 L 199.877 110.7119 L 199.947 111.4811 L 200.9962 112.3202 C 200.9332 112.3831 200.8721 112.5062 200.7863 112.53 C 200.5362 112.5992 200.1988 112.3831 199.947 112.3202 L 198.688 112.9495 L 198.0585 114.418 L 197.7088 114.3481 C 197.7717 114.0964 197.8869 113.7665 197.9186 113.509 C 197.9494 113.2591 197.9186 112.9216 197.9186 112.6698 L 197.2891 112.4601 L 197.2891 111.8307 L 196.0302 110.9916 L 197.8487 110.7119 C 197.8487 110.4428 197.8206 110.3759 197.7088 110.1525 C 197.8137 110.1315 197.9624 110.0355 198.0585 110.0825 C 198.185 110.1443 198.2054 110.3762 198.2683 110.5021 L 199.2476 109.2434 Z M 199.6672 118.4738 L 199.877 120.9912 C 200.252 120.8662 200.3784 120.7174 200.7863 120.9213 L 200.3667 121.5506 L 202.465 123.0191 L 202.2551 123.2289 L 199.7372 123.0191 L 199.947 124.068 L 199.1077 123.4386 L 198.0585 125.1169 L 197.7088 125.047 L 197.429 122.8093 C 197.3661 122.8722 197.3081 123.0142 197.2192 123.0191 C 197.0851 123.0265 196.9744 122.8233 196.8694 122.7394 L 197.2891 122.3198 L 195.1908 120.8513 L 195.3307 120.5716 L 197.429 120.9912 L 197.9186 120.6416 C 197.8557 120.4528 197.6947 120.2107 197.7088 120.0122 C 197.7154 119.9186 197.8067 119.8164 197.8487 119.7325 L 198.4782 120.3618 L 199.6672 118.4738 Z M 207.8506 122.6694 L 208.1304 122.8093 L 207.9206 124.068 L 208.5501 124.4876 L 208.3402 124.6973 L 210.0189 125.956 L 209.8091 126.1658 L 208.7599 125.956 L 207.9206 126.5854 L 207.5009 126.3756 L 206.4517 127.8441 L 206.102 127.7742 C 206.102 127.7742 206.3468 126.8441 206.3643 126.7777 C 206.443 126.4788 206.4517 126.4543 206.4517 126.1658 L 205.6824 125.8861 L 205.8922 125.4665 L 204.843 124.6274 L 206.0321 124.3477 L 206.3119 123.7883 L 207.0813 123.7184 L 207.8506 122.6694 Z M 137.4174 127.7742 C 136.9348 128.1727 136.2461 128.655 135.8087 129.1028 C 134.9317 130.0004 133.9971 131.4034 133.2208 132.3894 L 133.2907 132.739 C 133.5425 132.739 133.8834 132.7896 134.13 132.739 C 134.5996 132.6426 135.1931 132.365 135.5988 132.1096 C 136.1651 131.7532 136.7739 131.0817 137.2775 130.6412 L 138.7463 128.3336 L 137.7671 127.6343 L 137.4174 127.7742 Z M 201.3459 132.1096 L 201.4158 133.718 L 202.0453 134.1376 L 201.8354 134.3473 L 203.0944 135.3962 C 203.0315 135.4592 202.9704 135.5823 202.8846 135.606 C 202.6345 135.6753 202.2971 135.4592 202.0453 135.3962 L 201.4158 136.2354 L 200.7863 136.0256 L 200.1568 137.0745 L 199.8071 137.0046 L 199.8071 135.7459 L 199.1776 135.3263 C 199.2808 135.12 199.3175 135.0552 199.3175 134.7669 L 198.1284 134.0676 L 199.3175 133.9977 L 199.947 133.1586 L 200.3667 133.3683 C 200.3667 133.3683 201.2707 132.1848 201.3459 132.1096 Z M 191.4838 132.739 L 191.5537 133.9277 L 193.1624 135.6759 C 192.8973 135.941 192.2322 135.8158 191.7636 135.8158 L 191.5537 136.6549 L 191.1341 136.4451 C 191.1341 136.4451 190.2047 137.5841 189.945 137.8437 C 190.008 137.529 190.1232 137.1141 190.1549 136.7948 C 190.1735 136.6069 190.1549 136.3542 190.1549 136.1655 L 189.5254 135.7459 L 189.5254 135.1165 L 188.4063 134.3473 L 188.4063 134.2075 L 189.8751 134.2075 L 190.0849 133.3683 L 190.5046 133.7879 C 190.5046 133.7879 191.4161 132.8066 191.4838 132.739 Z M 209.3194 138.4031 L 209.1796 142.1093 C 209.6247 142.1093 209.9178 142.0284 210.6484 141.8995 L 209.5992 142.7386 L 212.327 144.8364 L 212.1172 145.0462 L 209.3894 144.4169 L 208.9697 144.8364 L 209.1796 146.0951 L 208.1304 145.0462 L 207.0813 146.7944 C 207.0813 146.7944 206.6791 147.4645 206.5567 147.6685 C 206.4186 147.8986 206.3677 148.0672 206.102 148.3328 L 206.2419 144.4169 L 205.2627 144.5567 L 205.8922 143.7176 L 202.7447 141.8296 L 203.3043 141.5499 L 206.5217 141.8296 L 206.4517 140.2912 L 207.2911 141.3401 C 207.4373 141.126 207.6201 140.8584 207.8394 140.5373 C 207.8394 140.5373 208.0901 140.1703 208.3095 139.8492 C 208.4421 139.655 209.1947 138.5278 209.3194 138.4031 Z M 195.0509 139.8716 L 195.3307 140.2212 L 194.4914 144.4169 L 195.0509 144.9064 L 197.0094 144.6267 L 195.3307 145.8854 L 199.5273 148.6125 L 199.3175 148.8223 L 195.1209 147.9832 L 194.4914 148.4027 L 194.911 149.8712 L 194.7012 150.081 L 193.4422 148.8223 L 191.3439 152.5984 L 190.9942 152.5285 L 191.1341 147.9832 L 189.3156 148.3328 L 190.5746 147.0741 L 190.0849 146.3049 L 186.5178 144.4169 L 186.5178 144.277 L 191.1341 144.9064 L 191.5537 144.6966 C 191.5537 144.3057 191.2925 143.1546 191.1341 142.389 L 192.6029 143.8575 L 195.0509 139.8716 Z M 179.5234 141.5499 L 179.1737 144.6267 L 179.3836 145.0462 L 180.3628 144.9064 L 180.6425 145.256 L 180.0131 146.0951 L 183.1605 147.9832 L 182.9507 148.193 C 182.3793 148.0502 181.813 147.7734 180.7824 147.7734 C 180.6356 147.7734 180.4397 147.7734 180.2928 147.7734 C 180.2928 147.7734 179.5048 147.7734 179.3836 147.7734 L 179.5934 149.2419 L 179.4535 149.3817 L 178.3344 148.4027 L 176.6558 151.1299 L 176.306 151.06 L 176.9355 148.123 L 176.4459 147.5636 L 175.4667 147.7035 L 176.0962 146.8643 L 175.8164 146.3049 L 172.9487 144.9763 L 173.7181 144.6966 L 176.8656 144.9064 C 176.8656 144.2141 176.3461 144.057 176.6558 143.4379 L 177.7049 144.4868 C 177.9447 144.0936 179.3606 141.7127 179.5234 141.5499 Z M 194.6313 155.815 C 194.6313 155.815 194.6764 156.9867 194.6779 157.0271 C 194.6849 157.209 194.656 157.4569 194.7012 157.6332 C 194.7362 157.7695 194.8481 157.9268 194.911 158.0527 C 195.3397 158.0527 195.5346 157.984 195.8903 157.9129 C 195.666 158.1371 195.577 158.3128 195.3307 158.6821 L 197.1492 159.8009 L 197.0094 159.9408 L 195.1209 159.731 C 195.1209 159.731 195.0341 160.6569 194.7712 160.9197 L 194.0717 160.3603 C 194.0717 160.3603 193.4632 161.3337 193.4422 161.3673 C 193.2507 161.6737 193.1614 161.8997 192.8827 162.1784 C 192.9456 161.6749 193.1782 161.0003 193.0925 160.5002 C 193.0608 160.3152 192.8967 160.1086 192.8127 159.9408 L 191.9734 159.9408 C 191.9734 159.7985 192.2007 159.5413 192.463 159.2415 L 190.5046 157.8429 L 190.5046 157.7031 L 193.0925 157.773 C 192.9675 157.3982 192.8187 157.2717 193.0226 156.864 L 193.6521 157.4933 L 194.6313 155.815 Z M 166.0943 166.5139 L 166.3741 167.2832 C 166.2482 167.7237 166.0179 168.2979 165.9544 168.7516 C 165.9194 169.0009 165.9544 169.339 165.9544 169.5908 C 165.9544 169.5908 167.0278 169.498 167.633 169.8005 L 166.5839 170.8495 L 169.3117 172.7375 L 169.1018 172.9473 C 168.5982 172.8214 167.9384 172.5911 167.4232 172.5277 C 167.0483 172.4816 166.5419 172.5277 166.1642 172.5277 L 166.1642 173.9962 L 165.1151 172.9473 L 163.4364 175.8842 L 163.0867 175.8143 L 163.4364 172.3179 L 162.1774 172.9473 L 161.8277 172.6676 L 162.8769 171.6187 L 160.149 169.9404 L 163.0167 170.0802 L 163.5063 169.5208 L 163.4364 168.402 L 164.2757 169.4509 L 166.0943 166.5139 Z M 173.4384 177.6324 C 173.4593 177.989 173.4028 178.4799 173.5083 178.8212 C 173.6166 179.1718 173.9489 179.5554 174.1378 179.8701 L 175.8164 180.919 L 175.6066 181.1288 C 175.2919 181.0658 174.8769 180.9506 174.5574 180.919 C 174.3069 180.8942 173.9699 180.919 173.7181 180.919 L 173.7181 181.7581 L 173.0886 181.3386 C 173.0886 181.3386 172.1421 182.2849 172.1094 182.3176 C 172.1094 181.9399 172.1962 181.4263 172.1094 181.0589 C 172.034 180.7393 171.7667 180.3736 171.6198 180.0799 L 170.4308 179.5904 L 171.8296 179.3107 L 173.4384 177.6324 Z M 172.1794 190.2193 L 172.4591 190.569 L 172.2493 192.0375 L 173.0886 192.457 L 172.669 192.8766 L 174.3476 194.1353 C 174.3476 194.1353 172.9487 194.1353 172.2493 194.1353 L 172.0395 194.9744 L 171.41 194.7646 L 170.5706 196.2331 L 170.2209 195.9534 C 170.2209 195.9534 170.4658 195.0233 170.4832 194.9569 C 170.5514 194.6979 170.5706 194.6541 170.5706 194.3451 C 170.4448 194.2822 170.2899 194.1127 170.151 194.1353 C 170.0631 194.1496 170.0041 194.2822 169.9412 194.3451 L 169.5915 194.0654 L 169.8013 193.6458 L 168.4724 192.457 L 168.4724 192.3172 L 169.9412 192.527 L 170.7805 191.6878 L 170.9903 191.8976 L 172.1794 190.2193 Z M 175.7465 205.3237 L 176.0263 205.6733 L 175.6066 207.7711 L 176.1662 208.89 L 177.2852 208.8201 L 176.2361 209.869 L 178.9639 211.5472 L 175.8164 211.3374 L 175.8164 213.0157 L 174.5574 212.1766 L 173.0886 214.694 L 172.7389 214.4142 C 172.8652 213.7829 173.1586 212.8828 173.1586 211.6871 L 171.41 211.757 C 171.41 211.5167 172.0576 210.9199 172.3192 210.6382 L 169.8013 208.7501 L 169.9412 208.4704 L 173.0886 208.6802 C 173.0886 208.5963 173.0886 207.4215 173.0886 207.4215 L 173.9279 208.2606 L 175.7465 205.3237 Z M 188.3364 209.3095 L 188.4063 210.7081 L 190.015 212.666 C 189.7892 212.8918 189.3448 212.8059 188.826 212.8059 L 188.6161 213.645 L 187.9866 213.2254 C 187.9866 213.2254 187.0139 214.4077 186.7976 214.624 C 186.8605 214.3723 186.9757 214.0424 187.0074 213.7849 C 187.0305 213.5975 187.0074 213.3444 187.0074 213.1556 L 186.1681 212.736 C 186.2336 212.6443 186.5178 212.3611 186.5178 211.9668 L 185.4686 211.3374 L 185.4686 211.1976 L 186.7276 211.1976 L 187.1473 210.5682 L 187.3571 210.778 L 188.3364 209.3095 Z" fill="#000000" fill-opacity="1" stroke="#000000" stroke-opacity="1" stroke-width="0.1" stroke-linecap="round" stroke-linejoin="round"/>
</svg>