<?xml version="1.0" encoding="UTF-8" standalone="no"?>
<!DOCTYPE svg PUBLIC "-//W3C//DTD SVG 1.1//EN" "http://www.w3.org/Graphics/SVG/1.1/DTD/svg11.dtd">
<svg version="1.1" xmlns="http://www.w3.org/2000/svg" xmlns:xlink="http://www.w3.org/1999/xlink" preserveAspectRatio="xMidYMid meet" viewBox="0 0 640 640" width="100" height="100"><defs><path d="M310.92 194.33C310.92 205.36 301.96 214.33 290.92 214.33C279.88 214.33 270.92 205.36 270.92 194.33C270.92 183.29 279.88 174.33 290.92 174.33C301.96 174.33 310.92 183.29 310.92 194.33Z" id="c1tsixUCoy"></path><path d="M250.35 209.6L289.15 194.33L327.94 209.6L313.12 234.33L265.17 234.33L250.35 209.6Z" id="b3E1IYf1y"></path><path d="M374.75 207.94C374.75 218.98 336.39 227.94 289.15 227.94C241.9 227.94 203.55 218.98 203.55 207.94C203.55 196.9 241.9 187.94 289.15 187.94C336.39 187.94 374.75 196.9 374.75 207.94Z" id="b17y9kDqPW"></path><path d="M195.39 204.22L380.07 204.22L380.07 211.67L195.39 211.67L195.39 204.22Z" id="a8ZaR31our"></path></defs><g><g><g><use xlink:href="#c1tsixUCoy" opacity="1" fill="#c04d4d" fill-opacity="1"></use><g><use xlink:href="#c1tsixUCoy" opacity="1" fill-opacity="0" stroke="#b6752e" stroke-width="1" stroke-opacity="1"></use></g></g><g><use xlink:href="#b3E1IYf1y" opacity="1" fill="#9e8996" fill-opacity="1"></use></g><g><use xlink:href="#b17y9kDqPW" opacity="1" fill="#7fdc3d" fill-opacity="1"></use></g><g><use xlink:href="#a8ZaR31our" opacity="1" fill="#dbd4d8" fill-opacity="1"></use></g></g></g></svg>